<svg version="1.2" baseProfile="tiny-ps" xmlns="http://www.w3.org/2000/svg" viewBox="0 0 251 267" width="251" height="267">
	<title>example2-svg</title>
	<style>
		tspan { white-space:pre }
		.shp0 { fill: #ff8f16 } 
		.shp1 { fill: #ab6800 } 
		.shp2 { fill: #4b3100 } 
		.shp3 { fill: #dcb1c1 } 
		.shp4 { fill: #ffffa6 } 
		.shp5 { fill: #ffffff } 
		.shp6 { fill: #ffe7c1 } 
		.shp7 { fill: #dfc9a6 } 
		.shp8 { fill: #9e7762 } 
		.shp9 { fill: #000000 } 
		.shp10 { fill: #6b4900 } 
		.shp11 { fill: #d4ac76 } 
		.shp12 { fill: #9a8114 } 
		.shp13 { fill: #db8289 } 
		.shp14 { fill: #b56669 } 
		.shp15 { fill: #7c2f3e } 
		.shp16 { fill: #4b1c26 } 
		.shp17 { fill: #eac3c9 } 
		.shp18 { fill: #84bcff } 
		.shp19 { fill: #399df9 } 
		.shp20 { fill: #307fda } 
		.shp21 { fill: #283c9a } 
		.shp22 { fill: #1a1a1a } 
		.shp23 { opacity: 0.988;fill: #ffffff } 
		.shp24 { fill: #b188a2 } 
		.shp25 { fill: #5e5362 } 
		.shp26 { fill: #483c4c } 
		.shp27 { fill: none;stroke: #000000 } 
	</style>
	<g id="layer2">
		<path id="path5003" class="shp0" d="M97.54 224.41C95.44 224.76 94.14 223.77 91.88 223.88C91.63 229.36 90.73 235.21 93.65 240.49C90.15 244.23 84.94 243.48 79.26 244.65C53.8 249.9 15.56 234.46 44.33 210.62C44.33 205.92 44.3 201.24 45.75 196.91C19.12 183.92 13.75 145 13.75 117.5C13.9 99.93 18.44 89.22 28.5 79.75C34.7 75.58 31.69 83.43 31.75 83.5C28.48 96.53 28.93 108.02 36.25 116C40.87 121.04 58.84 129.63 61.12 135.81C62.76 137.06 63.44 137.41 64.5 137.75C73.98 116.46 91.31 104.7 114 100.75C147.2 89.71 197.39 90.49 223.75 110.75C232.04 117.12 242.64 129.09 245.63 140.44C247.64 148.06 244.42 153.84 246 163.11C247.03 169.16 250.49 184.64 248.25 190.25C247.38 198.2 245.51 199.56 240.21 203.1C243.77 214.64 243.44 225.74 237.65 233.07C231.66 240.65 219.99 244.27 209.79 244.73C199.38 248.39 191.53 255.18 183.24 259.51C176.34 257.37 171.26 247.74 168.78 241.55C147.15 242.33 113.28 238.35 97.54 224.41L97.54 224.41Z" />
		<path id="path8994" class="shp1" d="M171.66 219.91C171.77 219.9 171.88 219.92 172 219.94C174.77 220.14 180.23 224.73 182.38 225.5C180.92 226.57 181.3 228.81 183 228.47C187.45 227.57 172.66 236.26 181.41 235.06C184.3 234.67 188.38 236.55 186.24 239.22C186.53 242.11 183.58 240.69 182.12 242.06C179.77 239.85 176.43 238.33 174.34 236.53C171.94 237.66 168.35 238.02 167.13 238.13C166.54 231.99 168.03 220 171.66 219.91L171.66 219.91Z" />
		<path id="path9020" class="shp1" d="M192.13 240.13C194.26 244.25 199.86 241.89 204.13 240.13C204.82 238.75 205.52 237.22 205.72 235.53C206.6 236.6 208.79 238.01 211.16 239.31C216.75 239.31 226.29 238.3 234.41 234.1C230.69 241.52 216.53 246.13 207.66 244.72C203.3 247.21 201.1 247.84 199.03 248.63C193.92 254.37 187.59 259.49 181 261.38C176.2 258.97 174.52 253.49 172.5 249.63C175.25 247.69 177.14 243.24 178.18 240.93C181.96 239.99 185.57 241.6 188.41 239.65C190.44 238.25 192.13 240.13 192.13 240.13Z" />
		<path id="path9075" class="shp2" d="M183.44 238C183.84 238.02 183.07 240.55 182.37 241.87C186.41 240.13 180.98 246.33 180.48 247.1C182.75 245.87 186.86 244.49 188.72 243.69C190.71 243.34 190.45 245.32 190.25 246.25C196.3 249.24 202.51 245.12 206.13 241.5C214.37 242.85 222.04 241.33 229.88 239.63C223.04 245.92 215.72 244.63 207 244.63C202.89 248.69 191.5 252.26 188.75 256.38C185.62 254.19 181.77 251.23 182.31 248.41C178.04 249.81 172.62 251.65 172.31 250.03C175.21 245.14 171.02 240.38 183.44 238Z" />
		<path id="path8975" class="shp3" d="M185.25 253.62C187 253.26 188.22 252.17 189.38 251.37C190.72 257.62 182.96 267.52 179.75 260.37C182.7 258.68 183.95 255.99 185.25 253.62Z" />
		<path id="path7205" class="shp1" d="M218.19 163.33C215.12 165.38 211.92 167.68 210.59 171.11C209.43 170.09 208.38 169.36 205.9 170.31C206.38 169.04 206.98 164.44 208.04 163.47C208.51 163.06 209.1 163.5 209.51 162.86C211 160.49 217.13 153.54 220.44 155.1C214.5 158.08 215.02 160.69 215.75 162.73C216.86 162.64 216.74 163.46 218.19 163.33L218.19 163.33Z" />
		<path id="path7221" class="shp1" d="M237.99 183.13C237.82 182.21 236.56 180.61 236.81 179.45C237.6 178.25 238.92 177.52 239.49 176.43C240.81 173.87 239.84 170.93 240.04 167.43C241.03 171.57 241.89 175.68 241.35 180.03C240.33 182.07 240.35 183.38 237.99 183.13L237.99 183.13Z" />
		<path id="path7229" class="shp1" d="M228.63 157.28C230.84 160.63 230.55 163.31 231.47 166.35C232.52 167.15 230.05 169.12 231.31 168.41C230.02 169.05 229.66 172.99 228.56 175.69C235.89 180.52 242.22 186.75 246.75 192.25C245.89 197.57 235.93 204.71 232.69 207.59C222.82 216.36 198.04 208.68 188.75 194.75C188.34 185.1 187.69 176.5 192.75 170C202.42 165.84 212.24 167.35 221.13 171.5C221.56 170.39 222.62 169.43 223.06 167.85C223.73 167.31 224.5 167.31 224.91 166.35C227.2 165.53 227.24 159.82 228.63 157.28L228.63 157.28Z" />
		<path id="path6914" class="shp1" d="M58 164C59.14 138.96 78.83 109.78 108 100.5C115.14 103.71 125.68 107.94 134 119C140.97 136.43 150.3 136.66 174 136.5C165.88 141.91 134.42 140.69 118.64 126.59C113.03 121.58 108.24 130.37 94 126.75C82.72 136.63 85.28 148.93 93.17 162.62C97.23 169.66 93.25 176.6 90.89 185.7C89.93 189.38 95.84 189.9 99.11 194.01C101.9 197.51 96.62 202.88 103.35 206.95C107.23 209.3 103.16 203.17 106.78 197.23C107.39 198.54 109.68 199.98 109.6 201.93C109.28 209.57 117.9 212.32 123.44 214.5C120.25 221.87 134.4 228.07 154.68 213.53C163.72 207.05 158.27 235.48 164 236C144.22 249.63 112.21 239.87 97.5 222C95.29 223.79 94.06 223.25 92 224C93.81 229.55 94.03 238.85 90.5 241C81.56 246.19 71.35 245.98 61.83 245.7C55.92 245.54 50.58 242.97 45.85 241.1C40.86 239.14 36.59 237.73 34.27 232.06C30.17 222.04 38.29 216.57 45.77 211.85C44.9 204.51 47.14 196.97 48.5 192.5C46.71 179.69 53.91 172.17 58 164L58 164Z" />
		<path id="path6198" class="shp4" d="M193.17 124.17C181.93 141.2 151.88 134.2 138.37 128.42C132.8 108.78 113.16 101.99 102.22 91.73C95.03 75.46 92.99 58.05 100.9 47.1C96.22 32.98 95.99 22.52 106.52 16.73C107.58 14.62 109.49 14.56 112.32 14.28C113.39 12.26 115.15 9.65 116.33 8.36C118.5 5.98 122.13 6.11 126.35 5.38C130.09 6.97 129.6 9.79 131.3 12.1C138.95 6.06 152.46 7.48 159.84 9.83C166.34 5.74 174.51 8.06 178.32 8.56C183.75 2.72 187.8 3.08 194.59 4.32C194.3 8.59 194.42 12.74 194.23 17.05C206.96 18.4 208.42 29.8 205.9 38.61C209.68 48.21 212.58 54.75 210.5 66.19C216.3 75.09 212.42 82.57 208.02 89.17C198.46 98.18 191.42 110.73 193.17 124.17L193.17 124.17Z" />
		<path id="path5210" class="shp5" d="M115.22 65.48C114.33 64.25 112.7 61.36 112.39 60.89C112.22 55.34 111.56 49.05 111.15 44.09C114.11 39.49 118.37 37.04 121.93 35.43C123.48 35.8 125.25 36.15 126.88 36.67C115.04 42.63 112.1 56.59 115.22 65.48Z" />
		<path id="path5044" class="shp1" d="M45.5 197C22.48 183.67 15.41 153.65 13.75 127.25C12.82 112.43 16.72 91.29 28 81C19.39 96.24 17.01 129.45 25.75 146.25C31.75 157.78 39.42 160.31 49.25 166" />
		<path id="path5094" class="shp6" d="M212.93 70.8C218.22 70.95 221.65 73.86 227.53 75.65C228.09 75.82 228.98 74.55 229.94 76.02C227.78 84.3 219.09 86.21 210.93 86.22C211.59 81.16 214.7 75.57 212.93 70.8Z" />
		<path id="path4970" class="shp7" d="M110.84 79.43C113.33 82.66 113.15 84.59 111.5 88.78C104.17 92.44 95.15 87.59 88.78 83.39C93.11 83.39 96.99 84.3 101.29 84.53C105.43 84.76 109.47 83.34 110.84 79.43Z" />
		<path id="path4933" class="shp8" d="M111.84 82.87C112.18 85.36 112.93 86.13 111.04 88.49C103.71 90.93 95.01 89.28 89.3 83.67C95.74 86.13 107.63 89.12 111.84 82.87L111.84 82.87Z" />
		<path id="path4978" class="shp5" d="M106.56 77.25C107.41 77.36 107.49 78.55 106.39 79.03C104.23 79.95 101.16 80.54 99.05 79.89C100.81 78.44 104.2 76.93 106.56 77.25Z" />
		<path id="path4980" class="shp9" d="M101.34 74.54C100.9 74.7 98.44 75.79 97.91 75.57C98.46 72.63 100.12 67.96 103.37 67.88C105.05 67.83 108.75 68.01 109.37 72.59C107.72 69.14 105.78 69.45 104.08 70.06C102.92 70.47 101.17 72.05 101.34 74.54L101.34 74.54Z" />
		<path id="path5024" class="shp6" d="M107.33 18.37C111.68 22.88 109.54 28.13 105.83 31.45C101 29.06 95.25 27.16 90.56 28.04C88.16 28.49 87.85 28.16 87.19 27.03C90.3 20.36 100.34 15.78 107.33 18.37Z" />
		<path id="path5043" class="shp7" d="M87.46 27.23C89.53 27.57 90.3 27.03 91.78 26.75C96.24 25.88 101.27 25.83 104.47 26.61C105.85 26.94 108.54 25.95 109.99 25.25C109.91 27.95 107.6 31.65 105.07 31.37C100.68 30.87 94.1 29.76 89.47 28.89C88.59 28.73 88.21 27.25 87.46 27.23Z" />
		<path id="path5062" class="shp8" d="M109.17 26.96C109.03 29.74 107.05 33.26 103.84 32.59C99.42 31.68 93.78 27.99 89.43 28.22C93.73 26.25 100.35 27.01 104.34 28.38C105.63 28.83 107.99 28.41 109.17 26.96L109.17 26.96Z" />
		<path id="path5113" class="shp7" d="M228.55 76.3C226.94 83.05 218.61 86.93 211.3 86.41C211.82 84.77 213.55 80.76 213.76 78.86C214.97 79.26 215.88 81.18 217.02 81.41C221.65 82.33 225.81 80 228.55 76.3L228.55 76.3Z" />
		<path id="path5132" class="shp8" d="M213.04 81C214.2 81.78 215.13 83.28 216.32 83.57C220.01 84.47 223.93 82.19 226.6 79.83C224.32 84.9 216.07 88.78 211.3 86.87C212.15 85.49 212.77 82.47 213.04 81L213.04 81Z" />
		<path id="path5140" class="shp5" d="M219 74.26C219.12 74.38 218.82 75.3 218.16 75.28C217.04 75.25 214.77 75.3 214.92 73.24C214.95 72.77 217.86 73.14 219 74.26Z" />
		<path id="path5142" class="shp5" d="M97.9 21.41C98.88 20.2 101.53 19.45 103.02 21C103.87 21.89 102.45 22.82 101.94 22.69C100.84 22.43 99.58 22.4 98.86 22.29C98.43 22.23 97.62 21.75 97.9 21.41Z" />
		<path id="path5063" class="shp10" d="M44.96 197.49C24.54 186.26 11.2 139.51 15.53 116.25C16.09 115.85 16.7 116.51 17.12 117.21C15.4 142.65 31.67 166.94 50.3 174.81" />
		<path id="path5096" class="shp6" d="M56 167.37C51.25 171.28 46.37 181.29 46.25 188.5C41.25 187.63 36.65 187.94 32.25 191.12C30.47 190.32 29.54 190.5 28.5 188.12C31.22 176.69 42.28 167.37 56 167.37Z" />
		<path id="path5071" class="shp7" d="M54.64 170.6C53.92 174.58 46.51 184.17 46.13 188.37C44.29 188.04 42.4 187.56 40.38 188.25C36.54 189.58 28.88 188.41 32.54 179.52C31.66 184.87 37.21 179.48 42.62 175.78C45.02 174.14 50.5 171.22 54.64 170.6L54.64 170.6Z" />
		<path id="path4795" class="shp8" d="M29.12 185.87C31.55 189.96 42.22 178.82 49.31 178.69C50.26 181.44 47.11 185.68 46.45 187.99C40.95 187.54 36.25 189.75 31.78 191.88C27.72 191.87 24.99 192.6 29.12 185.87L29.12 185.87Z" />
		<path id="path6175" class="shp11" d="M138.73 128.06C136.6 124.39 133.05 117.57 128.47 113.74C122.45 106.59 113.71 102.02 107.44 94.83C104.96 93.84 102.81 93.33 101.07 90.76C110.85 86.36 109.06 76.95 97.71 73.44C94.89 65.91 95.52 47.98 101.34 40.57C99.21 38.2 101.21 35.38 99.62 33.14C102.27 33.49 106.59 32.43 109.56 30.28C110.7 31.86 110.92 35.75 114.08 34C116.88 32.46 117.91 30.03 117.84 26.57C124.01 27.61 132.16 35.85 134.33 41.5C135.56 42.89 121.19 33.81 121.74 34.8C120.79 35.64 110.44 42.74 109.74 44.98C110.23 50.41 110.4 58.12 113.09 63.54C116.53 67.19 124.58 72.75 131.72 73.93C135.15 72.98 137.57 73.14 142.8 69.99C143.75 69.42 137.69 77.56 137.49 78.21C140.23 84.08 140.41 88.24 145.97 90.94C152.56 94.13 155.7 98.25 159.41 98.72C166.11 99.56 181.93 100.92 187.34 97.3C188.6 96.46 190.38 93.24 192.47 92C195.43 90.67 201.7 88.92 204.39 85.25C205.95 83.13 207.02 79.25 207.1 77.33C208.89 78.22 207.45 82.98 207.81 83.79C207.98 84.19 209.55 86.29 212.68 82C210.99 86.13 209.49 88.26 207 88.68C206.43 89.86 205.42 91.63 204.64 92.61C201.85 96.13 195.6 97 194.15 100.04C193.45 102.59 189.47 109.44 188.52 114.39C186.91 122.78 175.37 106.3 164.18 105.79C150.99 106.43 142.32 99.43 130.42 96.6M130.42 96.6C138.27 101.14 145.93 112.16 145.27 121.87C149.96 129.98 166.89 127.48 176.91 128.5C172.19 134.01 184.55 131.57 190.7 128.06C179.36 140.91 153.64 136.35 138.73 128.06" />
		<path id="path6217" class="shp12" d="M204.09 88.17C204.26 88.85 206.13 88.49 206.41 89.05C206.66 89.53 205.36 90.95 205.05 91.36C202.66 94.49 194.49 94.55 192.78 101.07C191.71 104.28 190.19 102.83 187.78 104.21C178.07 109.78 158.18 106.55 147.82 103.16C137.67 99.83 134.61 96.02 125.28 92.3C131.16 97.14 104.18 79.08 134.49 108.98C137.9 112.34 145.38 119.79 141.04 123.46C140.94 126.48 163.51 129.09 172.18 129.02C171.73 132.96 178.22 133.3 187.92 132.2C167.07 136.93 146.92 132.4 137.52 128.16C132.91 116.04 113.59 102.72 101.62 92.11C100.8 85.83 105.48 76.5 99.25 75.25C92.71 68.79 96.47 49.7 101.5 41.12C99.65 38.57 98.67 36.89 99.63 32.5C101.61 32.86 105.83 32.53 108.25 32.25C108.4 34.47 105.85 38.22 107.83 38.48C112.43 39.07 109.34 42.29 106.25 44.83C102.28 48.08 100.6 59.38 101.2 63.89C104.06 63.21 108.41 65.09 110.83 68.26C111.72 69.42 117.03 75.72 108.11 70.66C106.9 69.97 104.8 69.73 104.13 70.82C102.81 72.97 108.53 71.37 109.79 79.4C110.15 81.73 113.48 90.76 116.76 84.92C117.27 85.62 117.82 80.65 117.38 78.3C117.28 77.76 119.47 79.72 119.72 83.79C119.82 85.4 123.13 88.33 122.83 84.82C122.7 83.33 122.42 81.16 124.85 85.2C127.43 89.5 136.37 91.01 141.69 92.79C147.74 100.15 155.11 101.81 169.54 102.5C178.6 102.93 185.63 102.66 187.5 99.75C188.26 98.57 193.05 93.2 195.53 92.53C200.34 91.23 202.85 89.45 204.09 88.17L204.09 88.17Z" />
		<path id="path4914" class="shp6" d="M111.73 89.24C102.73 93.6 92.96 86.76 87.84 81.76C89.45 80.32 91.99 80.47 93.93 79.55C98.49 77.39 102.98 75.23 107.74 74.9C112.27 77.98 114.29 84.81 111.73 89.24L111.73 89.24Z" />
		<path id="path4546" class="shp6" d="M67.82 141.39C69.7 148.03 65.87 155.78 60.72 159.26C52.43 154.09 35.05 165.06 32.83 160.39C27.74 149.69 60.79 129.96 67.82 141.39Z" />
		<path id="path8233" class="shp10" d="M151.75 134.75C140.15 136.12 135.74 129.96 128.5 124C121.7 117.22 118.61 114.72 110 115.5C99.81 126.51 91.57 122.49 86 123C78.67 108.9 99.15 102.75 107 97.25C119.3 104.7 132.69 114.38 135.75 127.25C141.19 131.98 145.21 134.16 151.75 134.75Z" />
		<path id="path4506" class="shp6" d="M83.86 108.78C79.03 107.03 69.17 107.84 70.46 105.32C75.95 94.53 98.9 90.51 107.84 98.29C113.55 103.25 99.01 118.96 95.18 116.37C91.58 113.92 87.92 110.26 83.86 108.78Z" />
		<path id="path4498" class="shp6" d="M51.64 130.53C49.38 130.61 48.49 127.38 51.11 124.01C60.08 112.44 76.9 106.86 89.14 117.39C90.97 120.47 78.59 126.3 73.17 133.6C65.96 128.35 60.86 130.21 51.64 130.53Z" />
		<path id="path4650" class="shp7" d="M53.02 149.02C60.22 148.6 65.25 148.25 69.12 142.98C68.01 153.85 64.39 158.82 54.36 157.36C47.99 157.16 41.5 158.81 36.39 161.5C31.68 161.41 32.26 158.32 32.98 154.97C35.25 159.05 45.19 149.48 53.02 149.02L53.02 149.02Z" />
		<path id="path4666" class="shp7" d="M71.93 103.52C76.24 106.15 83.69 100.85 93.66 103.37C98.73 104.65 104.49 108.17 108.58 104.65C107.56 112.34 99.28 118.86 93.57 115.2C86.35 110.57 79.95 108.49 72.81 108.5C69.03 108.5 71.28 105.72 71.93 103.52L71.93 103.52Z" />
		<path id="path4658" class="shp7" d="M49.9 126.27C55.62 126.86 59.09 122.99 67.86 121.22C75.91 119.6 79.79 124.75 84.5 122.94C79.76 126.53 74.65 135.41 72.99 133.93C64.15 125.97 58.57 130.39 51.26 130.97C47.71 131.25 49.44 128.51 49.9 126.27L49.9 126.27Z" />
		<path id="path4631" class="shp8" d="M61.2 158.78C55.91 159.08 53.22 157.49 47.59 158.12C44.75 158.44 37.04 161.39 33.63 160.73C31.72 160.37 32.38 158.81 32.52 155.79C33.43 159.27 35.78 158.23 36.78 157.59C40.89 154.98 50.06 151.21 56.2 151.88C61.28 152.43 64.88 152.01 68.39 147.62C67.12 150.15 64.29 158.61 61.2 158.78Z" />
		<path id="path4526" class="shp8" d="M85.34 104.44C92.97 104.5 94.51 106.33 99.01 108.5C101.56 109.73 105.01 108.78 107.11 107.83C104.44 112.52 98.3 118.57 94.3 115.36C86.07 108.74 83.32 108.09 73.11 108C70.16 107.97 69.49 105.55 71.85 103.06C71.12 108.17 80.25 104.41 85.34 104.44L85.34 104.44Z" />
		<path id="path4534" class="shp8" d="M49.9 125.4C49.98 127.17 51.1 128.05 53.68 127.49C61.6 125.74 71.8 121.9 79.71 127.19C77.95 128.26 75.28 133 72.99 134.97C68.49 130.27 64.42 129.42 58.51 129.75C50.99 130.16 49.42 130.39 49.9 125.4L49.9 125.4Z" />
		<path id="path4674" class="shp5" d="M93.07 99.14C92.57 98.58 96.2 97.62 98.17 98.2C98.78 98.37 101.44 99.75 99.42 100.56C97.6 101.3 93.95 100.11 93.07 99.14L93.07 99.14Z" />
		<path id="path4676" class="shp5" d="M75.69 115.73C75.7 114.75 79.02 113.9 81.54 115.46C81.94 115.71 82 117.2 80.72 117.38C79.17 117.59 75.67 116.95 75.69 115.73L75.69 115.73Z" />
		<path id="path4699" class="shp5" d="M54.07 143.15C52.64 142.38 55.89 140.4 58.73 140.45C59.61 140.46 60.84 139.89 61.2 141.75C61.5 143.3 56.96 144.7 54.07 143.15L54.07 143.15Z" />
		<path id="path4468" class="shp6" d="M45.9 104.07C45.11 109.92 40.31 111.67 34.87 113.48C31.51 108.39 29.42 102.2 29.68 93.36C36.19 93.1 44.82 97.01 45.9 104.07Z" />
		<path id="path4457" class="shp6" d="M22.58 95.58C24.44 102.49 24.83 111.45 19.94 116.34C7.76 112.83 1.8 103.62 3.36 97.99C4.36 94.4 17.32 93.21 22.58 95.58Z" />
		<path id="path4488" class="shp7" d="M30.98 102.61C35.07 105.49 38.79 105.23 42.33 103.58C44 102.8 43.52 101.38 43.96 99.85C48.81 105.25 42.86 113.13 36.49 114.29C32.71 111.38 31.99 106.84 30.98 102.61Z" />
		<path id="path4438" class="shp7" d="M7.66 95.35C4.44 99.15 12.27 104.35 16.5 105.1C18.58 105.47 22.21 105.61 24.07 104.99C24.77 109.23 23.54 112.32 21.2 114.97C11.17 114.35 5.01 105.96 2.84 99.13C4.09 96.24 4.93 95.97 7.66 95.35Z" />
		<path id="path4419" class="shp8" d="M31.52 104.18C33.87 107.91 37.84 108.31 42.08 107.05C45 106.18 46.47 104.22 44.6 100.51C50.7 108.38 42.33 112.3 35.43 113.25C32.89 110.6 31.98 107.5 31.52 104.18Z" />
		<path id="path4411" class="shp8" d="M4.91 96.95C3.96 102.49 12.48 108.14 18.45 108.89C21.23 109.23 22.67 109.04 24.18 108.08C23.82 111.15 23.15 112.85 21.66 115.08C12.01 115.74 2.82 107.61 3.19 99.25C2.8 97.69 3.94 97.86 4.91 96.95L4.91 96.95Z" />
		<path id="path4465" class="shp5" d="M14.89 97.3C14.73 96.52 19.77 96.51 21.54 97.76C22.42 98.37 22.3 99.52 21.2 99.71C18.36 100.19 15.15 98.54 14.89 97.3Z" />
		<path id="path4496" class="shp5" d="M37.06 98.39C36.67 97.86 38.4 97.38 39.41 97.98C40.25 98.48 41.56 98.62 40.63 99.69C40.06 100.33 37.97 99.6 37.06 98.39L37.06 98.39Z" />
		<path id="path5223" class="shp13" d="M165.25 128C151.75 127.86 148.58 108.21 135 98.5C137 98.5 139 98.5 141 98.5C151.61 110.25 170.57 107.23 185.25 105.5C176.69 115.62 182.42 128.18 165.25 128Z" />
		<path id="path5242" class="shp14" d="M165 127C151.18 126.4 145.61 105.45 133.13 98.12C135.46 98.66 138.27 98.84 140.88 99C143.26 100.79 146.87 103.12 150.13 104.62C160.97 107.09 172.23 108.45 183.38 105.87C182.6 107.81 179.87 114.99 178.01 116.77C177.87 114.68 176.77 113.61 175.59 113.5C169.84 112.99 162.82 115.34 155.63 113.25C159.47 117.92 157.93 123.4 166.63 124.11C171.11 124.48 177.33 124.36 178 118C179 125.35 170.74 125.79 165 127Z" />
		<path id="path5278" class="shp15" d="M159.25 122.62C160.77 124.15 163.05 125.23 165.53 125.75C168.66 126.4 173.59 126.22 175.31 123.62C173.44 126.53 169.5 127.92 164.52 127.75C158.33 127.55 152.77 121.97 150.38 114.25C146.26 108.55 139.4 103.53 134.88 98.12C142.57 98.79 147.3 105.43 155.25 106.5C164.47 107.3 174.31 106.15 183.63 105.75C183.25 108.49 180.88 112.79 179.07 115.15C179.23 113.54 177.53 111.63 175.75 111.76C168.03 112.32 160.37 113.08 152.5 110.87C154.39 114.14 155.84 119.19 159.25 122.62L159.25 122.62Z" />
		<path id="path6054" class="shp16" d="M179.98 113.68C180.11 111.98 178.11 110.09 177.17 110.23C166.26 111.74 155.12 111.33 143.5 106.56C140.31 104.83 136.72 102.25 134.38 99.25C135.65 99.3 138.18 99.38 139.88 99.5C144.15 103.02 150.01 105.57 155.75 106.62C164.32 108.18 174.29 107.28 183.13 106.25C182.61 107.38 180.94 112.71 179.98 113.68L179.98 113.68Z" />
		<path id="path6056" class="shp17" d="M165.68 121.08C170.79 121.5 174.1 121.17 176.29 117.19C177.05 117.34 176.58 118.18 176.73 118.69C174.32 122.6 169.37 122.48 165.68 121.08Z" />
		<path id="path6088" class="shp7" d="M111.41 88.18C105.23 93.63 91.69 89.58 88.51 82.34C94.2 85.05 99.53 86.07 106.07 83.08C107.76 82.3 109.03 80.26 109.11 78.01C111.29 80.81 112.55 84.24 111.41 88.18Z" />
		<path id="path6069" class="shp8" d="M110.27 80.14C111.14 82.74 111.45 86.65 110.79 89.41C102.75 94.07 94.66 89.27 88.96 82.61C95.14 85.39 99.82 89.28 107.31 84.97C108.36 84.36 110.19 81.87 110.27 80.14L110.27 80.14Z" />
		<path id="path6159" class="shp11" d="M158.53 82.37C149.9 80.62 152.23 75.52 154.55 71.85C163.23 66.62 167.21 78.45 164.09 84.04C161.74 84.51 159.98 83.33 158.53 82.37L158.53 82.37Z" />
		<path id="path6109" class="shp12" d="M159.67 81.48C156.91 80.87 155.62 80.5 154.64 78.03C154.32 70.01 160.54 70.04 163.48 75.12C164.36 77.68 164.06 80.89 163.21 82.37C160.73 83.69 160.85 82.01 159.67 81.48Z" />
		<path id="path6167" class="shp11" d="M190.7 81.57C189.25 82.81 188.64 82.33 187.16 81.92C185.55 77.21 184.35 74.55 189.99 72.2C194.83 70.18 196.7 81.39 193.35 82.19C192.43 82.41 191.41 81.73 190.7 81.57Z" />
		<path id="path6117" class="shp12" d="M187.16 77.24C187.21 73.66 192.36 71.02 193.97 75.38C195.64 79.91 194.74 83.16 190.52 80.42C190.17 80.81 189.73 81.33 189.11 81.75C187.03 80.66 187.14 79.3 187.16 77.24L187.16 77.24Z" />
		<path id="path6262" class="shp11" d="M187.69 109.15C187.94 113.65 189.06 117.43 189.99 119.61C191.67 119.35 191.92 119.67 191.2 121.06C188.81 125.61 179.46 129.38 175.32 130.18C174.8 129.49 175.1 129.39 174.79 127.89C179.98 126.95 183.69 125 186.81 121.87C185.61 117.08 186.02 113.05 187.69 109.15Z" />
		<path id="path6310" fill-rule="evenodd" class="shp11" d="M122.03 10.31C129.83 17.98 132.22 28.8 137.25 39.6C139.55 44.54 147.38 54.26 151.79 56.4C152.99 56.98 154.52 56.51 156.03 56.97C156.01 62.33 142.04 54.04 141.56 53.1C138.75 47.3 132.24 41.13 129.16 35.81C126.36 34.4 122.96 32.31 118.75 28.35C117.63 26.59 116.98 22.68 114.75 20.74C112.96 19.17 109.88 19.49 106.72 18.5C106.46 14.95 114.72 9.88 117.69 8.56C119.89 7.59 120.28 8.59 122.03 10.31ZM134.88 38.63C133.62 37.91 132.13 37.25 130.41 36.44C131.72 37.3 133.4 38.03 134.88 38.63Z" />
		<path id="path6318" class="shp12" d="M120.17 27.52C116 18.09 113.01 17.04 108.09 18.96C105.73 17.12 113.8 14.14 114.02 13.42C118.52 4.85 128.07 23.81 129.34 28.89C129.53 29.64 148.46 63.05 145.21 60.81C139.49 56.87 139.84 40.09 123.07 34.55C115.38 32.01 120.95 29.28 120.17 27.52L120.17 27.52Z" />
		<path id="path6513" class="shp11" d="M137 77.75C139.95 76.38 143.23 67.13 144.13 64.87C142.75 54.9 148.67 63.34 142.55 56.47C137.97 44.13 142.04 50.85 146 57.75C146.59 58.78 148.89 61.16 150.95 58.47C152.14 56.92 152.23 63.73 152.88 64.62C150.92 68.31 147.62 66.78 146.63 68.25C143.82 72.38 141.06 77.75 137 77.75Z" />
		<path id="path6354" class="shp11" d="M163.75 8C167.06 11.23 166.81 15.78 167 20C162.71 17.96 160.12 12.73 159.38 9.87C160.08 9.62 161.96 8.72 163.75 8Z" />
		<path id="path6373" class="shp6" d="M204.05 20.14C210.83 17.74 217.14 21.65 220.04 26.24C216.05 27.37 211.85 30.74 209 32.6C207.99 28.17 205.79 23.64 204.05 20.14Z" />
		<path id="path6392" class="shp7" d="M206.87 26.42C209.85 27.77 211.54 26.42 213.94 25.44C216.01 24.61 217.72 25.57 219.51 26.06C215.41 26.94 212.35 30.36 208.91 32.6C209.32 30.14 207.96 28.04 206.87 26.42L206.87 26.42Z" />
		<path id="path6411" class="shp8" d="M208.2 28.98C210.91 29.65 212.52 27.43 214.39 26.5C215.47 25.96 218.01 26.15 218.98 26.15C215.38 27.37 211.63 30.61 209 32.78C209.12 31.3 208.66 30.19 208.2 28.98Z" />
		<path id="path6419" class="shp5" d="M209.93 21.63C210.92 21.51 212.41 21.89 211.61 22.56C211.14 22.96 210.14 23 209.53 22.74C209.13 22.57 208.57 21.8 209.93 21.63Z" />
		<path id="path6421" class="shp11" d="M134.37 10.63C137.43 12.87 137.76 15.52 139.25 19C140.92 27.74 147.19 35.56 150.12 43.41C151.45 46.95 160.09 50.93 160.67 55.79C164.13 57.46 161.58 58.96 177.25 60.53C182.9 57.08 191.66 50.04 191.76 45.25C193.72 51.16 182.85 62.03 176.91 64.41C171.48 64.86 157.92 66.13 151.77 63.87C150.22 63.3 151.85 59.57 150.74 58.88C149.14 60.46 157.63 57.75 155.53 54.7C151.7 49.12 147.21 44.47 143.53 38.43C135.85 25.84 136.53 23.34 132.5 12.75C132.97 11.78 134.64 10.85 134.38 10.63L134.37 10.63Z" />
		<path id="path6470" class="shp12" d="M156.1 57.53C154.92 59.91 148.59 61.84 145.01 59.61C145.87 60.57 145.71 63.12 145.22 65.59C143.65 73.53 132.71 78 127.76 78.69C124.79 79.87 123.37 77.48 126.87 76.43C114.7 70.03 107.62 66.76 109.56 48.87C110.15 58.78 120.66 71.03 131.66 75.03C135.97 74.48 138.51 73.1 140.94 70.08C143.54 66.84 144.34 62.92 142.81 59.75C138.63 51.09 134.77 39.34 136.95 42.74C142.11 50.81 146.55 56.24 150.35 57.91C153.14 59.14 156.1 57.53 156.1 57.53Z" />
		<path id="path6595" class="shp11" d="M186.75 7.75C186.34 17.2 190.84 26.9 192.44 36.8C192.89 39.56 191.65 43.41 192.94 45.14C192.69 47.72 191.92 46.28 191.32 43.65C190.68 40.87 190.21 36.78 189.75 35.06C187.56 26.93 183.82 16.19 180.5 9.25C181.09 6.65 181.17 5.22 183.75 3.87C185.91 4.74 186.77 5.1 186.75 7.75L186.75 7.75Z" />
		<path id="path5172" class="shp18" d="M124.85 36.01C125.1 36.2 126.14 35.8 125.95 36.49C114.21 44.72 113.87 56.04 115.83 65.39C115.46 65.17 114.96 64.34 114.42 64.25C110.43 55.94 114.16 40.89 124.85 36.01L124.85 36.01Z" />
		<path id="path5134" class="shp19" d="M125.58 36.14C129.36 37.22 131.08 38.78 131.88 40.81C122.49 47.1 121.05 61.12 125.38 71.75C121.55 70.71 117.06 67.79 114.63 63.74C110.93 54.31 115.35 40.38 125.58 36.14L125.58 36.14Z" />
		<path id="path5202" class="shp20" d="M122.99 39.23C124.6 38.99 125.66 39.68 126.71 40.2C126.16 39.6 125.73 39.4 125.2 38.97C126.23 38.57 126.78 39.39 127.5 39.59C126.96 38.38 126.04 38.2 125.2 37.64C125.58 37.76 126.53 37.89 126.62 37.91C126.77 37.72 126.68 37.49 126.71 37.29C129.18 37.84 130.55 39.55 131.57 41C119.78 45.36 120.17 61.87 124.14 70.7C121.04 69.81 118.24 67.63 116.36 65.22C116.96 65.95 118.44 65.94 119.02 66.01C117.8 64.77 116.22 63.45 115.04 62.48C116.2 62.69 117.48 63.06 118.4 63.27C117.3 62.31 115.76 61.09 114.86 60.36C115.75 60.45 116.32 60.56 117.16 60.71C116.31 59.97 114.93 58.6 114.42 58.15C115.73 58.97 117.07 58.51 118.49 58.32C117.63 58.12 116.68 57.07 116.36 56.82C116.98 56.82 117.6 56.82 118.22 56.82C117.17 55.54 115.49 54.9 114.6 54.43C115.99 54.15 117.17 54.83 118.22 55.23C117.05 54.2 115.54 52.85 114.68 52.05C115.91 52.61 117.51 52.83 118.93 53.29C118.11 53 117.23 52.33 116.54 51.87C117.53 51.72 118.63 51.82 119.72 51.87C117.89 50.81 116.69 49.69 115.66 48.51C117.02 49.64 118.63 49.87 120.08 50.28C119 49.19 117.31 47.94 116.72 47.54C118.49 47.65 119.85 48.23 121.23 48.78C120.35 47.73 119.17 47.14 118.4 46.48C119.53 46.25 120.53 46.66 121.49 46.83C120.61 45.73 119.43 45.18 118.31 44.54C120.34 44.13 121.63 44.98 123.17 45.6C122.07 44.31 120.22 43.39 119.19 42.94C121.3 42.52 122.57 43.23 124.14 44.09C123.58 43.32 122.73 42.79 122.02 42.24C123.29 41.97 123.98 42.53 124.94 42.94C124.48 42.13 123.6 41.7 122.9 41.26C123.8 41.2 124.67 41.55 125.38 41.71C124.16 41.11 123.76 40.16 122.99 39.23L122.99 39.23Z" />
		<path id="path5153" class="shp21" d="M131.49 40.1C132.13 40.74 131.66 40 132 40.87C120.29 46.35 119.48 61.5 125.5 72.25C124.93 71.96 124.14 71.24 123.25 71.12C116.07 63.5 119.84 44.03 131.49 40.1L131.49 40.1Z" />
		<path id="path4726" class="shp22" d="M131.96 40.47C137.12 44.76 141.7 52 143.5 60.75C142 67.66 141.25 73.87 132.75 73.87C131.24 73.74 126.31 72.87 123.75 71C117.97 63.27 119.4 45.8 131.96 40.47L131.96 40.47Z" />
		<path id="path4764" class="shp23" d="M137.37 52.42C137.37 54.26 135.81 55.75 133.87 55.75C131.94 55.75 130.37 54.26 130.37 52.42C130.37 50.58 131.94 49.08 133.87 49.08C135.81 49.08 137.37 50.58 137.37 52.42Z" />
		<path id="path5121" class="shp23" d="M129.25 48.87C129.25 49.77 128.52 50.5 127.63 50.5C126.73 50.5 126 49.77 126 48.87C126 47.98 126.73 47.25 127.63 47.25C128.52 47.25 129.25 47.98 129.25 48.87Z" />
		<path id="path6642" class="shp12" d="M156.38 56.5C160.2 60.82 166.14 62 171.37 62.95C165.12 63.51 158.11 62.61 153.88 59.12C154.95 58.07 155.7 57.3 156.38 56.5Z" />
		<path id="path6688" class="shp5" d="M200.38 34.5C205.83 38.69 209.07 46.79 206.63 54.12C206.46 49.09 203.18 46.45 200.5 45.25C201.81 42.3 201.27 37.64 200.38 34.5Z" />
		<path id="path6838" class="shp18" d="M201.51 38.29C203.56 39.47 205.66 42.5 206.17 46.1C204.81 44.35 204 40.84 201.42 39.19C201.32 38.39 201.54 39.06 201.51 38.29L201.51 38.29Z" />
		<path id="path6818" class="shp19" d="M207.32 47.54C207.32 49.85 206.96 52.28 206.87 54.26C205.59 50.4 204.46 48.83 201.13 46.83C201.22 43.89 200.83 40.2 201.44 38.75C204.12 40.07 205.59 44.49 207.32 47.54L207.32 47.54Z" />
		<path id="path6857" class="shp21" d="M201.57 44.09C201.59 43.44 201.64 43.18 201.75 42.9C205.06 44.36 206.47 49.01 206.96 51.65C205.19 47.88 203.67 44.82 201.57 44.09Z" />
		<path id="path6678" class="shp22" d="M207.38 57.62C207.36 59.62 205.85 61.51 205.25 63.25C199.48 60.12 199.06 52.84 198.63 48C201.28 46.75 201.53 45.71 201.56 43.56C206.05 45.88 207.41 51.96 207.38 57.62L207.38 57.62Z" />
		<path id="path6686" class="shp23" d="M204.37 50.92C204.37 52.07 203.4 53 202.19 53C200.98 53 200 52.07 200 50.92C200 49.77 200.98 48.83 202.19 48.83C203.4 48.83 204.37 49.77 204.37 50.92Z" />
		<path id="path6763" class="shp11" d="M191.58 42.68C192.37 45.31 196.79 49.81 199.72 46.1C199.72 47.57 198.65 52.21 198.65 53.11C196.88 50.47 194.63 49.59 192.47 48.34C191.58 46.31 191.66 44.4 191.58 42.68L191.58 42.68Z" />
		<path id="path6876" class="shp20" d="M203.21 42.94C203.33 42.43 203.36 41.86 203.45 41.33C203.52 41.61 203.9 42.19 203.78 42.63C203.88 42.43 204.03 42.04 204.09 41.82C204.33 42.75 204.09 43.22 204.09 43.83C204.16 43.67 204.57 43.2 204.44 42.83C204.58 43.36 204.72 44.23 204.51 44.91C204.72 44.55 205.13 44.15 205.04 43.45C205.14 44.19 205.3 45.02 205.02 45.88C205.04 45.58 205.52 45.21 205.46 44.82C205.59 45.23 205.54 45.91 205.44 46.31C205.67 46.21 205.61 46.24 205.9 45.66C206.06 46.05 206.01 46.62 205.92 46.92C205.95 47.16 206.18 46.68 206.43 46.27C206.44 46.45 206.26 47.08 206.13 47.49C206.73 46.78 206.85 49.59 206.83 50.1C205.3 47.68 204.51 44.37 201.39 42.99C201.5 41.85 201.75 40.47 201.75 39.23C202.17 40.18 202.36 41.24 202.28 42.46C202.32 42.25 202.32 40.86 202.3 40.54C202.67 41.21 202.57 42.24 202.54 42.5C202.68 41.96 203 41.18 202.72 40.38C203.27 41.17 203.21 42.01 203.21 42.94L203.21 42.94Z" />
		<path id="path6895" class="shp9" d="M54.05 130.89C55.23 130.4 57.01 129.04 58.65 129.48C61.33 130.56 63.19 132.17 65.54 135.49C65.05 135.51 62.11 135.89 60.77 136.19C59.66 134.44 54.9 130.74 54.05 130.89Z" />
		<path id="path6937" class="shp9" d="M84.46 113.57C84.05 113.29 82.73 112.71 82.25 112.58C82.79 111.8 84.32 110.86 85.43 110.56C85.78 110.84 86.35 111.48 87.02 111.8C86.15 112.38 85.36 112.95 84.46 113.57L84.46 113.57Z" />
		<path id="path6950" class="shp10" d="M80.75 126.47C72.04 141.66 80.18 159.55 86.06 168.38C88.83 167.69 88.83 170.14 89.94 170.85C82.94 179.78 75.32 195.62 84.46 199.94C87.15 201.21 94.18 197.46 95.8 200.53C97.23 203.24 95.39 210.02 97.48 213.73C98.88 216.2 96.51 221.96 96.82 223.33C88.76 225.05 78.51 218.72 74.03 215.03C71.95 205.48 72.9 193.05 74.53 184.5C72.86 185.49 71.51 186.51 70.84 189.94C69.3 187.74 70.6 183.63 65.91 182.88C62.9 187.04 59.64 190.66 56 195.6C55.01 202.83 53.17 211.75 57.75 217.88C54.52 217.2 52.98 216.56 49.28 216.1L49.28 226.35C55.58 236.85 66.12 243.22 80.38 244.72C74.83 247.49 68.41 246.18 61.74 245.65C49.15 244.64 36.54 240.31 33.38 228.47C31.49 221.41 36.62 215.73 44.69 210.78C42.86 190.66 51.8 170.7 67.31 159.88C67.61 160.08 67.9 160.27 68.19 160.47C65.54 146.75 71.76 134.84 80.75 126.47L80.75 126.47Z" />
		<path id="path6978" class="shp1" d="M210.5 151.5C207.75 156.25 195.86 183.6 192.17 197.22C191.87 198.34 178.01 201.38 176.63 212.66C175.53 221.56 166.81 225.5 165.99 239.85C152.53 248.35 130.99 237.8 130.15 238.12C129.48 236.71 146.31 228.94 146.48 220.01C146.56 215.37 161.73 191.06 175.01 191.78C182.39 186.82 176.6 167.75 185.18 159.99C190.38 155.28 175.19 157.68 177.4 152.51C180.94 147.21 181.5 138.54 182 135C184.91 133.2 188.69 131.86 192.5 128.5C196.53 133.33 201.58 141.69 210 143.5C210.83 143.36 217.76 139.82 219 142C216.06 143.9 216.38 148.4 210.5 151.5L210.5 151.5Z" />
		<path id="path7248" class="shp10" d="M218.38 211C206.64 208.72 183.93 195.99 187.5 182.5C189.22 169.85 198.58 159.43 209.35 167.02C209.69 167.04 211.99 165.51 212.34 165.53C218.28 171.09 230.18 165.91 226.98 173.79C226.33 175.4 236.81 180.1 239.63 177.75C240.66 176.88 239.59 180.03 240.33 181.99C241.72 185.71 244.42 190.49 243.86 193.08C243.13 196.52 237.69 199.84 235.29 202.23C232.31 205.19 229.28 213.12 218.38 211L218.38 211Z" />
		<path id="path7071" class="shp3" d="M220.75 159.37C222.89 162.32 223.34 165.93 223.5 169.63C218.52 174.65 212.4 169.79 212 166.56C212.83 162.37 216.45 160.6 220.75 159.37Z" />
		<path id="path7144" class="shp24" d="M220.19 159.75C218.22 160.54 216.99 161.88 217.84 161.87C223.43 161.76 224.06 168.87 222.26 170.15C220.88 171.13 213.4 165.77 212.06 166.44C212.82 162.2 216.07 159.94 220.19 159.75L220.19 159.75Z" />
		<path id="path7125" class="shp25" d="M212.38 166C213.65 163.48 216.74 161.32 219.77 162.64C223.12 164.09 223.07 167.84 221.92 170.12C218.81 172.04 218.88 172.62 215.88 171.12C214.17 170.27 212.73 167.29 212.38 166Z" />
		<path id="path7152" class="shp5" d="M221.56 162.62C220.99 162.37 220.31 162.45 220.03 161.69C219.77 160.98 220.47 160.99 220.56 160.69C221.13 161.12 221.39 161.23 221.56 162.62Z" />
		<path id="path7154" class="shp26" d="M212.56 165.75C213.38 165.79 214.33 165.09 215.19 165.12C217.89 165.24 217.22 168.73 221.88 170.19C219.15 173.49 210.72 171.86 212.56 165.75Z" />
		<path id="path7184" class="shp25" d="M228.42 172.6C229.57 170.14 233.52 168 236.2 170.13C238.95 172.31 239.04 176.18 237.62 177.9C232.76 179.44 229.85 176.36 228.42 172.6L228.42 172.6Z" />
		<path id="path7292" class="shp3" d="M196.82 168.06C198.17 163.34 202.27 161.13 206.27 160C205.49 162.23 205.74 164.96 205.94 167.24C205.23 171.87 198.43 172.24 196.82 168.06L196.82 168.06Z" />
		<path id="path7314" class="shp24" d="M202.39 162.96C204.35 163.27 206.49 165.62 206.61 166.67C207.33 172.68 197.91 166.36 197.23 167.16C195.97 162.26 202.29 160.76 205.6 160.37C203.72 161.47 202.69 162.21 202.39 162.96L202.39 162.96Z" />
		<path id="path7273" class="shp25" d="M200.74 163.15C202.67 163.18 205.96 164.47 206.02 167.24C206.15 172.74 198.43 172.98 196.73 167.73C196.6 164.97 197 163.09 200.74 163.15Z" />
		<path id="path7322" class="shp26" d="M201.25 164.44C202.62 164.83 202.98 168.08 205.73 168.31C204.32 171.55 200.1 171.76 197.74 168.8C197.08 167.12 198.88 163.77 201.25 164.44L201.25 164.44Z" />
		<path id="path7352" class="shp10" d="M213.18 163.05C210.66 165.89 211.24 167.85 209.03 168.93C206.57 168.18 209.07 166.23 209.64 164.25C211.3 161.41 213.59 158.37 216.37 157.86C213.73 160.23 214.55 161.58 213.18 163.05L213.18 163.05Z" />
		<path id="path7360" class="shp10" d="M224 168.75C226.1 169.16 227.89 162.64 228.75 159.62C230.86 164.07 228.53 167.49 227.88 170.5C226.08 171.31 222.36 173.09 224 168.75Z" />
		<path id="path7388" class="shp3" d="M227.6 171.95C228.72 168.46 231.91 165.31 235.51 165.01C240.7 169.66 238.51 173.72 237.41 177.74C229.99 178.16 228.74 175.67 227.6 171.95Z" />
		<path id="path7469" class="shp24" d="M235.31 165.31C232.69 166.51 232.55 167.3 232.79 168.36C238.96 168.72 238.97 176.24 237.06 177.55C235.69 178.49 228.63 173.64 227.38 173.37C226.97 168.69 232.22 165.22 235.69 165.37" />
		<path id="path7407" class="shp25" d="M235.47 169.81C237.18 171.15 239.3 174.7 236.84 177.56C234.25 179.22 231.24 178.24 228.93 177.07C226.44 175.83 227.45 174.96 227.73 172.99C228.48 168.44 233.3 168.12 235.47 169.81L235.47 169.81Z" />
		<path id="path7420" class="shp26" d="M227.88 173.19C229.9 171.78 231.74 171.95 232.94 173.12C234.6 174.76 234.55 176.57 235.94 178.25C232.38 179.49 226.91 177.24 227.88 173.19Z" />
		<path id="path7450" class="shp1" d="M212.09 156.79C210.73 158.26 206.54 159.5 203.96 160.85C204.48 160.22 207.47 149.95 213.11 148.04C214.3 147.31 207.89 157.04 209.35 156.93C210.4 156.86 211.38 156.85 212.09 156.79L212.09 156.79Z" />
		<path id="path7477" class="shp5" d="M237.14 169.61C236.65 169.68 235.83 169.45 235.5 168.47C235.24 167.69 235.43 167.69 235.56 166.69C236.73 167.85 237.35 167.51 237.14 169.61Z" />
		<path id="path7479" class="shp2" d="M194.76 173.85C200.17 184.78 209.06 182.8 216.86 186.75C224 190.37 220.24 198.73 233.48 201.78C219.66 207.16 207.89 201.11 208.38 192.76C199.88 186.51 195.09 181.01 194.76 173.85L194.76 173.85Z" />
		<path id="path7504" class="shp3" d="M243.86 174.88C246.27 178.21 249.83 183.97 246.12 187.81C243.11 187.1 238.61 186.18 239.84 181.36C240.81 179.54 241.95 177.31 243.86 174.88Z" />
		<path id="path7668" class="shp24" d="M243.22 181.48C247.52 181.07 249.25 184.72 246.31 187.5C241.45 189.2 238.5 185.83 239.56 182.12C240.2 179.31 242.84 177.17 243.59 175.09C243.81 177.23 242.29 180.12 243.22 181.48L243.22 181.48Z" />
		<path id="path7540" class="shp25" d="M246.12 182.47C248.41 184.23 246.62 185.89 246.07 187.81C241.72 188.04 239.98 187.38 239.95 183.33C241.54 182.1 244.61 181.31 246.12 182.47L246.12 182.47Z" />
		<path id="path7583" class="shp10" d="M238.06 181.44C240.03 179.06 240.88 175.15 240.88 172.12C241.63 173.85 241.38 175.65 241.38 177.31C239.89 179.16 239.9 181.54 239.69 183.87C238.46 183.49 238.35 182.38 238.06 181.44Z" />
		<path id="path7591" class="shp9" d="M237.06 182.5C237.5 182.45 237.58 181.53 237.63 180.5C239.99 177.94 240.81 174.78 240.81 171.19C241.05 172.79 241.09 174.38 240.94 176C240.43 177.67 239.58 179.64 238.94 180.75C238.29 181.45 237.79 181.91 237.31 182.56" />
		<path id="path7604" class="shp10" d="M151.75 226.5C155.17 210.17 173.12 201.39 181.5 194C182.14 188.1 186.04 184.88 189 182.25C188.31 187.56 190.14 192.47 191.5 196.75C188.32 197.98 184.73 198.79 181.75 199.5C167.31 209.07 166.18 225.37 165.5 240.25C147.15 244.47 120.53 240.91 106.75 228.75C108.98 225.5 109.05 225.15 111.13 224.12C123.75 232.71 138.75 230.21 151.75 226.5Z" />
		<path id="path7704" class="shp26" d="M242.88 183.87C243.31 185.56 244.32 186.72 246 187.69C243.11 188.4 239.04 185.61 240.38 183.37C241.57 182.73 241.96 183.21 242.88 183.87Z" />
		<path id="path7734" class="shp3" d="M110.38 226C107.38 229.4 103.76 229.55 98.63 229C95.06 224.06 95.68 213.67 100.75 208.87C106.27 212.07 111.09 218.55 110.38 226Z" />
		<path id="path7742" class="shp3" d="M115.57 206.11C122 207.39 127.17 212.2 129.36 218.66C127.56 222.66 124.67 224.93 119.72 224.41C116.15 218.91 114.3 213.44 115.57 206.11Z" />
		<path id="path7790" class="shp3" d="M87.54 210.67C91.02 214.97 89.94 222.61 89.69 228.42C85.74 231.37 81.66 231.39 78.77 226.12C78.77 219.59 80.78 213.71 87.46 211.05" />
		<path id="path7811" class="shp3" d="M127.97 198.95C133.57 199.92 139 204.48 140.23 209.64C137.59 211.62 134.01 213.12 130.95 212.56C128.35 207.5 126.41 204.41 127.97 198.95L127.97 198.95Z" />
		<path id="path8046" class="shp24" d="M122.73 220.43C124.4 220.33 126.85 219.73 128.03 217.69C131.87 223.91 123.33 225.86 118.84 224.23C114.78 219.45 115.49 212.77 116.28 206.99C116.62 211.57 119.98 218.45 122.73 220.43L122.73 220.43Z" />
		<path id="path8054" class="shp24" d="M110.44 222.9C111.92 229.11 104.49 232.89 99.04 228.65C96.31 224.33 97.74 217.11 98.95 212.12C98.09 216.85 99.99 221.61 102.84 224.14C105.49 224.62 107.9 224.53 110.44 222.9L110.44 222.9Z" />
		<path id="path8062" class="shp24" d="M135.63 209.73C137.17 209.9 138.11 208.72 139.08 208.05C139.2 213.06 135.72 213.1 131.74 212.56C128.55 209.28 128.37 202.45 127.77 199.92C129.28 204.08 133.2 208.64 135.63 209.73L135.63 209.73Z" />
		<path id="path8076" class="shp24" d="M85.61 224.32C87.21 225.96 87.7 225.63 89.49 225.47C90.1 233.38 79.33 230.03 77.3 225.29C76.85 219.26 83.02 214.67 86.67 211.77C84.96 214.68 84.41 220.74 85.61 224.32Z" />
		<path id="path8120" class="shp25" d="M84.99 213C83.08 216.54 82.25 221.44 83.57 224.76C85.19 226.92 86.92 226.59 89.23 226.17C88.56 231.45 80.09 229.74 77.83 226.62C77.37 221.43 81.73 216.26 84.99 213Z" />
		<path id="path8150" class="shp25" d="M98.51 228.21C96.54 225.25 96.39 218.64 97.89 214.95C98.31 219.55 98.32 224.36 102.75 226.88C105.68 227.01 108.99 226.92 110.88 224.23C107.61 228.21 104.78 232.64 98.51 228.21Z" />
		<path id="path8158" class="shp25" d="M115.83 209.11C116.57 214.6 118.72 219.93 121.49 221.93C124.16 222.67 126.32 221.84 128.3 221.05C126.85 224.57 123.45 224.67 119.99 224.67C116.38 221.51 116.04 213.8 115.83 209.11L115.83 209.11Z" />
		<path id="path8166" class="shp25" d="M127.5 202.22C129.11 205.67 131.56 208.46 133.95 210.71C135.93 210.95 137.67 210.27 138.9 209.56C137.99 212.14 135.37 212.71 132.63 212.83C128.94 210.11 128.44 206.16 127.5 202.22L127.5 202.22Z" />
		<path id="path8184" class="shp10" d="M108.23 203.28C109.9 209.11 111.86 211.59 114.51 213.89C114.58 215.38 115.68 219.22 115.66 221.05C113.93 220.97 112.54 221.58 111.24 222.73C107.37 217.07 105.3 207.7 106.82 200.28C107.83 202.25 107.39 201.52 108.23 203.28L108.23 203.28Z" />
		<path id="path8214" class="shp1" d="M126.97 204.56C127.91 206.04 129.14 208.8 130.15 211.15C129.65 213.26 129.87 215.23 127.77 215.57C124.57 209.75 120.71 202.6 114.33 197.54C114.66 197.52 116.15 197.29 116.89 197.54C120.08 199.13 124.7 201.31 126.97 204.56Z" />
		<path id="path8264" class="shp3" d="M76.08 247.92C72.64 249.63 68.35 251.55 64.13 248.88C62.77 243.92 64.24 237.1 68.11 232.18C73.33 233.66 77.1 242.43 76.08 247.92Z" />
		<path id="path8325" class="shp3" d="M57.37 230.13C59.4 235.92 60.87 242.88 58.09 248.16C53.33 248.26 50.56 246.24 47.59 243.47C46.73 236.35 52.24 232.69 57.37 230.13L57.37 230.13Z" />
		<path id="path8351" class="shp3" d="M45.18 228.69C45.88 233.27 45.73 238.14 43 241.43C39.73 241.25 36.77 239.28 34.98 238.24C36.04 232.98 40.42 230.27 45.18 228.69Z" />
		<path id="path8359" class="shp3" d="M91.79 243.12C89.19 244.28 86.95 246.48 83.72 245.25C81.93 241.28 80.24 236.04 82.47 231.09C87.29 233.42 90.94 236.3 91.79 243.12Z" />
		<path id="path8392" class="shp9" d="M43.8 242.97C44.25 242.27 44.64 241.13 45.03 239.43C45.24 239.02 46.75 233.72 48.84 231.21C48.75 232.19 46.85 240.23 47.51 242.44C47.43 242.96 47.75 243.84 47.16 244.73C46.45 244.15 45.79 243.68 45.83 242.53C45.06 242.53 43.5 242.97 42.74 242.97" />
		<path id="path8394" class="shp9" d="M58.91 244.47C59.09 244.29 60.24 244.44 60.77 244.03C61.2 242.2 60.01 236.19 62.89 231.74C62.01 235.45 62.62 240.67 62.62 243.14C63.68 244.01 64.02 244.18 64.75 244.56C64.76 244.68 64.2 247.39 64.3 248.09C63.68 247.72 62.26 248.6 61.74 247.12C60.88 247.35 59.82 248.24 58.82 248.09" />
		<path id="path8454" class="shp24" d="M55.11 231.56C51.95 234.5 52.68 240.77 54.36 242.13C56.13 243.56 57.69 244.17 59.31 243.36C59.55 245.26 58.57 247.4 58.12 248.71C53.88 249.35 49.87 248.49 47.33 245.62C45.29 240.62 51.35 232.93 55.11 231.56L55.11 231.56Z" />
		<path id="path8490" class="shp25" d="M51.58 233.69C50.78 236.91 50.82 239.5 51.88 242.88C53.76 245.28 58.36 245.42 59.53 243.72C58.4 250.31 48.15 247.83 47.51 245.53C46.34 241.3 48.97 236.85 51.58 233.69Z" />
		<path id="path8498" class="shp5" d="M56.46 233.41C57.25 233.21 57.73 234.67 57.68 235.9C57.63 237.02 57.47 237.81 56.32 237.21C55.39 236.72 55.76 233.6 56.46 233.41L56.46 233.41Z" />
		<path id="path8519" class="shp24" d="M76.68 247.83C73.14 249.6 68.14 250.09 66.02 248.48C62.54 245.84 63.94 238.68 67.4 233.6C66.73 236.49 66.96 241.46 69.08 243.81C70.88 244.46 74.88 246.51 76.51 245.2C76.89 246.61 76.86 246.17 76.68 247.83Z" />
		<path id="path8500" class="shp25" d="M68.24 245.09C70.54 247.34 74.24 248.62 76.49 246.88C76.89 248.83 76.96 248.42 77.12 250.21C72.45 251.81 68.73 252.81 65.36 250.57C64.19 245.78 64.52 239.44 66.16 236.69C65.7 239.9 66.84 243.15 68.24 245.09L68.24 245.09Z" />
		<path id="path8527" class="shp5" d="M71.64 237.13C72.09 237.89 72.4 239.8 71.2 239.25C70.59 238.98 69.36 237.09 69.87 236.16C70.05 235.83 70.96 236 71.64 237.13Z" />
		<path id="path8560" class="shp24" d="M45.17 237.75C44.46 243.15 37.95 243.05 35.67 237.4C36.34 234.58 41.22 230.14 43.97 229.09C42.56 230.48 41.7 234.1 42.56 235.45C43.4 236.78 43.39 237.47 45.17 237.75Z" />
		<path id="path8535" class="shp25" d="M39.38 235.98C40.9 237.49 42.62 238.14 44.95 238.46C41.27 244.65 37.23 240.57 34.78 236.34C36.55 233.82 38.79 230.53 42.91 228.96C41.56 231.18 39.26 233.31 39.38 235.98L39.38 235.98Z" />
		<path id="path8657" class="shp24" d="M84.63 240.5C85.86 242.34 88.49 243.5 90.75 243.5C92.67 250.22 87.36 248.39 83.38 247.44C81.34 242.57 80.48 236.34 82.38 232.12C82.1 234.54 83.07 238.19 84.63 240.5Z" />
		<path id="path8603" class="shp25" d="M81.88 234.12C81.85 238.33 82.08 241.08 84.13 242.87C85.33 243.93 88.38 245.04 90.38 244.37C87.72 248.78 87.28 247.21 82.31 247C81.42 243.09 81.34 238.04 81.88 234.12Z" />
		<path id="path8767" class="shp3" d="M165.99 239.7C172.43 237.11 178.18 235.49 182.83 237.31C180.78 242.09 173.84 250.01 166.92 249.33C165.01 246.73 164.25 242.75 165.99 239.7Z" />
		<path id="path8779" class="shp3" d="M165.82 222.42C170.19 221.17 175.45 222.87 178.5 226.35C174.96 229.69 169.04 232.66 163.65 230.06C163.65 227.3 163.59 224.63 165.82 222.42Z" />
		<path id="path8787" class="shp3" d="M172.67 252.51C177.99 248.96 182.95 249.72 187.22 247.03C187.74 252.97 181 258.47 177.53 261.53C173.64 261.95 173.38 254.99 172.67 252.51Z" />
		<path id="path8837" class="shp24" d="M179 226.37C175.93 228.76 170.9 231.7 166.25 230.75C164.12 228.16 162.9 223.83 167.3 222.1C167.19 224.15 167.83 225.74 169.31 226.83C171.01 226.99 175.89 227.63 178.38 226.25" />
		<path id="path8810" class="shp25" d="M166.63 222.5C165.39 224.83 166.25 228.03 167.72 229.1C170.38 230 173.21 228.63 175.88 228C172.57 230.95 169.07 232.49 165.75 231.7C160.9 229.13 163.54 224.35 166.63 222.5L166.63 222.5Z" />
		<path id="path8845" class="shp24" d="M167.96 239.03C167.9 240.31 169.23 243.72 171.08 244.16C175.5 244.04 179.01 241.97 181.74 239.4C178.26 244.03 173.36 247.84 168.46 248.91C163.94 247.02 164.89 240.85 167.96 239.03Z" />
		<path id="path8818" class="shp25" d="M167.21 239.53C166.72 242.86 168.12 244.59 170.08 246.03C174.25 246.38 176.69 245.06 179.46 242.78C177 247.01 172.24 248.01 168.21 249.41C164.16 247.47 165.18 242.65 167.21 239.53Z" />
		<path id="path8948" class="shp24" d="M173.38 252.75C174.88 253.5 177.46 254.49 179 255C181.64 254.71 183.53 253.86 185.75 252.75C183.7 257.25 180.79 259.31 177.5 261.5C172.23 260.95 171.27 255.91 173.38 252.75Z" />
		<path id="path8859" class="shp25" d="M172.73 253.6C173.4 256.83 175.75 256.92 177.35 257.64C180.6 257.69 182.01 255.89 184.42 254.37C182.91 258.42 181.09 261.11 177.35 262.41C174.3 260.35 171.33 257.04 172.73 253.6Z" />
		<path id="path8956" class="shp24" d="M189.25 254.94C188.66 259.11 182.52 267.27 179.88 260.25C181.29 258.64 182.94 256.99 184.63 255.12C185.95 255.63 188.72 255.84 189.25 254.94Z" />
		<path id="path8929" class="shp25" d="M182.48 258.26C184.98 258.58 187.03 257.7 188.67 256.76C187.74 260.32 185.38 261.67 182.48 262.85C181.15 262.38 180.65 261.42 180 260.73C180.96 259.95 181.64 259.15 182.48 258.26L182.48 258.26Z" />
		<path id="path9127" class="shp2" d="M181.63 229.62C178.26 231.85 177.1 233.35 174 234.51C172.34 235.7 169.37 237.85 167.63 238.25C167.63 236.5 167.63 233.87 167.63 232.12C169.44 232.27 177.64 226.92 179.75 226.49C181.08 226.22 178.99 228.73 177.18 230.39C178.75 230.06 180.47 229.52 181.63 229.62L181.63 229.62Z" />
		<path id="path6997" class="shp10" d="M200.5 162.5C198.23 159.38 193.6 158.5 192.5 151.5C189.44 151.06 184.85 152.83 182 150C182.29 149.73 185.23 144.3 188.5 144C188.63 141.24 189.04 135.49 189 131C192.93 135.78 198.4 142.11 205 146C205.93 145.87 212.38 143.41 216 144.5C213.39 147.76 211.7 148.29 212 149.5C207.01 154.49 203.84 157.78 200.5 162.5Z" />
	</g>
	<g id="layer1">
		<path id="path4437" class="shp9" d="M122.71 87.97C121.86 86.83 123.84 87.46 124.58 88.03C133.89 95.34 136.89 93.86 142.71 97.91C154.32 105.99 162.61 105.52 170.35 105.54C179.7 105.55 188.87 104.93 191.44 98C194.62 89.42 206 90.47 206.1 82.57C209.55 88.9 199 91.97 196.31 94.49C192.63 95.82 192.77 101.05 190.14 103.58C184.34 109.17 174 107.55 170.67 107.64C157.44 107.97 148.3 107.22 140.49 100.33C131.07 100.62 122.71 94.26 122.71 87.97L122.71 87.97Z" />
		<path id="path4441" class="shp9" d="M126.25 4.47C132.12 6.73 133.43 13.95 138.69 26.78C142.58 36.05 146.56 41.35 144.98 39.84C140.87 34.71 138.76 32.45 136.47 27.22C130.43 13.44 130.57 11.1 127.28 7.5C125.55 5.61 116.59 8.4 116.13 9.85C114.77 14.06 115.48 13.71 114.16 16.31C113.45 16.77 111.01 15.12 110.47 14.75C110.93 13.78 110.98 10.49 113.41 7.96C116.62 4.61 123.41 4.32 125.75 4.35C126.53 4.35 126.82 4.42 126.25 4.47Z" />
		<path id="path4443" class="shp9" d="M183.75 11.56C185.7 25.31 191.04 29.34 191.17 42.07C188.76 29.27 184.08 22.38 181.16 11.03C180.78 9.58 182.8 4.85 183.75 11.56Z" />
		<path id="path4447" fill-rule="evenodd" class="shp9" d="M223.54 73.18C225.07 74.15 226.88 74.44 228.98 74.01C230.94 73.61 231.71 76.01 231.02 77.06C224.12 87.43 217.62 88.73 210.47 87.57C211.43 85.8 212.46 83.4 213.12 80.72C213 82.19 212.84 83.86 212.62 85.72C220.55 86.05 225.88 81.15 228.41 76.83C228.76 76.24 228.19 76.29 227.53 76.46C226.64 76.7 224.05 76.13 223.04 75.53C216.01 71.32 214.36 70.31 213.74 73.6C213.59 72.08 213.24 70.57 212.62 69.13C215.1 67.92 220.19 71.06 223.54 73.18ZM213.12 80.72C213.67 78.47 213.97 76.02 213.74 73.6C213.46 75.08 213.38 77.42 213.12 80.72Z" />
		<path id="path4449" fill-rule="evenodd" class="shp9" d="M108.12 74.27C110.18 75.57 115.17 82.73 112.05 89.51C106.29 92.6 95.84 92.88 88.09 85.42C85.56 82.98 86.75 79.92 89.95 79.49C95.8 78.7 103.24 71.17 108.12 74.27ZM90.22 81.64C88.45 81.74 89.18 82.97 89.62 83.3C93.42 86.12 101.56 91.51 109.57 87.7C110.65 87.09 110.73 83.68 110.31 81.84C109.38 77.83 107.56 75.86 105.68 76.12C99.96 76.89 95.99 81.28 90.22 81.64Z" />
		<path id="path4469" class="shp9" d="M213.75 145.75C214.86 145.74 215.05 146.85 212.06 149.69C208.04 153.51 206.67 155.45 205.34 159.81C204.97 161.04 198.98 161.82 197.26 165.35C194.35 167.61 193.8 169.36 192.97 170.72C190.92 174.06 192.37 179.22 190.22 183.91C187.31 190.23 195.79 200.65 204.56 205.03C214.28 209.89 224.17 208.98 230.19 207.35C231.79 206.91 234.11 204.19 238.34 201.22C244.4 196.98 247.64 193.49 245.13 188.81C246.35 187.84 246.87 189.27 247.44 189.41C248 192.99 249.61 196.03 247.31 197.94C242.9 201.61 237.07 206.8 232.16 209.72C223.81 214.68 212.45 212.26 202.41 207.06C189.59 200.44 184.36 193.1 186.56 184.35C188.49 176.67 187.85 168.11 195.76 163.1C197.04 159.75 199.74 159.9 202.06 158.85C204.53 153.22 203.98 152.85 211.28 146.85C212.11 146.16 213.09 145.76 213.75 145.75L213.75 145.75Z" />
		<path id="path4487" class="shp9" d="M164.79 242.87C149.69 246.99 118.18 244.94 103.66 229.79C104.49 229.44 107.52 228.73 107.79 228.27C124.91 240.3 151.86 245.05 165.69 238.83C165.75 239.59 164.73 242.07 164.79 242.87Z" />
		<path id="path4489" class="shp9" d="M161.38 81.51C162 80.5 161.22 79.07 159.3 78.43C158.01 79.62 157.83 78.81 156.45 76.88C157.03 72.33 160.22 73 161.6 73.92C163.66 75.32 163.87 81.82 161.38 81.51L161.38 81.51Z" />
		<path id="path4505" fill-rule="evenodd" class="shp9" d="M113.63 16.46C112.04 15.9 109.65 17.11 107.72 18.18C111.28 18.86 112.01 22.12 112.12 23.1C112.55 26.91 108.81 33.95 105.94 35.05C104.31 35.67 101.22 34.43 100.42 34.09C99.76 37.07 102.81 39.95 105.12 40.62C106.23 41 104.95 41.53 104.47 41.74C103.97 41.96 103.22 42.19 102.35 41.92C102.01 44.67 100.65 50.01 98.07 54.51C95.7 58.65 95.3 65.96 98.59 70.62C99.26 67.12 103.05 65.98 105.37 66.53C109.88 67.61 112.05 71.17 111.36 72.18C109.5 70.88 105.32 69.48 103.24 70.22C101.71 70.76 99.95 73.21 101.15 75.14C100.98 77.03 97.69 78.61 97 79.36C94.23 74.81 90.63 62.49 95.19 52.88C97.96 47.03 98.72 41.81 99.25 39.94C97.96 38.19 96.56 35.27 98.02 32.66C92.54 30.61 92.22 30.79 87.89 30.19C86.34 29.97 85.01 28.53 86.79 25.66C89.33 21.57 93 17.91 98.13 16.85C101.66 16.12 102.17 16.24 104.25 16.48C106.39 13.24 111.2 12.99 112.92 13.31C116.23 13.92 118.55 17.49 118.65 20.56C117.99 20.44 116.33 17.4 113.63 16.46ZM98.47 19.67C94.22 20.89 91.42 22.86 89.24 25.96C88.8 26.57 88.47 28.5 89.82 28.12C93.59 27.04 99.57 28.59 103.71 32.37C106.84 33.23 110.63 24.9 108.43 21.99C106.1 18.9 102.05 18.65 98.47 19.67Z" />
		<path id="path4507" class="shp9" d="M203.29 18.8C208.91 16.99 216.51 18.19 222.4 25.28C223.33 26.41 220.54 27.63 219.97 27.74C216.26 28.44 214.05 30.34 209.01 35.03C208.63 34.11 209.45 31.88 209.28 31.15C210.69 30.93 212.05 29.43 214.15 27.65C216.2 25.93 219.79 26.36 219.13 25.46C215.99 21.16 208.54 20.1 205.43 21.1C204.07 22.44 203.71 18.95 203.29 18.8L203.29 18.8Z" />
		<path id="path4511" class="shp9" d="M162.79 14.82C163.28 15.68 163.68 18.48 162 15.82C159.74 14.14 159.87 11.02 156.42 9.43C154.3 8.45 151.36 8.27 147.32 8.72C142.35 9.27 137.09 9.19 132.04 13.71C131.59 12.93 132 12.37 131.38 11.68C133.59 8.21 138.1 6.97 145.11 6.17C147.83 5.85 155.74 6.03 159 8.31C161.29 9.92 161.23 12.1 162.79 14.82L162.79 14.82Z" />
		<path id="path4513" class="shp9" d="M158.78 9.72C160.52 7.9 164.42 6.07 169.67 6.38C173.92 6.64 180.65 7.84 182.36 10.03C182.7 10.47 182.87 12.78 182.33 12.95C180.13 10.81 177.45 9.59 169.37 9.04C162.86 8.59 162.6 9.55 159.42 10.96C158.62 10.74 159.34 9.56 158.78 9.72L158.78 9.72Z" />
		<path id="path4525" class="shp9" d="M238.4 122.97C244.95 137.19 245.74 131.4 247.74 138.44C251.32 151.08 246.97 157.61 247.11 163.78C250.34 171.81 249.63 177.8 249.42 188.69C248.68 191.56 248.75 193.9 248.15 194.98L245.87 189.32C246.36 188.17 248.93 185.68 247.16 181.32C246.27 173.94 245.53 167.59 243.53 161.51C242.7 153.47 247.22 151.89 244.26 139.52C243.13 134.78 240.14 132.62 235.39 124.74C228.34 113.05 226.72 112.36 214.59 107.27C211.21 105.84 203.57 101.83 199.56 100.54C199.48 99.57 201.16 98.25 202.73 96.76C208.47 100.86 211.94 101.94 216.29 103.87C224.08 107.33 232.32 109.76 238.4 122.97Z" />
		<path id="path4535" fill-rule="evenodd" class="shp9" d="M100.77 93.86C103.89 94.36 106.87 95.61 108.4 97.68C110.86 101.02 110.9 105.08 108.9 108.38C106.05 113.09 100.91 119.75 95.16 118.07C92.51 117.29 91.51 115.86 89.5 114.31C85.84 111.48 81.24 108.4 72.73 109.02C69.53 109.26 66.66 106.16 70.89 102.48C81.44 93.28 91.41 92.38 100.77 93.86ZM106.17 99.62C102.38 96.74 89.03 92.52 74.89 101.87C72.55 103.42 71.45 106.44 74.09 106.37C78.55 106.26 82.82 107.37 87.03 108.97C90.54 110.31 92.63 114.04 95.43 115.37C99.65 117.39 113.16 104.92 106.17 99.62Z" />
		<path id="path4539" fill-rule="evenodd" class="shp9" d="M54.26 136.2C61.6 134.53 68.1 134.56 70.19 142.04C67.26 147.29 65.27 160.28 60.64 160.39C53.75 160.55 49.31 157.33 36.88 162.27C32.88 163.86 31.23 161.95 31.24 160.24C31.26 149.87 41.78 139.03 54.26 136.2ZM54.18 139.57C44.57 142.14 36.76 148.77 33.84 155.47C31.33 161.24 36.08 160.03 38.66 158.82C48.51 154.18 56.36 157.76 60.25 157.3C63.44 156.91 64.28 154.37 65.28 153C71.18 145 67.13 136.09 54.18 139.57Z" />
		<path id="path4541" class="shp9" d="M44.49 190.5C40.77 189.56 37.9 191.22 32.61 192.52C27.88 193.68 25.19 191.63 26.44 187.78C29.49 178.32 37.58 167.71 55.44 165.52C58.7 165.14 56.78 168.37 54.12 169.53C40.85 170.94 33.04 178.39 29.54 186.86C28.91 188.38 29.24 190.07 30.14 189.83C36.41 188.14 40.01 185.1 46.95 186.89C47.32 188.17 45.1 189.81 44.49 190.5L44.49 190.5Z" />
		<path id="path4545" fill-rule="evenodd" class="shp9" d="M22.88 93.53C26.58 94.51 25.77 101.59 25.66 104.97C25.36 113.58 22.22 119.17 17.61 117.65C6.55 113.99 0.96 103.76 2.07 97.32C2.96 92.2 17.51 92.11 22.88 93.53ZM3.96 99.36C4.03 104.59 14.34 113.77 21.54 113.29C23.5 109.68 24.6 100.05 22.53 96.44C16.27 94.11 3.9 95.04 3.96 99.36Z" />
		<path id="path6788" class="shp11" d="M207.25 60.25C207.63 62.13 207.25 63.79 207.25 64.87C207.79 65.6 207.5 65.95 207.63 66.5C205.14 66.32 203.63 64.23 202.13 62.62C205.44 63.27 206.05 62.05 207.25 60.25L207.25 60.25Z" />
		<path id="path4553" class="shp9" d="M198.88 34.38C199.55 33.92 198.24 32.46 199.1 32.48C209.13 37.99 211.23 56.97 205.87 64.37C205.38 64.2 205.2 63.67 204.07 63.75C208.86 55.62 206.69 38.6 198.88 34.38L198.88 34.38Z" />
		<path id="path4581" class="shp9" d="M189.21 79.78C188.33 77.44 187.97 77.86 189.48 75.1C190.53 73.17 192.76 74.03 193.18 74.91C193.63 75.83 193.78 76.66 194.03 78.76C194.19 80.08 194.29 80.35 193.1 80.03C191.88 79.7 191.65 79.4 191.07 78.4C190.63 79.07 190.05 80 189.21 79.78Z" />
		<path id="path4341" class="shp12" d="M188.4 120.8C189.71 120.44 190.39 121.15 189.4 122.16C185.03 126.66 182 127.33 177.07 128.5C180.67 127.67 185.02 124.15 186.71 123C185.59 118.48 187.49 114.19 187.06 113.36C186.09 116.41 187.09 119.62 188.4 120.8L188.4 120.8Z" />
		<path id="path5072" class="shp9" d="M132.87 98.87C141.65 104.18 147.14 113.66 148.58 121.81C150.46 123.53 153.35 124.93 156.72 125.9C161.22 128.43 166.41 129.04 171.59 127.22C177.29 126.66 182.52 124.78 185.44 121.23C183.82 112.38 186.08 112.57 188.36 104.07C188.13 102.69 191.66 100.28 192.25 99.52C190.46 106.66 185.15 113.39 187.6 120.92C187.78 121.47 189.25 121.02 188.2 122.2C173.62 134.54 151.37 130.2 143.81 122.78C142.47 121.9 143.96 121.13 144.71 121.1C142.61 111.28 135.86 103.18 130.92 98.55L132.87 98.87Z" />
		<path id="path5074" class="shp9" d="M205.09 96.52C198.88 103.79 195.26 114.72 196.36 124.8C193.73 132.61 185.81 137.06 169.71 137.02C155.72 136.99 140.68 134.86 135.66 128.16C133.73 118.88 126.86 112.68 118.2 108.22C111.24 104.63 108.32 101.29 105.07 95.14C106.02 95.14 105.89 94.21 106.21 93.84C119.79 105.33 131.39 107.35 138.55 126.13C146.15 131.8 158.16 133.32 169.86 133.41C180.8 133.49 187.65 131.31 192.25 123.97C192.71 112 194.53 103.91 202.08 95.14C203.65 93.31 204.77 91.78 205.95 88.89C206.64 88.64 208.74 88.75 208.99 88.73C207.38 92.65 206.92 94.37 205.09 96.52L205.09 96.52Z" />
		<path id="path5078" class="shp9" d="M207.34 47.75C207.37 47.75 207.39 47.73 207.44 47.75C210.31 52.34 211.83 53.28 212.94 57.38C213.89 60.88 213.9 63.73 212.87 66.23C217.66 70.42 215.28 82.7 212.16 86.94C210.27 89.5 207.79 90.27 204.44 88.69C204.88 88.22 203.61 85.67 206.22 86.85C208.17 87.72 211.1 86.3 212.06 80.16C212.6 76.73 212.83 71.76 211.38 68.56C210.4 66.42 208.14 67.91 208.44 66.89C210.97 64.31 211.01 61.98 210.28 58.25C209.83 55.96 208.9 54.06 208.13 52.6C207.83 50.54 206.89 47.83 207.34 47.75L207.34 47.75Z" />
		<path id="path5146" class="shp9" d="M199.29 48.02C199.42 54.45 201.29 58.69 205.33 63.67C205.8 64.25 206.64 64.82 205.93 65.16C202.24 63.47 196.89 58.79 197.61 48.71" />
		<path id="path5169" class="shp9" d="M88.16 121.47C78.39 128.3 69.95 137.57 68.16 149.03C66.83 157.48 69.46 168.1 76.16 174.88C76.92 175.42 74.71 180.42 74.66 181.75C74.41 187.64 73.47 193.38 75.13 198.94C78.76 211.18 75.29 213.7 80.13 219.41C81.08 220.54 78.28 223.44 78.28 223.44C69.58 217.77 73.38 214.09 70.88 203.16C69.42 196.83 68.8 184.94 72.19 178.06C67.06 173.72 66.36 164.86 63.78 159.13C62.82 140.43 72.04 129.24 84.28 123.41C85.52 122.13 86.44 122.33 88.16 121.47L88.16 121.47ZM112.63 146.28C119.23 148.97 122.3 156.57 121.64 161.38C121.45 162.72 121.63 169.94 121.87 170.82C122.55 172.93 125.03 173.48 128.19 177.31C131.75 181.64 134.57 187.54 136.94 192.13C139.74 197.56 137.67 200.44 136.53 203.44L133.09 201.44C133.12 197.74 133.96 196.98 133.13 194.44C130.94 187.77 128.07 181.65 121.06 175.85C119.44 174.5 115.51 171.05 113.53 170.1C114.5 168.71 116.41 169.32 117.25 169.06C117.66 159.07 118.94 153.52 112.63 146.28L112.63 146.28Z" />
		<path id="path5180" fill-rule="evenodd" class="shp9" d="M88.78 115.87C91.81 119.75 89.17 120.99 85.17 123.51C81.02 126.12 76.05 130.99 72.91 135.34C64.16 127.64 58.9 130.01 53.25 131.32C49.66 132.15 45.11 130.22 46.13 128.05C51.04 117.63 61.79 112.33 69.7 110.76C76.41 109.43 84.51 110.42 88.78 115.87ZM71.52 113.11C63.36 114.28 57.03 117.74 52.17 124.23C49.5 127.8 50.31 128.93 53.31 128.72C61.04 128.19 67.75 126.29 72.82 131.33C77.13 123.25 89.59 121.55 87.05 116.76C85.16 113.19 77.17 112.31 71.52 113.11Z" />
		<path id="path5182" class="shp9" d="M195.9 16.45C203.42 14.15 209.15 21.56 209.7 33.49C209.87 37.16 208.35 39.03 205.87 39.23C203.56 39.41 203.24 37.48 202.77 37.12C203.84 35.92 204.23 37.41 204.39 37.44C208.53 35.46 206.73 31.02 205.62 27.08C204.25 22.24 200.87 17.41 196.82 19.82C195.91 19.64 196.07 18.36 195.9 16.45Z" />
		<path id="path3308" class="shp9" d="M135.3 98.97C143.3 104.87 152.02 113.3 153.67 118.67C157.78 132.11 173.52 127.66 176.01 122.93C178.13 118.91 177.17 113.45 182.3 106.34C182.88 105.65 187.41 104.94 187.55 104.88C183.35 110.15 180.48 118.24 178.14 123.7C175.5 129.84 160.96 130.75 154.48 126.29C151.28 124.09 150.63 118.01 148.77 115.1C144.65 108.65 137.66 104.22 134 99.52" />
		<path id="path3310" class="shp9" d="M17.02 93.85C21.02 83.22 27.24 77.18 30.26 77.8C33.26 78.4 34.83 79.74 33.18 84.3C29.44 94.67 33.08 107.52 36.94 113C40.37 117.87 46.54 119.78 50.85 122.77C50.58 124.15 49.15 126.3 47.85 126.73C44.92 123.44 38.27 120.21 34.62 116.11C27.36 107.95 27.33 91.08 31.29 82.04C32.1 80.2 30.69 79.42 28.99 80.55C24.43 83.57 22.09 89.56 21.02 93.75C20.36 92.82 17.84 94.1 17.02 93.85L17.02 93.85Z" />
		<path id="path3312" class="shp9" d="M30.49 95.46C30.49 94.11 31.07 93.78 30.61 92.59C34.64 92.72 45.18 95.04 47.47 102.81C48.75 107.12 43.29 113.25 37.38 115.54C35.97 115.5 35.36 111.25 34.05 111.07C37.27 111.44 46.47 109.51 44.95 102.81C43.66 97.12 35.26 95.58 30.49 95.46L30.49 95.46Z" />
		<path id="path3314" class="shp9" d="M13.45 112.34C14.5 113.12 16.13 111.83 16.05 114.29C12.23 131.08 20.14 166.72 30.98 181.46C30.4 181.79 29.33 184.71 28 184.52C15.08 172.41 10.41 132.07 13.45 112.34L13.45 112.34Z" />
		<path id="path4276" fill-rule="evenodd" class="shp9" d="M235.93 164.18C239.35 166.87 241.34 174.08 237.76 178.66C236.27 180.57 232.41 179.8 230.06 178.75C226.76 177.29 225.85 174.39 226.75 171.82C228.66 166.31 232.92 164.29 235.93 164.18ZM235.4 165.26C230.75 166.51 228.48 169.83 228.23 172.25C227.83 173.51 228.57 175.64 230.54 176.79C232.13 177.73 235.99 178.3 236.98 177.23C238.3 175.66 238.57 174.69 238.56 172.94C238.54 169.44 236.69 166.39 235.4 165.26Z" />
		<path id="path4289" fill-rule="evenodd" class="shp9" d="M224.38 170.49C222.38 173.22 218.55 173.51 215.64 172.57C213.47 171.86 210.26 168.99 210.68 166.34C211.98 163.39 215.98 158.63 221.1 158.67C224.11 161.31 224.78 165.74 224.38 170.49ZM212.92 165.46C212.54 166.86 214.09 169.4 216.51 170.21C218.42 170.85 221.58 170.9 222.66 169.12C223.81 165.79 222.93 162.4 220.36 160.03C216.44 160.87 214.58 162.42 212.92 165.46Z" />
		<path id="path4292" fill-rule="evenodd" class="shp9" d="M243.5 173.89C247.59 176.65 249.23 184.89 246.78 188.36C241.48 190.67 237.82 185.85 239.48 181.48C240.78 176.29 242.66 176.11 243.5 173.89ZM240.58 181.61C238.67 185.93 243.19 187.45 245.94 187.33C249.53 183.41 245.69 177.81 243.88 175.33C242.8 177.43 241.08 178.6 240.58 181.61Z" />
		<path id="path4297" fill-rule="evenodd" class="shp9" d="M207.27 159.32C207.56 159.32 208.29 159.14 208.13 159.38C205.83 162.75 208.35 169.34 205.26 171.53C203.27 172.95 199.42 172.08 197.78 170.88C195.41 169.16 195.35 166.06 195.73 165.03C195.97 164.38 197.4 162.7 198.65 162.37C200.85 160.53 204.18 159.29 207.27 159.32L207.27 159.32ZM206.15 160.54C203.74 161.05 200.53 161.75 198.42 163.36C197.35 164.17 196.97 165.87 197.78 168.01C198.45 169.82 201.57 171.25 204.4 169.44C206.32 168.21 205.33 162.91 206.15 160.54Z" />
		<path id="path4302" class="shp9" d="M129.09 37.03C129.12 37.12 130.22 38.46 129.44 38.35C127.4 37.07 124.65 36.03 122.03 35.56C117.47 37.95 115.38 39.17 112.38 44.69C111.9 50.48 112.15 57.46 114.84 63.47C119.3 68.68 126.61 72.13 132.59 73.22C137.99 72.64 142.65 66.61 142.5 58.75C143.15 59.54 143.49 61.31 144.06 62.35C144.37 68.41 139.51 73.31 132.59 75.85C125.26 74.71 118.7 71.24 114.66 65.63C110.04 60.93 108.31 55.06 109.63 44.85C111.32 41.08 117.3 35.83 120.97 34.31C123.66 34.66 126.9 35.01 129.09 37.03Z" />
		<path id="path4304" class="shp9" d="M115.49 14.76C120.68 11.34 129.51 35.44 134.07 39.72C139.12 44.46 145.55 58.03 153.35 57.73C157.44 57.57 150.79 60.73 147.64 58.84C139.66 54.06 130.81 40.43 125.62 34.5C124.36 33.07 122.04 26.79 120.08 23.4C117.02 18.12 114.49 15.42 115.49 14.76L115.49 14.76Z" />
		<path id="path4361" class="shp9" d="M66.38 159.81C66.38 160.73 66.33 161.65 66.38 162.56C61.63 165.65 57.52 170.61 54.41 174.38C50.39 179.24 47.68 185.98 48.75 192.41C47.76 194.38 48.25 195.88 45.56 196.47C45.56 189.06 44.61 183.39 48.29 175.92C51.98 168.45 56.69 163.24 66.38 159.81L66.38 159.81Z" />
		<path id="path4363" class="shp9" d="M34.31 237.22C33.63 235.39 31.31 230.1 31.69 225.53C32.14 220.1 37.7 215.61 43.81 211.31C45.85 209.88 40.54 192.48 48.78 192.75L48.78 192.75C49.05 192.76 49.33 192.8 49.62 192.85C45.77 197.84 47.19 211.53 46.22 213.19C43.02 218.64 35.53 220.1 36.09 226.94C36.38 230.35 35.74 230.66 36.73 232.23M90.63 245.63C92.21 242.07 91.96 241.99 90.69 239.65C94.96 234.45 89.18 232.23 90.28 225.12C88.38 222.07 94.19 222.86 94.66 222.47C93.39 229.78 96.81 234.29 96.17 238.1C95.71 240.83 93.74 243.68 90.63 245.63L90.63 245.63Z" />
		<path id="path4383" fill-rule="evenodd" class="shp9" d="M101.34 208.09C107.2 212.65 111.39 216.34 112.53 226.41C112.76 229.06 110.17 232.01 107.15 232.71C102.83 233.7 97.47 231.46 96.72 228.86C94.34 222.33 95.4 212.93 101.34 208.09ZM101.25 209.78C97.34 213.79 97.09 220.41 99.22 227.07C104.09 231.13 110.59 226.23 110.09 224.23C109.47 220.43 106.18 214.05 101.25 209.78Z" />
		<path id="path4385" fill-rule="evenodd" class="shp9" d="M131.28 219.55C131.5 223.93 124.1 228.19 118.99 226.62C111.86 221.11 113.71 211.63 115.2 204.62C122.57 207.56 128.11 212.07 131.28 219.55ZM119.72 223.58C123.24 225.14 128.42 221.77 127.67 218.34C125.75 211.06 121.39 209.63 116.52 206.56C115.27 214.41 116.92 219.78 119.72 223.58Z" />
		<path id="path4697" class="shp9" d="M164.05 222.87C164.84 219.45 166.75 215.8 170.4 212.3C173.03 209.78 173.7 199.31 181.61 197.66C186.66 196.61 188.35 196.09 194.04 197.52C195.66 198.73 197.55 200.97 199.54 201.95C191.91 202.43 190.15 199.86 183.08 200.93C177.38 201.79 175.92 213.31 173.16 215.43C171.03 217.07 169.64 219.4 168.86 221.87M188.99 259.71C188.92 258.2 189.12 255.81 190.01 254.35C193.15 252.19 192.98 249.92 197.01 248.81C201.37 247.6 204.11 244.76 207.32 242.61C218.46 244.29 230.55 239.55 236.52 231.59C241.99 224.29 241.55 213.41 239.84 203.19C240.79 202.96 242.26 201.48 243.2 201.25C246.44 222.11 245.7 227.08 238.97 235.41C232.57 243.36 219.29 247.93 207.85 247.03C205.47 247.58 200.23 251.36 198.26 251.72C194.86 252.33 190.98 259.14 188.99 259.71L188.99 259.71Z" />
		<path id="path4707" class="shp27" d="M53.17 120.64C53.37 119.27 56.28 117.52 56.35 117.46" />
		<path id="path4713" class="shp9" d="M45.74 213.98C45.74 213.97 44.51 211.57 45.74 209.73C47.32 211.65 48.85 213.45 50.16 215.39C48.18 215.03 45.75 215.52 45.39 213.09" />
		<path id="path4721" class="shp9" d="M117.87 153.3C118.94 151.99 120.65 150.97 120.52 148.52C122.34 150.93 119.94 154.99 119.64 156.28C118.85 154.69 118.74 153.7 117.87 153.3L117.87 153.3Z" />
		<path id="path4723" class="shp9" d="M38.38 189.01C40.97 191.74 42.42 193.7 45.92 194.53C45.86 195.3 45.31 199.3 45.19 200.07C41.52 198.66 36.08 194.36 33.9 191.52C34.83 191.37 37.4 189.36 38.38 189.01L38.38 189.01Z" />
		<path id="path6096" class="shp5" d="M101.68 78.99C103.06 77.93 105.7 77.18 106.1 77.48C107.24 78.33 106.47 79.32 104.78 79.87C103.7 80.22 100.53 79.87 101.68 78.99Z" />
		<path id="path4982" class="shp9" d="M109.62 93.95C116.4 94.83 116.97 87.6 118.44 88.01C119.84 93.71 115.78 97.5 110.82 97.06C106.59 96.69 102.77 93.81 102.34 90.93C102.9 91.4 104.85 89.37 105.45 90.87C106.66 92.47 108 93.74 109.62 93.95Z" />
		<path id="path5070" class="shp9" d="M193.37 47.97C193.37 47.97 195.32 47.53 196.12 47.99C198.63 49.44 200.13 47.79 199.9 44.64C198.81 29.65 192.97 22.56 194.49 6.43C192.48 4.33 186.61 3.18 183.59 4.94C181.88 6.89 181.94 6.66 180.4 9.54C180.19 9.36 179.18 9.03 178.71 8.36C180.35 4.24 182.56 2.5 184.36 2.03C187.33 1.24 194.46 3.14 196.1 5.06C197.41 9.87 196.96 12.84 197.39 18.26C198.36 30.5 202.44 34.32 201.85 45.21C201.53 51.23 196.9 50.13 193.37 47.97L193.37 47.97Z" />
		<path id="path6893" class="shp9" d="M63.25 136.5C65.01 133.54 65.29 132.35 67.49 129.86C68.08 130.84 69.21 131.46 69.63 131.87C67.27 133.58 66.46 136.88 66 137.37" />
		<path id="path6897" class="shp9" d="M60.08 158.8C60.52 159.87 59.23 161.96 60.24 164.12C59.6 164.3 58.13 165.19 57.54 165.65C57.18 164.14 57.01 161.01 57.84 158.55C58.58 158.55 57.62 158.92 60.08 158.8Z" />
		<path id="path5167" class="shp9" d="M192.81 146.48C193.36 147.1 195.74 148.78 197.08 148.85C194.83 149.47 191.68 151.41 186.42 150.42C185.97 150.34 185.76 148.06 187.89 148.12C190.01 148.18 192.22 147 192.81 146.48L192.81 146.48Z" />
		<path id="path4467" class="shp9" d="M190.06 139.84C188.82 132.98 190.93 139.09 192.83 142.08C200.03 153.47 196.76 146.7 207.35 153.87C207.19 154.6 205.7 157.26 204.68 157.84C194.96 148.7 192.6 153.94 190.06 139.84L190.06 139.84Z" />
		<path id="path7369" class="shp9" d="M227.56 168.28C226.84 169.35 225.47 171.13 225.32 172.99C225.2 174.35 224.56 174.6 223.84 175.62C223.98 173.37 224.71 172.13 225.67 169.6C227.73 168.09 227.74 164.33 228.71 162.62C228.37 164.46 228.3 166.06 227.56 168.28Z" />
		<path id="path7415" class="shp9" d="M214.12 160.5C212.98 161.73 212.26 162.9 212.18 163.64C211.38 165 210.76 165.69 210.19 166.7C209.28 168.31 210.06 169.92 210.69 171.91C211.14 173.34 209.29 171.04 208.88 170.01C208.1 168.1 208.78 165.94 210.51 164.35C211.15 162.71 212.36 161.5 214.13 160.5L214.12 160.5Z" />
		<path id="path7774" fill-rule="evenodd" class="shp9" d="M88.26 209.86C91.09 215.53 92.66 223.4 90.48 229.26C86.85 232.13 79.61 233.05 76.94 226.74C76.76 224.67 77.28 221.62 78.49 219.06C80.59 214.64 84.1 211.86 88.26 209.86ZM79.44 224.49C80.46 227.62 85.13 229.94 88.77 226.93C89.88 221.99 88.92 218.51 87.47 211.86C82.34 215.85 79.47 219.13 79.44 224.49Z" />
		<path id="path7798" fill-rule="evenodd" class="shp9" d="M127.85 208.23C126.83 204.58 125.22 201.68 126.24 197.94C128.16 198.4 132.25 199.67 134.19 201.04C136.62 197.63 142.23 203.88 142.46 209.39C141.79 211.32 138.79 215.56 133.51 214.88C131.23 214.59 128.87 211.84 127.85 208.23ZM132.63 211.94C136.52 212.17 137.6 210.8 138.37 209.29C138.85 204.2 132.54 201.29 128.47 199.75C127.32 204.31 129.93 208.38 132.63 211.94Z" />
		<path id="path8070" class="shp5" d="M131.83 202.66C132.12 201.95 133.95 203.1 135.19 204.25C136.31 205.29 134.41 205.21 133.87 205.05C132.7 204.7 131.46 203.57 131.83 202.66L131.83 202.66Z" />
		<path id="path8072" class="shp5" d="M124.05 213.45C124.21 213.82 123.51 214.72 122.37 214.33C120.93 213.83 120.74 212.71 120.25 211.32C119.88 210.25 123.36 211.77 124.05 213.45Z" />
		<path id="path8074" class="shp5" d="M105.49 216.98C105.71 217.44 104.92 218.03 104.17 217.51C102.73 216.52 102.22 215.45 101.96 213.8C101.71 212.28 104.61 215.13 105.49 216.98Z" />
		<path id="path8174" class="shp9" d="M127.85 215.04C127.85 214.95 128.26 213.26 127.68 212.3C128.38 211.96 129.07 212.01 129.71 211.32C130.35 211.85 131.94 213.12 132.72 213.62C132.52 213.64 131.65 214.38 131.06 214.24C131.37 215.53 130.82 216.24 129.86 217.45C129.55 216.78 128.63 215.28 127.85 215.04Z" />
		<path id="path8176" class="shp9" d="M126.57 209.29C123.16 205.13 122.58 202.73 119.02 199.39C123.49 201.93 127.42 205.02 131.28 211.63C130.51 211.44 128.01 212.86 127.81 212.52C127.81 212.52 126.98 209.79 126.57 209.29Z" />
		<path id="path8178" class="shp9" d="M116.51 223.67C114.96 224.08 114.22 223.6 113.26 222.8C112.88 223.55 111.92 224.1 111.63 224.36C111.29 223.63 110.88 222.73 110.51 221.99C111.92 221.08 111.89 220.53 111.95 219.3C108.24 215.24 106.37 208.49 107.31 203.37C108.31 206.47 108.62 212.49 113.95 219.74C114.79 220.03 115.48 220.5 116.13 220.86C117.64 222.19 116.66 223.16 116.13 223.8" />
		<path id="path8182" class="shp9" d="M96.5 226.37C95.08 225.31 93.34 225 92.94 223.31C91.85 223.65 91.87 223.29 90.69 223.5C90.6 222.59 90.39 221.93 90.19 221.06C90.87 221.1 91.32 219.89 91.88 219.62C91.11 214.76 91.93 209.37 93.81 205.19C93.66 209.63 92.13 214.54 94.25 219.62C95.2 220.4 96.04 222.1 96.63 222.81C97.27 224.15 96.92 225.93 96.81 226.69" />
		<path id="path8241" fill-rule="evenodd" class="shp9" d="M77.42 245.4C78.61 243.66 80.05 245.89 78.01 250.2C76.89 252.55 66.23 255.22 64.01 250.71C62.23 247.09 63.71 247 63.7 245.35C63.64 239.33 64.82 235.08 67.93 230.98C72.56 233.18 76.05 238.59 77.42 245.4ZM68.34 233.24C65.96 235.22 65.04 240.59 65.9 247.1C68.22 249.72 74.83 247.63 75.65 246.5C75.3 239.15 70.79 233.84 68.34 233.24Z" />
		<path id="path8244" fill-rule="evenodd" class="shp9" d="M59.3 249.96C56.38 253.46 45.51 250.15 46.02 245.88C46.65 238 50.27 230.65 57.73 229.41C60.72 235.85 61.08 243.76 59.3 249.96ZM56.93 230.86C52.18 232.54 49.28 236.73 48.31 242.72C48.34 246.74 55.54 248.02 57.91 246.43C59.77 239.81 59.63 236.25 56.93 230.86Z" />
		<path id="path8247" fill-rule="evenodd" class="shp9" d="M91.66 238.88C92.31 240.9 94.04 240.89 94.6 242.93C95.71 247 86.29 251.86 81.56 247.15C80.63 246.22 79.28 243.11 81.21 242.72C80 237.88 80.11 233.68 82.47 229.77C85.86 231.46 90.4 234.98 91.66 238.88ZM83.63 244.21C87.59 245.93 91 243.64 90.61 241.53C89.33 235.21 85.06 233.11 82.81 232.06C81.54 235.16 82.27 240.14 83.63 244.21Z" />
		<path id="path8250" fill-rule="evenodd" class="shp9" d="M43.24 244.07C40.45 245.76 30.93 242.69 33.48 235.52C34.17 235.24 35.42 233.13 37.14 231.53C39.49 229.34 42.62 227.5 45.66 227.01C47.61 231.87 47.54 238.88 43.24 244.07ZM45.18 229.23C40.3 230.54 38.09 232.42 36.59 236.17C37.88 240.29 42.38 240.02 43.94 239.18C45.48 234.12 45.09 234.17 45.18 229.23Z" />
		<path id="path8665" class="shp5" d="M87.56 236.56C87.68 237.26 87.74 238.66 86.88 238.12C86.31 237.77 84.67 235.84 85.63 235.06C86.09 234.68 87.4 235.58 87.56 236.56Z" />
		<path id="path8396-4" class="shp9" d="M79.15 245.8C78.49 246.36 77.35 248.37 77.3 247.83C77.52 247.48 75.74 245.44 76.32 244.2C77.3 243.23 77.23 242.91 78.09 241.64C77.54 239.21 76.75 236.27 75.09 232.71C78.49 234.02 79.6 240.73 81.42 242.36C81.43 242.46 81.24 245.07 81.1 245.8C80.45 245.8 79.76 246.01 79.15 245.8L79.15 245.8Z" />
		<path id="path7620" fill-rule="evenodd" class="shp9" d="M176.2 235.87C179.19 235.83 180.6 236.17 183.96 236.76C182.12 240.45 179.88 244.44 176.71 246.88C174.64 248.47 169.86 248.9 170.85 250.98C169.61 251.35 168.61 252.21 166.79 251.68C164.97 251.16 161.12 243.33 164.34 239.32C168.47 236.33 173.21 235.91 176.2 235.87ZM182.22 237.56C178.31 236.41 169.21 237.53 167.24 239.97C165.73 242.53 166.34 246.01 168.24 247.92C173.85 248.16 180 242.5 182.22 237.56Z" />
		<path id="path7624" fill-rule="evenodd" class="shp9" d="M180.25 226.16C175.82 231.79 165.33 235.83 163.45 233.67C160.43 230.22 162.16 222.97 165.03 221.36C166.13 220.74 167.5 220.92 168.53 220.88C173 220.7 176.23 223.83 180.25 226.16ZM168.22 222.47C167.65 222.47 166.63 223.99 166.21 224.42C164.71 225.92 164.44 229.01 166.05 230.67C168.4 233.1 174.89 229.05 178.05 226.36C175.33 223.45 172.23 222.47 168.22 222.47Z" />
		<path id="path7626" fill-rule="evenodd" class="shp9" d="M188.13 246.22C187.85 252.59 184.32 257.44 180.36 260.91C180.7 263.89 176.75 264.32 175.95 264.29C172.19 264.11 167.37 254.37 170.48 252.34C175.49 248.52 183.43 248.09 188.13 246.22ZM186.28 248.48C183.33 249.29 174.46 250 173.37 253.37C172.35 255.12 175.32 260.15 177.11 260.92C180.89 259.38 185.67 253.19 186.28 248.48Z" />
		<path id="path7628" class="shp9" d="M182.87 265.14C181.25 265.43 179.19 263.37 177.96 262.11C178.35 261.72 180.65 260.63 180.88 260.08C181.76 260.77 181.56 261.23 183 261.23C185.55 259.95 187.84 257.6 188.72 253.31C189.86 253.01 190.25 255.53 190.54 255.15C189.71 259.88 187.35 264.33 182.87 265.14L182.87 265.14Z" />
		<path id="path8853" class="shp5" d="M176.96 237.91C177.85 237.76 180.43 238.21 179.46 239.03C177.42 240.76 174.42 240.64 174.33 239.28C174.27 238.31 175.17 238.2 176.96 237.91Z" />
		<path id="path8855" class="shp5" d="M173 223.75C173.76 223.97 175.49 225.01 174.75 225.5C173.69 226.2 171.15 225.54 171.25 224.37C171.29 223.9 172 223.46 173 223.75Z" />
		<path id="path8857" class="shp9" d="M189.59 250.3C190.18 251.35 189.96 253.26 189.9 254.46C189.3 254.62 188.92 254.21 188.79 253.48C188.7 252.98 188.82 252.15 188.71 251.98C187.69 252.99 186.09 253.62 185.66 253.75C185.57 252.81 186.21 252.57 186.28 252.42" />
		<path id="path8795" class="shp9" d="M164.36 231.12C165.55 231.12 166.2 231.36 167.36 231.12C167.58 231.46 167.83 232.77 168.6 233.07C171.69 233.06 174.33 231.26 176.93 231.37C175.7 231.93 171.9 234.38 168.35 234.23C168.18 235.12 168.38 237.08 168.36 237.99C167.58 238.19 165.72 239.97 164.71 239.78C165.03 238.99 164.71 235.28 165.77 234.3C165.18 233.83 164.03 232.71 164.36 231.12L164.36 231.12Z" />
		<path id="path8797" class="shp9" d="M171.03 251.29C169.41 251.29 168.97 250.19 167.84 249C169.97 248.28 171.5 249.05 172.94 248.48C174.89 247.71 178.78 245.94 180.52 244.09C179.27 246.24 176.33 248.22 174.26 250.01C174 252.1 173.72 253.42 171.55 254.44C170.82 253.42 171.1 253.05 171.03 251.29L171.03 251.29Z" />
	</g>
</svg>