<svg version="1.2" baseProfile="tiny-ps" xmlns="http://www.w3.org/2000/svg" viewBox="0 0 265 304" width="265" height="304">
	<title>example-svg</title>
	<style>
		tspan { white-space:pre }
		.shp0 { fill: #ff8f16 } 
		.shp1 { fill: #ab6800 } 
		.shp2 { fill: #6b4900 } 
		.shp3 { fill: #dcb1c1 } 
		.shp4 { fill: #ffffa6 } 
		.shp5 { fill: #ffffff } 
		.shp6 { fill: #d4ac76 } 
		.shp7 { fill: #ffe7c1 } 
		.shp8 { fill: #84bcff } 
		.shp9 { fill: #399df9 } 
		.shp10 { fill: #307fda } 
		.shp11 { fill: #283c9a } 
		.shp12 { fill: #1a1a1a } 
		.shp13 { fill: #dfc9a6 } 
		.shp14 { fill: #9e7762 } 
		.shp15 { fill: #ffb670 } 
		.shp16 { fill: #9a8114 } 
		.shp17 { fill: #b188a2 } 
		.shp18 { fill: #5e5362 } 
		.shp19 { fill: #000000 } 
	</style>
	<g id="layer2">
		<path id="path17406" class="shp0" d="M206.5 251.38C214.07 245.15 235.76 247.53 246.38 247.63C249.48 251.31 253.76 254.25 257.38 257.75C259.03 259.51 261.13 260.87 260.88 264C259.28 275.71 242.97 276.29 233 276.25C224.93 274.42 217.92 270.04 210.38 266.63C209.87 261.02 206.45 256.37 206.5 251.38Z" />
		<path id="path17614" class="shp1" d="M206.38 250.37C218.04 251.35 229.82 254.96 237.49 257.2C239.3 258.38 243.27 263.02 247.66 263.37C251.66 266.66 253.18 267 254.13 273.25C253.08 276.9 249.27 277.82 245.38 275.5C244.4 275.67 243.36 275.29 242.5 276C240.28 278.08 237.05 278.67 233.63 276.75C224.26 275.9 209.7 270.66 208.88 259.5C206.89 257.08 205.81 254.69 206.38 250.38L206.38 250.37Z" />
		<path id="path17571" class="shp2" d="M208.75 251.75C216.52 252.81 225.82 253.15 234 253.75C231.49 256.83 229.16 256.78 228.34 258.43C229.66 260.24 229.53 263 231.86 265.48C233.95 267.7 233.35 271.72 233.16 275.34C226.18 277.67 223.69 274 217 270C215.88 266.63 214.88 261.63 212 258.5C210.55 256.86 208.61 253.24 208.75 251.75L208.75 251.75Z" />
		<path id="path11873" class="shp0" d="M75.87 198.26C71.37 192.41 67.35 181.63 67.61 174.15C54.24 175.37 53.37 173.06 38.44 167.1C37.78 168.26 38.66 174.56 37.47 178.24C37.11 179.35 34.69 179.32 34.34 179.97C33.31 183.43 27.45 182.28 24.34 181.08C22.97 181.74 24.02 179.89 22 180.16C17.54 180.78 12.14 178.16 9.4 174.14C5.9 159.45 -0.3 134.14 21.65 123.95C27.97 123.95 37.82 123.35 43.92 128.19C47.12 127.43 51.87 127.7 52.5 124.5C53.61 92.88 66.19 62.4 80.38 44.13C94.77 25.58 111.2 10.48 135.13 8.38C138 9.53 138.97 10.01 136.75 12.13C125.02 17.4 113.16 26.84 109.25 40.88C104.07 59.45 112.16 78.09 121.9 89.13C122.96 87.78 123.64 86.38 126.69 84.41C129.93 82.33 136.47 82.65 140.73 83.08C145.25 83.55 152.93 90.97 153.81 95.45C154.7 99.98 151.43 104.76 150.74 109.04C167.22 123.18 171.46 135.55 180.44 155.64C189.01 161.44 155.62 207.52 138.67 223.3C137.1 227.37 135.64 231.55 135.77 235.01C135.86 237.53 137.31 239.36 137.61 242.04C138.34 248.38 135.55 255.96 136.2 263.07C141.78 267.98 146.77 273.69 149.23 279.42C150.93 283.4 150.98 287.37 150.96 291.18C146.02 292.44 136.14 294.13 130.94 294.95C125.88 299.39 117.29 298.61 112.34 295.13C101.69 293.31 97.9 284.9 90.6 273.96C90.3 267.56 93.34 263.62 95.19 259.01C92.02 246.38 89.63 234.31 93.77 221.88C94.74 218.18 92.48 215.3 91.3 212.34C84.21 205.9 81.36 205.41 75.87 198.26L75.87 198.26Z" />
		<path id="path16335" class="shp3" d="M123.53 287.45C127.29 289.9 130.11 296.2 128.19 299.7C126.23 300.77 120.91 300.5 119.22 299.52C116.24 295.16 120.98 290.34 123.53 287.45L123.53 287.45Z" />
		<path id="path15883" class="shp4" d="M144.33 230.02C129.53 222.61 125.65 198.85 140.27 186.79C136.58 179.06 140.64 166.74 152.46 165.49C153.36 156.77 160.43 150.79 166.42 154.3C168.4 155.45 170.52 159.31 172 162.75C175.51 158.13 188.31 153.12 194.71 158.07C196.79 156.22 201.59 155.02 205.58 154.89C206.92 151.63 212.99 149.29 215.24 149.71C219.86 150.57 221.58 158.7 226.8 168.06C232.58 178.43 238.54 183.16 245.65 193.2C245.65 194.32 245.23 197.68 245.82 199.95C246.53 202.65 248.28 204.29 248.45 205.62C252.22 210.83 257.32 214.87 256.41 221.53C257.39 223.05 259.11 228.07 259.06 231.08C258.93 239.61 252.95 244.1 241.56 245.75C240.25 248.12 238.1 251.44 235.02 253.17C221.53 258.57 207.77 247.96 193.12 248.05C181.41 250.59 167.91 255.62 158.12 246.46C148.31 248.69 144.88 239.74 144.33 230.02L144.33 230.02Z" />
		<path id="path16781" class="shp5" d="M165.38 223.63C156.88 213.75 153.51 199.39 160.67 187.51C164.61 185.98 173.75 186.56 178.75 190.38C170.81 200.58 168.16 210.4 176.38 223.75C172.92 224.05 169 223.8 165.38 223.63L165.38 223.63Z" />
		<path id="path16087" class="shp6" d="M258.53 236.64C257.71 238.06 259.12 239.34 257.63 240.48C253.76 243.42 245.52 245.39 241.12 246.01C237.07 256.12 224.47 257.75 213.98 252.73C208.02 249.88 203.22 249.02 193.56 247.96C182.15 251.32 165.52 255.36 157.41 247.07C151.99 246.33 145.81 242.89 155.47 239.74C145.29 234.65 137.59 224.8 132.66 214.11C127.95 204.67 132.86 193.14 141.06 187.5C138.87 185.92 138.14 183.47 139.56 180.69C142.21 182.61 144.8 184.24 148.66 183.52C149.07 184.44 149.7 185.93 151.25 184.93C152.52 184.11 153.44 182.82 154.5 183.7C152.27 186.78 150.75 190.43 146.85 191.56C142.85 192.73 138.92 197.1 138.5 201.47C137.86 210.76 144.55 203.77 148.8 201.17C150.87 193.24 154.66 192.66 156.62 183.79C158.17 180.49 163.09 178.26 165.87 178.21C180.43 177.92 184.56 189.05 194.98 198.52C199.08 202.25 195.38 202.78 196.62 204.46C185.33 202.7 173.45 177.16 160.77 186.09C159.33 189.29 159.71 193.46 156.62 196.34C155.46 205.97 157.44 217.01 166.25 224.62C174.72 225.64 184.96 212.63 191.91 217.05C192.03 220.28 196.74 221.57 188.76 225.15C188.03 225.48 188.81 226.67 189.01 227.23C197.36 229.22 202.57 229.25 213.1 228.42C219.77 228.98 225.17 233.07 229.71 237.79C238.29 243.99 249.13 241.5 258.53 236.64L258.53 236.64Z" />
		<path id="path15278" class="shp1" d="M124.81 278.39C124.34 278.37 122.76 279.39 121.63 281.86C121.07 283.08 124.25 289.55 122.94 290.08C122.05 290.43 118.35 298.11 117.12 298.03C115.68 297.94 114.22 295.85 112.42 295C108.96 293.38 106.82 295.65 103.39 293.13C99.54 290.32 94.52 282.7 93.26 280.53C89.43 273.91 92.66 263.14 95.91 258.12C93.61 250.74 93.38 232.53 93.25 220.5C92.29 218.25 90.38 215.51 90.5 211.75C83.93 206.64 75.44 200.76 72.75 191.75C78.48 194.33 92.96 191.98 100.37 189.3C98.97 191 95.03 195.42 96.13 196.67C100.39 201.47 107.47 200 110.05 198.78C113.81 203.61 116.61 211.69 115.05 212.89C111.83 215.38 97.21 209.98 97 211.5C98.14 213.26 130.41 203.47 131.96 209.08C132.12 209.66 135.83 220.46 137.59 223.97C135.99 226.62 137.43 236.62 137.49 243.98C132.89 247.96 131.55 253.23 125.91 257.27C122.73 259.54 125.52 269.11 126.46 272.51C132.37 276.9 134.72 282.82 136.54 285.26C137.48 286.51 136.78 297.12 135.21 295.71C134.85 295.38 131.2 295.59 131.14 294.5C130.86 289.47 125.27 280.17 124.81 278.39L124.81 278.39Z" />
		<path id="path15510" class="shp1" d="M47.66 139.4C54.78 139.24 63.76 141.7 72.56 139.68C72.17 143.03 71.53 152.26 70.75 158.75C75.23 161.43 83.84 165.05 84.94 170.28C83.41 171.57 82.84 172.88 81.69 174.12L81.69 175.87C77.47 177.89 72.48 181.13 68.66 180.87C66.93 178.51 67.07 175.08 66.91 174.5C55.5 175.02 44.72 168.85 36.84 165.31C34.91 168.95 35.88 172.96 28.88 177.59C29.9 174.68 32.83 169.3 32.64 166.05C32.36 161.46 32.91 150.45 34.03 152.59C35.52 155.43 35.16 159.77 37.78 162.03C43.84 167.24 51.24 166.53 55.16 166.28C58.74 161.6 41.99 161.76 37.56 149.06C36.38 144.74 42.6 139.05 47.66 139.4L47.66 139.4Z" />
		<path id="path11722" class="shp7" d="M98.55 4.09C106.53 0.46 112.68 8.72 116.05 11.87C113.33 19.1 102.57 26.18 95.63 24.87C94.17 17.71 91.5 7.97 98.55 4.09Z" />
		<path id="path11730" class="shp7" d="M127.18 36.44C124.52 41.34 115.97 39.91 111.1 34.85C113.85 29.34 117.35 23.78 123.65 19.12C125.69 24.47 130.02 31.23 127.18 36.44Z" />
		<path id="path12290" class="shp2" d="M115.43 87.27C115.44 87.27 116.11 86.96 116.4 86.83C122.43 93.66 133.2 98.22 139 103.17C138.7 103.35 138.55 103.4 138.22 103.55C137.41 103.04 137.87 103 137.43 102.37C135.19 100.66 130.94 98.01 128.77 97.08C124.05 93.84 119.02 90.86 115.43 87.27L115.43 87.27Z" />
		<path id="path16243" class="shp8" d="M171.2 186.62C171.6 186.85 171.91 186.6 172 187.24C159.52 192.11 156.51 214.11 166.16 223.83C165.57 224.03 166.2 223.71 165.37 224.09C160.85 219.84 158.83 212.35 159.37 205.1C159.96 196.99 164.18 189.34 171.2 186.62L171.2 186.62Z" />
		<path id="path16224" class="shp9" d="M171.55 186.71C174.63 186.57 176.19 188.22 178.36 190.68C166.53 197.67 164.21 212.66 174.56 223.56C172.03 223.79 168.66 223.9 166.07 224.18C156.71 214.19 157.44 193.53 171.55 186.71L171.55 186.71Z" />
		<path id="path16773" class="shp10" d="M177.63 190.38C172.91 193.78 168.07 199.11 167.38 206.38C166.86 211.75 168.22 219 173 224C172.27 224.16 171.62 224.53 170.75 224.5C170.91 224.13 170.63 223.99 171.13 223.63C170.38 223.77 169.54 224.21 168.63 224.13C168.84 223.87 169.28 223.25 170 222.5C168.79 222.9 167.81 223.42 166.25 223.38C167.14 222.63 168.18 222.14 168.75 221C167.76 221.22 166.36 222.1 164.75 221.63C165.85 220.96 167.14 220.7 168.25 219.63C167.32 219.7 166.38 220.08 165.25 219.88C166.11 219.3 167.41 219.18 168 218.13C166.87 218.33 165.82 218.97 164 218.63C165.01 218.04 166.28 217.77 167 216.5C165.76 216.55 164.18 216.74 162.75 216.63C163.52 216.32 165.17 216.28 166.13 215C165.14 214.92 164.03 214.79 163 214.75C164.22 214.53 165.18 214.71 166.13 213.75C164.29 213.91 163.07 214.4 161.25 213.13C161.79 213.08 164.44 213.01 165.88 212.5C164.58 212.26 163.67 212.69 162.38 211.88C163.43 211.4 164.52 211.61 165.38 210.63C164.35 210.63 162.94 210.8 161.13 210.13C162.1 209.86 163.96 209.9 165.13 208.88C164.58 208.88 161.75 209.08 160.63 208.25C161.93 208.07 163.04 207.91 164.38 207.63C163.9 207.56 161.95 206.83 160.75 207.38C162.15 207.04 163.55 207.06 164.88 206.25C163.84 206.12 161.93 206.11 160.75 205.25C161.9 205.15 162.95 205.03 164.13 204.88C163.07 204.46 161.8 205.01 161.25 203.75C162.27 204.04 163.84 204.24 165.38 204.5C164.79 203.95 164.67 202.78 163.63 202.88C164.54 202.88 165.46 202.88 166.38 202.88C165.2 202.35 163.45 201.45 161.75 201.13C162.7 200.77 163.84 200.67 164.75 200C163.92 199.87 163.23 199.56 162.25 199.63C163.33 199.67 165.56 199.66 167 199.88C166.41 199.28 165.95 198.54 165 197.88C165.42 197.91 166.03 198.15 166.63 198C165.58 197.31 164.67 196.26 163.13 195.63C164.55 196.08 166.23 196.9 168.13 196.5C167.64 195.71 167.77 194.65 166.75 194.25C167.63 194.56 168.38 194.73 169.25 195.13C168.29 194.1 167.94 193.16 166.5 192.25C167.37 192.38 168.68 192.88 169.75 192.75C169.25 192.11 169.27 190.88 168 190.5C169.48 190.99 171.06 191.5 172.25 192.38C171.52 191.28 170.92 190.29 169.75 189.25C170.1 189.36 173.22 190.13 174.88 191C174.62 190.73 173.08 188.89 171.63 188.13C172.66 188.42 175.92 189.24 175.88 189.63C176.52 189.9 177.28 189.35 177.63 190.38Z" />
		<path id="path16262" class="shp11" d="M176.95 189.89C177.06 190.06 177.66 190.68 177.65 190.95C171.92 195.19 169.69 198.63 168.02 205.97C166.74 211.62 169.66 219.11 173.94 223.39C173.68 223.49 173.3 223.43 172.88 223.83C168.43 221.25 166.02 212.47 166.61 206.77C167.25 200.44 170.57 193.33 177.3 190.33" />
		<path id="path9425" class="shp12" d="M177.85 190.36C183.18 193.02 183.73 196.61 189.42 200.97C189.16 204.02 190.58 207.81 190.1 210.67C189.41 214.7 186.41 217.73 182.58 221.52C179.79 221.82 176.66 223.72 173.33 223.61C164.87 215.57 164.25 197.81 177.85 190.36L177.85 190.36Z" />
		<path id="path11907" class="shp1" d="M98.25 25.62C88.71 36.86 68.42 72.99 68.99 79.36C68.11 85.18 66.41 104.63 70.32 107.48C71.32 114.4 74.61 121.58 77.37 125.4C74.82 129.22 70.05 127.66 68.93 132.5C68.55 134.12 67.91 137.79 68.49 141.77C69.38 147.98 55.34 174.31 52.51 169.94C51.25 167.99 35.79 167.61 35.6 164.4C31.49 162.83 32.51 180.81 30.43 178.81C29.18 177.6 28.63 167.45 24.39 160.41C22.2 156.77 14.08 157.8 14.81 153.22C10.98 158.33 9.74 157.15 12.34 165.15C13.25 167.97 11.27 171.11 12.2 173.38C11.75 173.18 9.33 174.92 8.75 174.18C7.48 172.58 7.95 167.95 7.24 167.31C-4.49 156.81 9.28 132.92 20.75 124C31.01 122.57 36.99 124.23 43.25 128.75C47.42 128.53 50.36 126.41 53.5 125C54.53 99.33 60.55 61.13 91.53 30.27C93.6 28.21 96.66 27.51 98.25 25.62L98.25 25.62Z" />
		<path id="path15535" class="shp2" d="M61 89.4C59.19 98.29 62.42 106.65 62.66 110.53C65.46 116.13 70.25 122.93 75.81 125.31C74.25 127.76 69.89 127.44 67.97 128.97C67.37 129.44 65.36 139.91 63.41 144.22C64.62 144.43 65.62 144.73 66.25 145.22C71.58 149.36 72.94 152.59 71.41 160.43C71.46 166.97 82.88 165.74 80.56 167.56C79.23 168.6 90.42 194.06 94.16 200.53C95.51 202.87 104.68 204.67 103.66 207.5C103.4 208.2 116.69 210.47 124.44 209.28C134.5 207.73 132.24 214.26 137.69 224.22C136.16 228.17 136.62 229.49 135.97 231.97C132.76 234.83 128.43 250.03 121.84 253.25C118.25 255 123.36 272.79 120.06 273.68C119.46 273.85 118.11 279.58 116.31 280.18C115.56 280.44 121.41 297.22 120.13 297.68C119.72 297.83 115.78 298.53 114 295.43C111.4 290.92 110.76 282 110.47 281.59C108.72 279.12 108.36 277.37 106.66 277.78C104.6 278.27 108.43 292.97 106.5 292.71C97.99 291.59 94.76 280.74 93.44 278.59C91.77 275.86 99.92 260.49 99.5 259.18C95.55 246.9 91.96 230.86 93.91 222C92.94 220.32 91.79 215.95 90.38 212.75C86.65 211.43 77.93 200.54 74.91 196.43C69.64 189.27 68.22 179.47 67.28 175.28C65.58 174.99 58.74 175.16 56.06 173.5C51.25 170.51 48.42 164.84 45.28 163.65C32.87 158.96 29.64 152 28.44 145.87C27.27 139.95 39.4 138.27 44.62 142.53C47.14 137.32 47.67 137.51 50.59 131.78C44.47 132.99 47.59 130.17 41.09 134.56C40.15 135.03 39.17 135.45 38.25 135.97C38.05 134.84 37.72 133.37 37.56 132.09C34.71 131.57 29.87 129.87 25.53 130.65C16.38 134.14 5.83 150.02 10.09 165.75C11.11 169.49 8.76 170.61 7.62 172.5C1.47 158.83 4.17 135.63 20.94 125.37C26.96 124.28 36.18 123.97 44.28 128.18C47.71 126.64 50.18 126.46 53.81 123.97C53.56 96.55 60.07 70.61 77.53 45.43C77.53 48.42 62.85 80.33 61 89.4Z" />
		<path id="path10153" class="shp7" d="M85.29 173.27C94.02 173.27 103.11 177.17 99.78 187.41C89.94 196.64 70.51 195.67 62.13 185.29C60.12 182.8 61.59 181.62 66.37 181.4C74.04 181.06 77.94 176.23 85.29 173.27L85.29 173.27Z" />
		<path id="path10207" class="shp13" d="M101.63 187.13C94.2 196.67 74.93 194.07 64.75 188.75C63.46 187 61.08 184.6 63.25 181.88C71.39 181.12 77.81 178.03 84.5 174C86.04 173.93 86.05 172.99 87.63 173.75C83.84 178.35 75.12 181.79 68 182.38C65.92 182.55 67.3 184.19 69.13 185.38C76.78 190.32 92.75 191.04 98.88 181.13C101.5 182.12 102.11 182.34 101.63 187.13Z" />
		<path id="path10233" class="shp5" d="M88.88 176.25C91.68 175.18 92.62 178.01 91.88 179C88.38 183.6 80.99 185.37 76.13 183.5C74.75 182.97 76.34 182.01 76.75 182C82.15 181.88 85.11 177.69 88.88 176.25Z" />
		<path id="path10235" class="shp14" d="M101 187.5C90.52 195.65 72.79 196.73 63 185.75C61.16 183.68 61.53 181.36 65.13 182.13C64.22 182.92 64.06 183.56 64.5 184.13C66.45 186.62 71 188.62 74.88 189.5C86.24 192.09 96.38 191.56 100.5 182.63C100.91 184.41 101.47 185.22 101 187.5Z" />
		<path id="path10265" class="shp7" d="M53.82 143.39C61.25 147.82 68.04 143.53 74.33 140.39C84.96 139.57 83.27 153.6 80.51 158.42C71.09 163.17 59.59 155.42 54 149.76C50.57 146.29 52.78 146.51 53.82 143.39Z" />
		<path id="path10273" class="shp7" d="M60.37 110.8C64.95 109.43 70.22 107.79 74.4 107.6C79.37 112.85 79.87 119.56 77.14 124.75C67.28 126.58 58.14 122.51 52.48 115.34C48.46 112 50.89 112.19 51.91 109.87C54.11 111 57.3 111.72 60.37 110.8Z" />
		<path id="path10312" class="shp5" d="M63.54 112.9C67.52 111.22 69.2 110.22 72.12 110.34C74.12 110.42 75.06 112.85 74.06 113.43C71.29 115.03 68.29 114.98 64.78 114.32C63.81 114.13 62.24 113.45 63.54 112.9Z" />
		<path id="path10327" class="shp7" d="M95.54 207.39C103.68 208.06 108.2 202.31 112.51 197.31C115.34 194.03 120.35 196.13 123.21 198.21C126.42 200.54 128.66 204.62 129.66 208.8C120.75 217.34 107.36 217.56 97.84 211.63C94.52 209.56 95.71 208.09 95.54 207.39L95.54 207.39Z" />
		<path id="path10335" class="shp5" d="M116.94 200C119.25 198.49 121.03 199.82 120.12 201.78C118.26 205.79 114.19 207.16 109.86 206.85C108.45 206.75 109.84 205.83 110.54 205.5C113.74 204.03 114.83 201.38 116.94 200Z" />
		<path id="path10348" class="shp13" d="M130.54 207.92C122.87 216.62 108.41 218.23 96.96 211.98C95.5 209.47 94.48 209.36 97.13 207.56C103.38 207.56 107.3 203.15 113.04 196.96C113.63 197.08 114.3 196.99 114.81 197.31C111.11 203.26 106.71 207.51 99.34 207.83C97.34 207.92 99.1 209.56 100.05 210.04C108.33 214.26 123.41 209.41 127.71 202.97C128.16 203.45 130.98 203.75 130.54 207.92Z" />
		<path id="path10367" class="shp14" d="M129.75 210C120.3 216.46 107.82 216.81 98 210.75C107.82 215.18 123.94 213.49 129.38 204.75C129.46 206.47 130 208.24 129.75 210Z" />
		<path id="path10407" class="shp13" d="M83.1 150.95C84.62 159.29 78.7 159.95 70.88 159.63C63.2 158.29 52.44 152.92 53.62 143.88C54.29 144.19 54.55 144.74 55.5 144.75C55.5 145.25 56.15 146.65 56.5 147C59.13 149.63 64.65 153.33 69.09 153.86C74.05 154.45 81.78 154.44 83.1 150.95L83.1 150.95Z" />
		<path id="path10375" class="shp14" d="M82.5 154.72C82.5 157.54 82.24 158.38 80 159.38C72.69 162.62 62.89 157.96 56.75 152.63C54.37 150.56 49.93 146.83 53.87 143.88C53.9 144.02 53.68 146.23 54.25 146.88C60.27 153.68 72.27 159.49 82.5 154.72L82.5 154.72Z" />
		<path id="path10962" class="shp13" d="M77.13 124.75C68.42 130.24 58.3 122.92 52.37 115.5C50.42 113.06 50.08 109.31 54.5 111.25C55.39 112.55 55.93 113.44 57.5 114.38C62.82 117.55 68.58 118.61 75.5 117.5C76.64 117.32 78 116.94 78.5 115.25C78.48 116.7 80.07 122.89 77.13 124.75Z" />
		<path id="path10937" class="shp14" d="M78 123.88C69.36 129.33 57 122.88 51.62 114.88C51.01 113.96 50.64 112.31 51.5 110.75C51.87 111.36 51.78 111.75 52.62 112.63C57.98 118.2 66.85 121.69 75.38 121.25C76.37 121.2 78.14 120.5 78.25 118.63C78.58 120.42 79.27 122.08 78 123.88Z" />
		<path id="path11005" class="shp7" d="M95.88 100.19C96.31 103.79 96.78 109.2 93.25 109.44C88.84 109.73 88 105.62 87 102.25C85.76 98.1 87.57 95.01 90.34 94.09C93.25 93.14 95.54 97.42 95.88 100.19Z" />
		<path id="path11013" class="shp7" d="M97.13 121.12C101.18 120.08 103.3 124.58 104.03 127.75C105.05 132.21 105.22 137.38 100.67 138.27C95.73 139.23 93.17 136.03 91.39 133.1C88.88 128.97 92.72 122.25 97.13 121.12L97.13 121.12Z" />
		<path id="path11039" class="shp7" d="M106 148.81C113.3 147.91 117.04 155.59 115.88 164.5C111.83 166.43 104.24 166.44 102.63 164.13C99.91 160.22 99.99 149.56 106 148.81Z" />
		<path id="path11047" class="shp7" d="M126.38 134.75C133.62 136.8 136.62 145.85 135.5 151C134.21 156.92 124.48 152.29 122.13 146.88C120.13 142.28 123.34 133.89 126.38 134.75Z" />
		<path id="path11055" class="shp7" d="M148.31 144.63C144.43 142.11 139.62 131.42 143.13 128.5C145.58 126.46 156.55 128.2 156.25 136.5C156.02 142.74 152.78 147.53 148.31 144.63Z" />
		<path id="path11089" class="shp7" d="M112.12 93.5C113.07 97.05 112.01 102.18 110.12 102C104.16 101.42 100.72 92.22 103.06 90.5C105.88 88.43 111.64 91.69 112.12 93.5Z" />
		<path id="path11121" class="shp7" d="M119.88 89.87C121.59 88.03 125.44 89.39 127.51 91.47C129.46 93.41 130.92 98.09 127.82 98.92C123.52 100.07 117 92.98 119.88 89.87Z" />
		<path id="path11129" class="shp7" d="M112.31 110.06C116.41 109.13 119.52 110.64 121.38 115C122.19 116.92 123.4 123.26 120.25 124.13C117.32 124.93 113.52 123.86 111.5 120.38C109.67 117.22 107.96 111.06 112.31 110.06Z" />
		<path id="path11137" class="shp7" d="M129.56 106.63C130.73 104.87 137.61 104.97 140.25 109.38C142.13 112.52 142.14 118.24 137.5 118.5C133.77 118.71 126.82 110.75 129.56 106.63Z" />
		<path id="path11152" class="shp7" d="M159.13 111.13C161.29 114.05 160.98 117.26 158.38 120.63C153.77 119.53 148.73 115.37 148 110C151.89 109.12 156.42 107.47 159.13 111.13Z" />
		<path id="path11160" class="shp7" d="M171.75 134.13C173 137.97 175.56 145.93 168.13 144.75C162.59 143.87 160.02 133.31 162.38 129.13C163.45 127.21 170.42 130.05 171.75 134.13Z" />
		<path id="path11168" class="shp7" d="M183 140.63C183.78 144.46 181.97 146.68 178.5 148.5C177 144.75 173.57 140.14 171.5 135.5C175.69 135.12 181.92 135.29 183 140.63Z" />
		<path id="path11176" class="shp7" d="M158.13 115.81C158.68 115.17 159.74 113.65 159.5 111.88C162.85 111.88 165.2 111.54 167 115.25C168.81 118.97 169.53 123.36 164.88 125.38C162.99 122.55 159.47 119.9 158.13 115.81Z" />
		<path id="path11296" class="shp5" d="M99.5 124C100.95 124.94 102.08 128.21 101 129C99.81 129.87 96.86 127.72 97.62 125C97.86 124.16 98.82 123.56 99.5 124Z" />
		<path id="path11298" class="shp5" d="M93.87 99.06C94.16 99.72 94.51 100.95 93.87 101.13C93.22 101.3 92.38 101.09 91.87 99.88C91.15 98.13 91.64 97.78 92.5 97.63C92.89 97.55 93.36 97.86 93.87 99.06Z" />
		<path id="path11312" class="shp5" d="M115.16 115.73C114.52 115.14 115.03 113.24 115.96 113.52C116.62 113.72 118.28 114.77 117.81 115.99C117.61 116.53 115.9 116.4 115.16 115.73L115.16 115.73Z" />
		<path id="path11314" class="shp5" d="M135.67 108.3C135.87 108.06 136.67 107.58 137.7 108.57C138.33 109.17 138.46 110.1 137.44 110.43C136.76 110.64 135.06 109.04 135.67 108.3L135.67 108.3Z" />
		<path id="path11316" class="shp5" d="M157.85 111.87C158.61 112.66 158.12 113.45 157.31 113.06C156.69 112.77 155.73 111.55 156.21 111.37C156.79 111.15 157.11 111.1 157.85 111.87Z" />
		<path id="path11320" class="shp5" d="M110.17 94C110.59 94.62 110.09 96.09 109.5 95.81C108.79 95.48 108.4 94.27 108.35 93.43C108.33 92.92 109.66 93.27 110.17 94Z" />
		<path id="path11322" class="shp5" d="M124.88 91.82C125.08 91.43 126.02 91.8 126.52 92.54C126.75 92.88 126.94 93.93 126.01 93.94C125.44 93.94 124.57 92.4 124.88 91.82L124.88 91.82Z" />
		<path id="path11300" class="shp5" d="M108.93 151.81C110.87 152.7 113.35 155.34 112.62 157.07C111.94 158.66 107.55 158.77 106.43 157.07C105.27 155.31 107.21 151.01 108.93 151.81L108.93 151.81Z" />
		<path id="path11302" class="shp5" d="M128.68 140.07C129.38 141.01 130.94 143.07 129.84 143.66C128.27 144.5 125.7 141.88 125.84 140.55C125.91 139.93 127.5 138.48 128.68 140.07Z" />
		<path id="path11304" class="shp5" d="M152 132C152.98 132.82 153.83 134.78 152.5 135.25C151.03 135.77 149.63 134.26 149.16 132.05C149.04 131.49 150.53 130.77 152 132Z" />
		<path id="path11306" class="shp5" d="M168.5 132.63C169.99 133.76 171.17 135.08 169.75 136.25C168.69 137.13 167.46 135.9 167 134C166.87 133.46 166.9 131.4 168.5 132.63Z" />
		<path id="path11318" class="shp5" d="M166.38 116.56C166.51 116.79 166.75 118.03 166.31 117.94C165.43 117.74 164.6 116.76 164.94 116.13C165.14 115.75 166.03 115.97 166.38 116.56Z" />
		<path id="path11435" class="shp13" d="M90.94 94.78C89.28 97.15 90.16 100.77 90.94 102.47C91.94 104.64 93.06 105.3 95.63 105.3C95.1 113.91 87.64 108.01 86.97 103.09C86.38 98.78 87.04 95.67 90.94 94.78Z" />
		<path id="path11416" class="shp14" d="M90.24 94.96C88.57 96.67 88.21 99.74 88.78 101.77C89.29 103.59 90.62 105.33 91.48 106.09C92.96 107.43 93.75 107.11 95.19 106.98C93 112.83 87.68 106.79 86.97 103.44C86.09 99.33 86.44 96.4 90.24 94.96L90.24 94.96Z" />
		<path id="path11443" class="shp13" d="M95.38 128.88C96.32 132.51 99.16 133.89 101.5 134.38C102.94 134.68 103.88 133.51 104.25 133.38C102.41 141.61 92.77 137.75 91.13 132.5C89.26 126.55 92.47 121.99 96.94 121.13C95.29 122.74 94.63 126.02 95.38 128.88Z" />
		<path id="path11451" class="shp14" d="M102.88 135C101.95 136.59 101.58 138.54 98.25 138C92.44 137.06 87.83 128.42 94.25 122.88C92.54 126.94 93.43 130 94.52 132.18C96.06 135.27 98.89 136.43 102.88 135L102.88 135Z" />
		<path id="path11658" class="shp13" d="M104.91 150.11C102.82 154.18 103.76 157.53 106.5 159.84C109.81 162.62 114.37 161.58 116.05 160.19C116.71 162.06 116.89 164.9 115.69 165.67C110.66 168.92 105.13 166.73 101.9 163.72C96.83 158.99 102.19 151.29 104.91 150.11L104.91 150.11Z" />
		<path id="path11470" class="shp14" d="M104.03 150.29C101.84 154.23 102.28 158.61 104.29 161.45C105.67 163.41 111.45 163.9 113.75 163.19C115.59 162.63 115.76 160.71 116.75 160.01C116.21 168.52 104.74 167.84 102.26 164.08C98.72 158.7 101.18 154.23 104.03 150.29L104.03 150.29Z" />
		<path id="path11650" class="shp13" d="M125 145C127.51 149.05 132.95 149.93 135.38 147.5C136.61 156.03 126.38 153.43 123.25 149.63C118.42 143.76 122.07 137.42 126.13 135.56C124.09 138.72 123.26 142.2 125 145Z" />
		<path id="path11478" class="shp14" d="M125.24 135.97C121.34 139 119.57 143.57 123.29 148.34C126.33 152.24 137.13 158.21 135.85 147.99C134.73 150.85 134.63 150.33 133.12 150.81C130.92 151.51 127.99 150.41 124.67 147.58C121.69 145.04 122.73 138.67 125.24 135.97L125.24 135.97Z" />
		<path id="path11572" class="shp13" d="M115.07 119.09C117.46 120.98 120.78 120.86 122.85 118.91C124.67 126.35 114.9 126.64 111.8 122.36C108.05 117.21 108.47 110.17 114.01 110.43C111.92 113.64 112.93 116.94 115.07 119.09L115.07 119.09Z" />
		<path id="path11486" class="shp14" d="M114.1 119.71C117.14 122.69 121.48 122.54 122.5 120.33C123.96 127.97 116.06 125.29 112.87 121.83C108.79 117.4 109.44 112.74 113.4 110.78C110.88 113.02 111.18 116.84 114.1 119.71L114.1 119.71Z" />
		<path id="path11580" class="shp13" d="M133.02 106.45C131.28 108.63 132.66 110.83 133.99 112.55C135.83 114.93 138.68 115.85 140.44 114.05C141.04 116.17 139.77 117.17 139.2 117.85C135.58 118.28 132.84 116.96 130.81 114.49C127.16 110.05 127.99 106.09 133.19 106.8" />
		<path id="path11494" class="shp14" d="M132.93 113.78C135.7 116.19 138.03 117.32 139.91 115.99C137.99 121.62 133.77 117.15 131.07 113.34C127.82 108.77 125.95 107.45 131.43 106.45C129.52 108.28 130.57 111.74 132.93 113.78L132.93 113.78Z" />
		<path id="path11642" class="shp13" d="M147.5 137.75C148.91 141.69 152.71 142.06 155.59 141.15C156.02 144.07 154.07 145.25 152 145.25C147.36 145.26 144.37 140.58 143.5 137.13C142.13 131.7 143.48 129.22 147.48 128.56C146.22 129.93 145.44 131.99 147.5 137.75Z" />
		<path id="path11502" class="shp14" d="M145.13 136.15C146.91 142.34 149.21 142.13 151.31 142.86C152.33 143.22 154.47 142.24 155.2 141.72C155.44 145.7 154.3 145.15 152.11 145.34C146.42 145.84 144.53 141.62 143.8 137.21C142.76 130.92 142.08 128.09 147.69 128.72C143.68 128.81 144.3 133.27 145.13 136.15L145.13 136.15Z" />
		<path id="path11592" class="shp13" d="M153.13 114.75C155.79 117.35 157.78 118.63 159.98 118.37C158.65 122.57 155.63 120.47 152.63 118.13C147.26 111.57 145.82 108.94 151.4 109.47C150.72 111.42 151.98 113.16 153.13 114.75Z" />
		<path id="path11600" class="shp13" d="M165.81 125.01C164.05 123.36 162.09 121.1 160.33 118.73C160.61 118 161.2 117.6 161.13 116.44C162.34 118.21 164.89 121.73 166.87 122.98C166.44 124.17 166.86 124.3 165.81 125.01Z" />
		<path id="path11626" class="shp13" d="M165.38 138.75C166.79 141.82 169.18 143.08 171.17 143.04C168.66 149.19 164.48 143.63 162.88 139.25C160.81 133.61 159.31 128.45 164.44 129.63C162.68 132.31 164.2 136.21 165.38 138.75Z" />
		<path id="path11634" class="shp13" d="M178.88 148.5C177.11 145.78 175.32 142.71 173.25 137.88C173.42 137.67 173.52 135.87 173.63 135.63C175.65 138.94 177.93 143.01 180.13 146C179.88 147.17 179.34 147.81 178.88 148.5Z" />
		<path id="path11666" class="shp13" d="M105.63 90.38C103.76 92.86 105.54 94.5 106.75 96.5C108.67 99.67 109.75 99.07 112.25 98.5C112.01 100.97 111.17 102.34 109.5 102.25C106.38 102.09 104.42 99.55 103.63 97.38C102.25 93.62 101.45 91.13 105.63 90.38Z" />
		<path id="path11674" class="shp13" d="M121.8 89.69C120.74 91.67 122.6 93.95 123.84 95.08C125.41 96.52 127.43 97.19 128.7 96.23C129.23 97.95 128.93 98.99 127.82 99.33C125.17 100.13 123.95 97.27 122.34 95.7C119.98 93.41 117.63 90.24 121.8 89.69Z" />
		<path id="path11693" class="shp13" d="M103.3 22.93C102.12 25.57 98.58 24.74 96.25 24.95C93.48 19.38 93.24 12.01 95.36 7.1C96.97 3.4 99.3 3.73 102.61 3.48C96 6.22 99.59 18.42 103.3 22.93L103.3 22.93Z" />
		<path id="path11701" class="shp13" d="M113.48 31.32C118.24 37.46 122.8 37.66 126.74 36.62C123.5 43.04 115.61 39.23 111.72 36.98C111.88 34.55 112.71 33.34 113.48 31.32L113.48 31.32Z" />
		<path id="path11845" class="shp14" d="M112.54 34.38C113.61 37.29 116.51 38.55 118.42 40.13C116.26 39.75 112.86 38.34 111.42 37.5C111.68 36.48 111.98 35.51 112.54 34.38Z" />
		<path id="path11813" class="shp14" d="M98.99 3.65C96.97 5.73 95.57 11.16 96.14 16.27C96.55 19.99 98.34 22.54 100.72 24.39C98.79 25.26 97.23 25.13 95.19 25.04C92.32 15.64 92.17 5.34 98.99 3.65Z" />
		<path id="path11968" class="shp2" d="M38.09 165.49C37.02 165.76 39.48 167.1 38.13 167.16C37.76 167.92 35.38 177.39 33.99 179.35C32.86 180.94 32.81 175.05 31.63 175.82C32.35 174.22 35.27 170.14 34.95 167.69C33.15 164.31 33.45 156.8 34.64 159.8C35.82 162.81 35.95 163.91 38.09 165.49L38.09 165.49Z" />
		<path id="path11987" class="shp15" d="M78.8 85.65C79.29 86.79 78.83 90.23 79.92 94.62C79.76 94.86 79.53 94.75 79 94.78C78.65 91.46 77.64 89.51 78.8 85.65L78.8 85.65Z" />
		<path id="path12006" class="shp2" d="M78.98 85.51C79.13 86.13 79.44 88.53 79.37 89.79C79.65 91.86 79.59 92.21 81.09 94.03C80.77 94.1 80.56 94.19 79.86 94.79C79.06 92.27 78.46 88.71 78.98 85.51L78.98 85.51Z" />
		<path id="path12025" class="shp1" d="M80.75 93.64C84.54 90.71 89.07 88.05 93.65 88.25C94.4 88.01 94.1 88.53 94.39 88.9C94.31 88.97 94.52 89.25 93.92 89.29C88.2 89.72 84.42 92.7 81.05 94.4C80.71 94.57 80.24 94.76 79.92 94.74C80.44 94.33 80.57 94.19 80.75 93.64L80.75 93.64Z" />
		<path id="path12061" class="shp15" d="M90.56 80.94C92.05 82.86 93.83 86.38 94.35 88.87C94.13 88.63 93.91 88.37 93.61 88.29C92.76 87.01 91.71 82.73 90.56 80.94Z" />
		<path id="path12069" class="shp2" d="M90.63 80.94C92.22 82.09 94.81 85.78 95 87.88C94.86 88.19 94.57 88.64 94.41 89.03C93.76 87.68 92.07 82.81 90.63 80.94Z" />
		<path id="path12099" class="shp1" d="M95 87.82C97.92 85.88 103.47 85.5 106.16 85.5C106.31 85.83 106.65 86.14 106.67 86.49C103.08 85.66 98.06 87.88 95.5 88.88C95.13 89.02 94.7 88.96 94.34 88.87C94.56 88.54 94.88 88.08 95 87.82L95 87.82Z" />
		<path id="path12118" class="shp2" d="M106.72 86.48C106.64 86.37 106.26 85.64 106.16 85.52C104.88 83.86 102.28 81.78 100.5 80.06C102.43 81.18 105.8 83.42 107.15 85.54C107.12 85.91 106.88 86.07 106.72 86.48Z" />
		<path id="path12145" class="shp2" d="M115.56 87.35C114.81 86.85 115.26 86.78 115.17 86.55C113.91 85.02 112.42 83.61 110.7 82.19C112.76 83.24 114.11 84.51 116.05 86.56C115.86 86.83 115.67 87.18 115.56 87.35L115.56 87.35Z" />
		<path id="path12137" class="shp1" d="M107.16 85.54C110.65 84.45 112.25 85.08 115.21 86.56C115.28 86.72 115.59 87 115.56 87.36C113.08 86.68 110.6 85.52 107.41 86.04C107.18 86.12 107.13 86.32 106.72 86.43C106.84 86.19 106.85 86.24 107.16 85.54Z" />
		<path id="path12181" class="shp15" d="M78.98 95.14C79.29 94.78 79.71 95.11 79.89 94.63C81.34 97.52 84.08 103.89 84.24 107.66C83.69 113.89 84.71 118.08 86.38 122.25C86.94 123.08 84.88 124.37 84.88 124.38C81.13 120.17 83.12 111.77 82.87 106.16C83.09 102.1 80.54 98.41 78.98 95.14L78.98 95.14Z" />
		<path id="path12200" class="shp2" d="M79.86 94.67C80.25 94.78 80.54 94.59 81 94.41C82.63 97.78 85.13 102.48 85.13 106.73C84.87 111.27 85.99 117.17 87.69 121.1C86.9 121.37 86.7 122.62 86.44 122.8C84.23 119.31 83.87 112.56 83.87 108.48C84.52 104.28 81.39 98.09 79.86 94.67L79.86 94.67Z" />
		<path id="path12219" class="shp1" d="M79.06 94.59C79.3 94.67 79.58 94.83 79.88 94.78C78.52 95.22 77.07 96.13 75.81 96.84C76.78 95.57 77.82 94.85 79.06 94.59Z" />
		<path id="path12238" class="shp2" d="M94.33 88.89C94.8 88.92 95.25 88.88 95.5 88.86C97.72 91.94 100.09 95.23 101.32 98.64C102.6 101.71 102.54 105.45 104.22 108.21C103.78 108.3 103.22 110.28 103.1 110.34C101.84 107.63 101.03 104.31 100.53 101.37C100.19 100.1 99.77 98.65 99.3 97.57C98.09 94.82 95.71 91.58 94.33 88.89L94.33 88.89Z" />
		<path id="path12257" class="shp15" d="M99.31 102.13C98.47 97.63 96.16 92.92 93.92 89.28C94.09 89.27 94.26 88.96 94.35 88.88C96.75 92.57 99.95 97.39 100.69 102.16C101.14 105.07 102.5 108.69 102.88 109.94C102.73 110.11 101.54 109.92 101.38 110.06C100.16 107.65 99.84 104.93 99.31 102.13Z" />
		<path id="path12265" class="shp2" d="M106.64 86.4C106.88 86.34 107.08 86.1 107.34 86.04C111.02 89.07 116.88 91.96 118.98 96.21C119.85 97.96 121.89 99.72 122.99 101.24C122.79 101.62 121.98 101.94 121.88 102.12C119.81 100.24 118.34 97.4 117.26 95.06C115.54 91.36 109.41 88.71 106.64 86.4L106.64 86.4Z" />
		<path id="path14414" class="shp1" d="M86.58 122.86C86.92 122.03 87.03 121.33 87.5 120.69C90.49 116.21 96.26 112.5 101.13 110.06C101.79 110.06 102.48 110.01 103.05 110.01C99.9 111.87 97.61 114.35 95.19 115.87C93.15 117.16 89.15 120.53 88.1 122.35C87.41 122.56 87.2 122.31 86.58 122.86L86.58 122.86Z" />
		<path id="path14422" class="shp1" d="M102.94 110.19C103.47 108.64 103.96 108.82 104.17 108.05C107.88 104.99 116.38 101.54 121.81 101.94C122.07 102.2 122.29 102.88 122.75 103.13C121.14 102.99 117.23 103.43 113.09 104.97C110.16 106.06 106.4 108.22 104.42 109.36C103.97 109.63 103.09 110.01 102.94 110.19L102.94 110.19Z" />
		<path id="path14430" class="shp1" d="M122.94 101.19C128.12 99.68 133.17 101.29 137.38 102.44C137.78 102.66 137.97 103.31 138.19 103.63C135.78 102.35 126.77 100.87 122 101.94C122.65 101.89 122.69 101.47 122.94 101.19Z" />
		<path id="path14438" class="shp1" d="M85.13 124.99C84.22 125.5 82.75 127.58 81.22 128.81C81.85 127.55 82.94 125.35 84.05 123.68C84.86 123.41 85.73 123.09 86.7 122.89C85.92 123.58 85.43 124.62 85.13 124.99Z" />
		<path id="path14468" class="shp2" d="M86.46 122.77C87.23 122.61 86.79 122.27 87.47 122.44C86.92 133.13 87.43 143.84 93.37 151.75C93.3 152.75 93.72 153.2 93.12 153.87C87.44 145.67 85.51 132.73 86.46 122.77L86.46 122.77Z" />
		<path id="path14476" class="shp2" d="M102.86 110.04C103.17 109.91 103.87 109.59 104.29 109.43C104.29 114.3 104.97 117.38 107.06 121.06C109.75 125.78 110.49 131.46 113.25 135C112.81 135.52 112.6 136.46 112.38 137.16C109.31 133.16 108.54 126.4 105.94 122.62C103.09 118.5 103.03 112.31 102.86 110.04L102.86 110.04Z" />
		<path id="path14484" class="shp15" d="M102.93 110.01C103.04 113.89 103.93 119.29 106.85 122.89C108.85 126.87 110.15 133.4 112.43 137.1C112.05 137.1 110.15 136.41 109.77 136.41C108.65 134.36 107.26 130.01 105.79 126.42C103.91 121.83 101.74 117.21 101.6 111.04C101.76 110.95 102.34 110.44 102.93 110.01L102.93 110.01Z" />
		<path id="path14520" class="shp2" d="M122.41 103C123 103.1 123.4 102.74 123.74 102.65C123.92 111.96 130.08 117.62 134.87 123.77C134.61 124.14 134.41 124.84 134.12 125.19C128.62 118.54 122.83 112.61 122.41 103Z" />
		<path id="path14528" class="shp15" d="M86.62 122.69C86.13 125.4 85.88 128.37 86.25 131.19C87.08 137.59 88.1 147.21 93.19 153.63C92.79 153.63 92.05 153.62 91.45 153.73C87.06 149.56 87.02 143.46 86 140.56C84.21 135.46 84.89 130.78 84.72 125.27C85.08 124.8 86.16 123.45 86.63 122.69L86.62 122.69Z" />
		<path id="path14553" class="shp2" d="M133.92 125.02C134.6 125.22 134.95 124.5 135.46 124.42C136.01 128.87 138.86 132.99 140.38 137C142.22 141.88 143.76 148.58 144.56 152.56C144.26 153.03 144.56 152.97 143.75 153.75C143.61 153.43 143.76 153.2 143.63 152.87C141.76 148.18 141.25 143.15 138.62 137.75C136.74 133.45 133.57 129.07 133.92 125.02L133.92 125.02Z" />
		<path id="path14563" class="shp15" d="M124.97 163.06C118.76 156.85 114 147.06 110.83 137.77C111.5 137.58 111.9 137.33 112.31 137.13C115.39 146.56 123.11 156.91 127.96 163.63C127.2 163.39 125.73 163.27 124.97 163.06L124.97 163.06Z" />
		<path id="path14604" class="shp1" d="M113 134.5C116.63 131.48 119.58 129.9 123.5 128C126.28 126.65 131.02 125.4 133.5 124.5C133.98 124.78 134.12 124.85 134.38 125C131.26 126.35 125.43 128.82 121.75 130.63C118.25 132.34 114.22 136 112.5 137C112.28 136.43 113.04 135.08 113 134.5Z" />
		<path id="path14631" class="shp1" d="M93.6 151.44C96.68 145.94 104.22 140.28 109.48 136.34C109.86 136.53 111.98 136.96 112.46 137.05C111.31 137.82 111.45 137.54 110.81 137.82C106.96 140.47 102.15 144.3 98.99 146.84C97.14 148.67 94.95 151.84 93.51 153.38C93.52 152.79 93.71 151.76 93.6 151.44L93.6 151.44Z" />
		<path id="path14639" class="shp15" d="M93.12 153.5C96.24 162.84 102.81 171.62 110.79 178.01C110.28 178.11 109.64 178.56 108.88 178.25C107.04 176.63 103.1 174.77 101.34 172.87C96.98 168.15 94.67 161.57 91.68 155.27C92 154.36 92.84 154.3 93.13 153.5L93.12 153.5Z" />
		<path id="path14658" class="shp15" d="M110.7 178.05C116 182.42 128.25 192.19 134.24 194.12C134.09 194.84 134.22 195.02 133.89 195.6C132.13 195.45 123.88 192.17 121.6 191.14C117.01 189.08 115.54 184.18 110.29 179.65C110.31 179.08 110.56 178.56 110.7 178.05L110.7 178.05Z" />
		<path id="path14706" class="shp1" d="M110.8 178.24C110.8 177.88 110.22 177.36 110.22 177C114.17 171.62 120.21 166.65 125 163.19C125.7 163.16 127.17 163.56 127.89 163.62C126.25 164.58 121.82 167.45 119.02 169.97C114.98 173.6 111.96 176.93 110.8 178.24Z" />
		<path id="path14731" class="shp1" d="M93.18 153.74C92.5 154.2 92.18 154.55 91.59 155.3C90.44 156.78 89.2 158.99 88.75 160.88C88.65 157.96 90.4 155.37 91.46 153.71C92.5 153.63 92.64 153.58 93.18 153.74L93.18 153.74Z" />
		<path id="path14750" class="shp1" d="M108.93 178.34C109.53 178.4 110.55 178.11 110.86 178.05C109.21 179.62 107.57 182.56 106.87 184.19C107.59 182.41 108.16 179.66 108.93 178.34L108.93 178.34Z" />
		<path id="path14783" class="shp2" d="M110.57 177.87C111.22 178.08 112.01 177.56 112.25 177.51C117.51 184.6 126.46 190.89 134.46 193.56C134.43 193.91 134.27 194.03 134.26 194.17C129.64 193.87 123.61 189.61 120.38 187.15C117.15 183.95 112.98 180.97 110.57 177.87L110.57 177.87Z" />
		<path id="path14802" class="shp2" d="M110.76 177.94L110.29 179.59C109.38 179.94 108.31 181.93 107.12 183.9C107.69 181.55 109.58 179.71 110.76 177.94Z" />
		<path id="path14851" class="shp7" d="M123.03 175.21C126.29 172.77 130.94 175.54 133.46 178.04C137.2 181.77 138.94 187.57 135.49 189.62C132.64 191.32 128.28 188.37 125.86 186.53C121.96 183.57 121.07 176.68 123.03 175.21L123.03 175.21Z" />
		<path id="path16106" class="shp16" d="M139.75 181.88C140.29 183.4 141.19 183.37 142.95 184.37C143.07 185.54 144.34 186.81 146.31 187.03C147.67 187.18 151.51 185.91 150.69 186.94C148.85 189.25 144.69 190.25 142 190.38C131.3 197.93 133.49 217.93 145.13 221.25C146.49 220 150.19 219.15 152.56 219.3C156.31 219.53 156.57 220.55 157.82 221.79C158.62 222.59 157.19 223.04 154.64 222.07C153.73 221.72 154.39 224.93 155.83 225.21C159.18 225.88 163.12 231.3 163.75 234.75C163.95 239.62 166.75 235.82 166.96 231.31C166.8 227.6 169.34 233.12 169.22 235.51C169.08 238.21 167.56 242.09 166.5 243.38C174.67 250.18 183.98 246.23 192.12 244.38C202.72 243.8 205.73 247.7 216.08 248.17C211.52 246.63 208.6 243.64 206.42 243.32C198.12 242.65 181.87 246.2 179.87 235.25C188.94 239.21 200.33 237.97 206.04 238.44C214.26 239.12 225.9 246.34 230.16 246.08C234.97 245.78 243.16 245.56 249.86 243.7C252.89 242.86 255.62 240.67 257.59 240.2C255.13 245.9 243.29 248.16 240.91 249.23C234.07 257.55 223.16 256.26 209.18 251.45C204.17 249.72 198.85 248.12 193.5 247.88C181.92 251.14 165.92 254.41 157.87 246.88C147.14 248.82 144.44 238.07 143.75 230.13C134.3 224.23 131.17 215.59 131.62 205.13C131.01 198.08 137.02 190.82 141 187.5C141.31 185.87 139.7 183.11 139.75 181.88L139.75 181.88Z" />
		<path id="path14872" class="shp13" d="M124.18 175.39C124.95 179.83 127.25 180.83 129.39 182.64C132.72 185.44 135.69 184.49 136.73 183.26C139.41 190.45 127.76 188.6 124.71 185.73C122.27 182.07 122.71 178.48 124.18 175.39L124.18 175.39Z" />
		<path id="path14832" class="shp14" d="M123.21 177.87C125.53 181.7 129.05 185.02 132.4 186.53C134.79 186.77 135.4 185.74 136.38 184.32C137.42 186.76 136.95 187.56 135.67 189C129.39 189.99 120.47 184.7 123.21 177.87Z" />
		<path id="path14859" class="shp5" d="M131.78 179.63C132.32 180.24 133.17 180.44 132.4 181.76C131.85 182.7 129.6 180.72 128.77 179.02C128.28 178 130.73 178.47 131.78 179.63Z" />
		<path id="path14891" class="shp1" d="M138.94 103.09C142.22 104.54 145.82 107.09 148.38 108.94C146.14 107.9 140.2 104.58 138.25 103.56C138.45 103.27 138.61 103.46 138.94 103.09Z" />
		<path id="path14596" class="shp2" d="M138.16 103.6C138.57 103.63 138.89 103.67 139.2 103.48C144.54 108.49 149.54 116.1 153.28 122.56C153.16 123.06 152.63 123.25 152.5 123.75C152.21 123.01 152.33 122.66 152.08 122C149.85 118.32 146.98 114.02 144.41 110.54C142.61 108.09 140.54 105.83 138.16 103.6L138.16 103.6Z" />
		<path id="path14623" class="shp1" d="M134.3 124.97C134.38 124.39 134.55 123.99 134.87 123.51C139.31 121.51 139.99 121.9 144.91 121.74C146.27 121.7 151.37 121.8 152.18 122.27C152.25 122.61 152.59 123.26 152.55 123.6C149.5 122.58 146.01 122.83 142.83 123.11C139.85 123.07 137.06 123.62 134.3 124.97Z" />
		<path id="path14899" class="shp2" d="M127.69 163.63C128.34 163.41 128.66 163.74 129.16 163.59C130.47 165.83 131.86 167.44 133.56 169.25C133.5 169.59 133.14 169.51 132.94 169.63C131.04 167.51 129.04 165.77 127.69 163.63L127.69 163.63Z" />
		<path id="path14928" class="shp15" d="M126.89 165.87C121.88 168.62 117.51 171.23 112.33 177.65C111.98 177.75 111.41 177.83 110.92 177.93C112.34 176.13 116.41 172.03 118.12 170.62C121.1 168.31 124.26 165.13 128.02 163.55C127.97 163.83 127.3 165.62 126.89 165.87L126.89 165.87Z" />
		<path id="path14953" class="shp15" d="M127.88 163.63C129.24 165.29 132.3 169.21 132.88 169.75C132.53 169.59 132.36 170.17 132 170C130.26 169.2 128.18 167.51 126.81 165.81C126.99 165.43 127.72 164.03 127.88 163.63Z" />
		<path id="path14961" class="shp2" d="M93.31 154.06C93.85 153.74 93.84 153.33 94.13 152.94C97.1 161.97 102.58 171.24 110.69 175.94C110.68 176.56 110.72 177.14 110.75 177.75C106.47 174.52 102.18 170.49 99.44 166.38C97.07 162.36 94.28 158.14 93.31 154.06Z" />
		<path id="path15020" class="shp1" d="M128.38 161.81C132.17 158.16 138.58 153.37 143.63 152.91C143.83 153.16 143.75 153.88 143.94 154.06C140.46 154.83 137.62 156.75 134.81 158.38C132.06 159.65 130.42 162.34 128.25 163.31C128.13 162.79 128.34 162.28 128.38 161.81Z" />
		<path id="path15039" class="shp1" d="M143.78 153.81C144.17 153.32 144.36 152.69 144.47 152.5C146.25 151.27 152.98 148.51 156.69 148.44C158.41 148.4 160.07 148.89 161.88 148.81C162.33 149.75 162.02 148.97 162.38 150.06C157.02 147.87 149.34 151.54 143.78 153.81Z" />
		<path id="path15049" class="shp2" d="M143.82 153.85C144.2 153.86 144.83 153.94 145.22 153.91C145.56 157.7 148.71 162.18 149.02 165.58C147.93 162.11 144.7 157.21 143.82 153.85L143.82 153.85Z" />
		<path id="path15057" class="shp2" d="M162.19 149.94C162.65 150.11 163.25 150.32 163.42 150.38C163.52 151.5 163.68 152.6 163.78 153.65C162.55 154.96 163.48 153.65 163.33 153.65C162.69 152.22 162.57 151.28 162.19 149.94L162.19 149.94Z" />
		<path id="path15065" class="shp15" d="M128.03 163.53C130.9 160.66 134.18 158.73 137.13 156.81C139.36 155.5 141.44 154.31 143.81 153.88C143.81 154.22 143.59 154.15 143.59 154.31C138.51 156.53 132.12 159.77 129.13 163.63C128.69 163.66 128.45 163.65 128.03 163.53L128.03 163.53Z" />
		<path id="path15090" class="shp1" d="M152.59 123.53C152.54 123.49 153.03 122.8 153.24 122.54C156.65 122.37 162.81 125.79 165.91 127.72C166.79 128.27 165.89 128 165.94 128.11C163.65 126.93 159.95 124.51 154.19 123.04C153.6 123.07 153.23 123.58 152.59 123.53L152.59 123.53Z" />
		<path id="path15126" class="shp2" d="M160.37 119.8C162.42 121.32 163.74 124.85 164.84 127.13C164.71 127.22 164.81 127.35 164.53 127.35C164.52 127.33 164.51 127.1 164.44 126.87C162.91 124.11 162.32 122.55 160.24 120.22" />
		<path id="path14588" class="shp2" d="M152.49 123.5C152.98 123.42 153.65 123.06 154.17 123.1C159.29 129.87 162.12 140.68 162.88 149.03C162.41 149.46 162.36 149.84 162.22 149.84C162.04 149.28 162.08 149.53 161.9 148.84C161.88 144.78 160.27 141.31 159.88 139.13C157.72 133.87 156.5 127.09 152.49 123.5L152.49 123.5Z" />
		<path id="path15144" class="shp15" d="M145.69 158.09C146.89 160.51 147.9 162.69 148.94 165.28C147.34 161.98 145.2 158.05 143.59 154.41C143.66 154.2 143.78 154.03 143.78 153.81C144.45 155.15 144.9 156.5 145.69 158.09Z" />
		<path id="path15169" class="shp15" d="M157.56 149.31C158.52 149.32 159.64 149.33 160.78 149.53C155.47 149.77 150.2 151.19 145.09 153.88C144.65 153.86 144.23 153.81 143.78 153.75C147.4 152.15 152.75 149.73 157.56 149.31Z" />
		<path id="path15179" class="shp2" d="M164.44 127.28C164.58 127.31 164.7 127.3 164.84 127.31C165.1 127.69 165.31 128.25 165.44 128.63C165.37 128.68 165.29 128.65 165.22 128.66C165.1 127.93 164.8 127.71 164.44 127.28L164.44 127.28Z" />
		<path id="path15204" class="shp1" d="M176.24 150.47C176.25 150.71 176.71 150.76 176.42 151.13C172.8 148.84 166.7 149.13 162.32 149.85C162.18 149.82 162.69 149.25 162.89 148.92C167.04 148.85 172.82 148.18 176.24 150.47L176.24 150.47Z" />
		<path id="path15223" class="shp2" d="M173.54 141.1C174.05 141.4 174.37 141.55 174.69 142.25C175.57 144.19 176.76 148.56 177.26 150.97C177.08 150.99 176.92 151.12 176.75 151.13C176.11 148.9 175.05 143.6 173.54 141.1L173.54 141.1Z" />
		<path id="path15242" class="shp2" d="M176.5 151.13C176.72 151.1 176.89 151.22 177.08 151.26C177.49 153.36 178.25 155.58 178.49 157.54C178.4 157.62 178.29 157.57 178.18 157.58C177.31 155.63 177.04 152.81 176.5 151.13L176.5 151.13Z" />
		<path id="path15261" class="shp1" d="M177.3 151.04C178.23 151.67 178.62 152.26 179.16 152.83C178.85 152.88 179.3 153.26 179.27 153.43C178.95 153.07 177.45 151.66 177.1 151.31C177.2 151.18 177.45 151.31 177.3 151.04Z" />
		<path id="path15297" class="shp7" d="M130.13 172C134.46 168.93 144.94 165.51 150.63 170.13C156.7 175.05 151.29 184.54 145.13 184.25C140.64 184.04 138.23 178.37 135.63 175.63C134.27 174.19 131.38 174.83 131.13 174.25C130.79 173.5 129.46 172.47 130.13 172Z" />
		<path id="path15311" class="shp7" d="M136.73 236.38C143.51 236.07 144.47 229.16 150.08 228.07C158.83 226.37 161.71 237.96 157.24 241.59C151.33 246.4 140.16 244.04 135.4 239.56C133.2 237.48 134.57 236.48 136.73 236.38Z" />
		<path id="path15368" class="shp1" d="M132.34 82.58C128.77 85.66 129.13 89.91 129.13 93.82C127.84 92 124.07 89.78 122.59 89.04C121.95 83.97 128.91 83.95 132.34 82.58L132.34 82.58Z" />
		<path id="path15416" class="shp7" d="M137.13 94.78C138.5 96.66 140.06 98.52 139.65 100.79C136.19 98.67 132.46 97.1 129.55 94.85C132.87 92.3 134.4 94.16 137.13 94.78L137.13 94.78Z" />
		<path id="path15435" class="shp13" d="M132.84 94.38C132.91 96.04 136.02 97.68 137.66 98.23C138.21 98.6 138.68 98.61 139.34 98.67C139.41 99.31 139.11 100.09 138.94 100.7C135.49 99.91 132.09 97.57 129.92 95.27C130.94 94.44 131.71 94.23 132.84 94.38Z" />
		<path id="path15443" class="shp5" d="M137.04 95.22C137.48 95.63 138.1 96.21 137.17 96.46C136.25 96.71 135.73 95.86 135.54 94.91C135.52 94.85 136.46 94.69 137.04 95.22Z" />
		<path id="path15462" class="shp15" d="M171.5 149.56C167.65 149.79 165.81 149.89 163.31 150.44C162.82 150.17 162.19 149.94 162.25 149.81C166.78 149.26 168.38 149.18 171.5 149.56Z" />
		<path id="path15555" class="shp2" d="M126.63 89.88C124.94 89.63 123.7 89.23 122.25 88.75C122.43 85.03 125.49 84.09 128.5 82.94C126.11 84.75 126.42 87.54 126.63 89.88Z" />
		<path id="path15930" class="shp13" d="M156.83 232.44C157.81 233.97 158.76 237.84 158.47 240.89C155.73 243.47 151.83 243.89 147.6 243.63C142.49 242.96 137.82 241.74 135.05 237.09C140.32 238.85 143.41 236.7 149.03 232.85C150.57 231.79 153.57 230.54 156.83 232.44L156.83 232.44Z" />
		<path id="path15956" class="shp14" d="M158.87 241.24C153.02 247.09 139.95 243.59 135.76 237.48C137.3 238.32 139.58 239.26 141.69 239.21C145.22 239.13 147.6 236.94 151.83 234.42C153.12 233.65 156.12 233.29 157.46 235.38C158.48 237.15 159.22 238.79 158.87 241.24Z" />
		<path id="path15994" class="shp5" d="M144.96 170.06C146.72 170.07 147.92 171.32 148.46 172.34C149 173.37 146.9 174.13 146.5 173.62C145.42 172.23 144.8 171.53 144.03 170.79C143.54 170.33 144.28 170.06 144.96 170.06Z" />
		<path id="path16033" class="shp13" d="M145.44 184.31C139.14 183.68 135.73 174.29 129.81 173.13C130.64 171.28 130.11 171.4 132.68 171.18C133.45 171.82 134.94 171.4 136.5 171.44C141.69 171.56 144.1 176.35 148.63 178.19C149.78 178.66 150.77 178.06 151.63 177.06C150.6 180.28 149.77 184.75 145.44 184.31Z" />
		<path id="path15996" class="shp14" d="M132.21 171.4C131.43 172.21 132.92 172.42 135.06 172.44C138.96 172.47 142.96 176.78 145.25 179.38C146.49 180.78 148.92 181.3 150.83 180.3C149.41 182.35 147.32 185.18 145.25 184.69C139.94 183.43 138.1 176.87 133 175.25C127.68 173.55 128.06 172.26 132.21 171.4Z" />
		<path id="path16071" class="shp6" d="M235.4 230C230.07 234.61 226.42 232.84 225.65 226.94C227.09 221 233.33 220.88 237.84 223.03C239.44 225.01 239.5 227.96 239.79 230.12C237.84 230.86 236.3 229.89 235.16 229.51" />
		<path id="path16052" class="shp16" d="M227.23 226.21C229.45 222.17 232.2 222.6 236.26 223.89C237.43 225.46 237.81 226.92 238.45 228.53C236.39 228.76 234.64 227.74 233.76 227.25C232.75 233.93 224.8 230.63 227.23 226.21L227.23 226.21Z" />
		<path id="path16079" class="shp6" d="M255.97 216.49C258.25 218.02 258.88 219.72 256.94 222.68C257.29 224.14 257.68 225.24 257.73 226.75C257.54 226.54 256.43 225.42 255.7 224.62C250.61 221.57 256.24 221.1 256.23 216.85" />
		<path id="path16135" class="shp6" d="M187.24 216.39C187.24 216.39 188.98 214.36 189.45 211.62C189.79 209.61 189.23 203.49 188.79 200.74C191.37 201.91 194.19 203.56 197.75 204.12C197.93 203.82 198.96 201.2 199.01 198.74C199.04 197.28 192.02 189.1 188.78 184.79C184.82 179.58 157.89 144.28 171.09 161.84C173.38 161.47 177.82 158.58 180.35 163.28C182.42 167.1 188.89 180.46 193.78 186.7C196.99 190.79 200.81 198.26 200.99 199.02C201.59 201.49 202.21 204.28 203 205C212.58 206.41 228.33 211.88 241.31 209C242.51 208.16 243.59 202.5 243.65 200.77C243.66 200.48 243.55 197.69 243 196.05C244.08 197.52 244.71 197.49 244.94 197.22C245.73 198.73 245.29 199.24 245.83 201.83C245.63 204.68 244.3 213.03 241.44 214.18C232.7 217.34 214.44 214.96 205.79 212.28C201.27 215.03 191.23 218.39 187.24 216.39L187.24 216.39Z" />
		<path id="path16116" class="shp16" d="M244.62 199.49C245.67 198.06 244.37 201.33 245.56 199.88C245.52 204.3 243.72 211.43 242.08 212.48C231.36 214.25 213.83 211.65 201.52 207.73C201.01 208.05 200.56 209.19 199.27 209.11C196.61 208.93 192.12 206.96 189.02 203.52C188.85 202.3 188.98 201.36 189.26 199.96C192.94 201.74 194.37 204.69 198.4 205.36C198.73 204.51 199.44 203.5 199.4 202.36C199.94 203.2 200.35 203.92 201.02 204.86C211.81 208.04 223.2 212.27 241.69 211.19C243.2 210.09 244.21 203.32 244.62 199.49L244.62 199.49Z" />
		<path id="path16166" class="shp6" d="M211.51 154.36C216.55 157.8 218.64 166.95 221.76 171.15C227.59 178.99 234.64 185.51 240.67 191.83C241.53 192.73 242.84 194.29 243.38 195.66C243.83 196.83 243.57 197.82 243.86 198.55C241.23 192.39 229.23 182.73 222.47 175.39C218.63 171.23 214.33 163.04 211.15 158.95C209.21 156.44 206.59 155.89 204.88 154.8C207.62 152.12 209.12 152.72 211.51 154.36L211.51 154.36Z" />
		<path id="path16174" class="shp6" d="M194.01 158.24C194.7 157.18 195.86 157.5 196.66 157.18C199.8 159.04 201.49 162.39 203.37 165.14C199.68 163.19 197.26 160.59 194.01 158.24L194.01 158.24Z" />
		<path id="path16182" class="shp6" d="M156.71 156.02C154.56 160.34 164.25 170.15 160.66 175.58C159.89 176.75 157.7 177.14 157.66 176.02C157.47 170.44 153.72 167.75 150.53 166.06C151.69 163.86 153.91 159.04 156.71 156.02Z" />
		<path id="path16201" class="shp16" d="M153.88 159.66C154.3 163.43 161.93 168.75 159.18 174.42C157.58 174.56 158.54 173.91 158.21 173C157.11 170.03 156.8 169.1 152.9 166.11C152.5 164.05 153.31 160.51 153.88 159.66L153.88 159.66Z" />
		<path id="path16391" class="shp17" d="M111.4 292.71C111.35 294 110.51 296.52 108.35 296.65C107.13 296.73 106.45 296.67 104.94 294.8C103.16 290.52 104.96 286.77 107.54 284.16C109.04 285.99 111.5 289.62 111.4 292.71Z" />
		<path id="path16372" class="shp18" d="M104.82 294.56C103.71 291.22 104.96 287.43 107.63 284.16C107.01 287.59 110.47 292.55 108.29 295.87C107.06 295.81 105.33 295.16 104.82 294.56Z" />
		<path id="path16448" class="shp17" d="M125.97 301.01C123.15 301.22 120.75 300.54 118.57 299.28C117.63 294.56 120.86 290.63 123.23 287.66C125.66 291.35 126.16 296.7 125.97 301.01Z" />
		<path id="path16429" class="shp18" d="M123.23 301.01C121.24 300.96 118.97 299.13 118.03 297.73C118.14 294.04 121.42 289.17 123.13 287.64C124.04 291.47 124.26 297.88 123.23 301.01L123.23 301.01Z" />
		<path id="path16458" class="shp5" d="M126.45 292.65C126.8 292.85 127.22 294.77 127.47 295.87C127.62 296.55 126.8 296.83 126.75 296.47C126.53 294.94 126.42 292.9 126.45 292.65L126.45 292.65Z" />
		<path id="path16495" class="shp3" d="M144.5 296.63C142.64 298.88 139.73 298.73 136.75 298.5C134.05 294.55 136.73 289.15 137.19 284.69C141.55 286.14 144.98 291.89 144.5 296.63Z" />
		<path id="path16581" class="shp17" d="M140.71 298.3C138.68 298.76 135.25 300.05 134.74 297.81C133.82 292.83 136.01 288.31 137.08 284.73C140.84 288.37 140.71 293.6 140.71 298.3Z" />
		<path id="path16532" class="shp18" d="M138.98 298.56C138.88 299.51 136.63 299.12 135.45 298.07C133.53 293.3 137.02 289.9 137.33 285.17C138.69 288.82 139.74 291.91 138.98 298.56L138.98 298.56Z" />
		<path id="path16692" class="shp3" d="M147.96 280.66C152.47 282.33 154.39 285.59 154.76 290.21C152.71 292.7 150.88 292.8 148.4 291.98C148.07 289.31 146.72 287.14 146.72 284.46C147.1 282.94 147.58 281.61 147.96 280.66Z" />
		<path id="path17247" class="shp1" d="M148.4 291C147.26 291.11 145.84 292.25 144.51 291.36C144.13 287.17 142.89 284.8 142.21 280.57C140.07 278.29 137.94 275.65 136.29 272.71C140.25 276.37 143.62 276.91 146.24 280.58C148.37 283.57 148.87 286.52 148.4 291L148.4 291Z" />
		<path id="path16673" class="shp17" d="M150.73 292.62C149.29 293.31 148.81 292.31 147.96 292.06C147.22 288.57 145.83 284.59 147.21 282.73C148.32 283.16 150.56 288.88 150.73 292.62Z" />
		<path id="path16648" class="shp18" d="M147.08 283.08C148.87 286.28 149.59 288.35 149.59 292.47C148.49 292.55 149.14 292.47 148.13 292.33C146.68 290.12 147.01 287.29 146.89 284.64C146.76 283.49 146.73 283.84 147.08 283.08Z" />
		<path id="path16711" class="shp5" d="M152.44 288.19C152.5 289.02 151.17 289.45 151.19 288.69C151.21 287.83 150 285.13 150.63 285C151.52 286.01 152.31 286.57 152.44 288.19Z" />
		<path id="path16794" class="shp16" d="M193.3 203.68C184.77 200.88 176.05 182.68 160.42 185.82C156.86 198.27 155.48 209.64 165.19 222.94C162.53 221.66 152.29 214.73 152.29 204.74C152.29 197.13 157.17 191.29 157.94 183.7C166.85 177.76 175.14 182.45 181.56 189.17C186.22 194.02 189.47 199.95 193.3 203.68L193.3 203.68Z" />
		<path id="path17134" class="shp7" d="M136.25 168.38C134.01 164.12 135.26 162.14 137.88 160.25C143.69 159.64 145.19 161.15 146.63 165.88C146.3 166.45 145.84 166.83 145.5 167.25C142.01 166.87 139.36 167.81 136.25 168.38Z" />
		<path id="path17142" class="shp7" d="M152.25 163.63C150.31 160.56 150.28 157.56 151.55 155.58C152.9 153.48 155.72 152.53 159.25 153.88C154.82 156.54 154.21 159.51 152.25 163.63Z" />
		<path id="path17144" class="shp7" d="M167.75 154.63C171.77 150.79 175.89 153.78 177.63 157.63C175.6 157.91 174.18 159.61 172.88 160.63C170.53 159.41 169.13 156.53 167.75 154.63Z" />
		<path id="path17224" class="shp13" d="M137.31 161.25C137.22 164.64 141.11 166.45 143.38 167.81C141.33 167.96 137.87 168.21 136.44 169C134.84 166.19 135.35 163.6 137.31 161.25Z" />
		<path id="path17169" class="shp14" d="M136.69 162.38C137.75 166.62 140.97 167.62 141.81 167.63C139.42 167.29 138.39 168.3 136.25 168.69C134.99 166.17 135.54 164.05 136.69 162.38Z" />
		<path id="path17206" class="shp13" d="M154.44 157.88C153.59 159.71 153.14 161.87 152.56 163.31C149.66 160.18 150.64 156.97 152.28 154.94C152.57 156.44 153.44 157.19 154.44 157.88Z" />
		<path id="path17177" class="shp14" d="M153.88 158.88C152.94 160.3 152.75 161.8 152.75 163.44C148.91 160.98 149.83 157.14 151.94 155.53C151.58 156.3 152.73 158.71 153.88 158.88Z" />
		<path id="path17196" class="shp13" d="M170.25 153.81C170.43 156.22 171.99 158.21 173.69 159.44C173.18 159.95 172.52 160.41 172 160.81C170.85 159 169.28 156.91 168.19 155.31C168.61 154.06 169.33 154.15 170.25 153.81Z" />
		<path id="path17232" class="shp5" d="M140.27 162.75C140.02 162.43 140.93 161.84 141.5 162.22C141.97 162.53 144.19 162.97 142.92 163.9C142.36 164.3 141.43 164.24 140.27 162.75L140.27 162.75Z" />
		<path id="path17234" class="shp5" d="M173.68 155.06C174.48 155.51 174.87 156.16 174.91 156.83C174.97 157.54 173.95 157.81 173.15 156.48C172.83 155.95 172.53 154.42 173.68 155.06L173.68 155.06Z" />
		<path id="path17281" class="shp3" d="M242.27 278.1C240.61 280.11 238.85 280.49 235.64 279.6C234.11 276.69 233.36 272.07 233.96 268.04C237.43 268.36 241.52 273.16 242.27 278.1Z" />
		<path id="path17293" class="shp3" d="M253.94 274.69C252.75 277.66 248.92 278.16 246.19 276.06C244.35 273.15 243.85 268.63 244.25 264.63C248.75 264.82 254.01 269.71 253.94 274.69Z" />
		<path id="path17358" class="shp3" d="M255.04 267.05C254.87 265.17 254.37 263.35 253.93 261.19C258.55 261.6 261.66 263.79 263.55 268.49C261.72 273.29 254.56 271.93 255.04 267.05L255.04 267.05Z" />
		<path id="path17468" class="shp17" d="M248.94 276.11C247.66 276.01 246.84 276.14 245.76 275.71C243.51 272.19 244.38 268.5 244.25 264.75C247.76 269.75 247.94 271.93 248.94 276.11L248.94 276.11Z" />
		<path id="path17500" class="shp17" d="M259.5 271.29C258.15 271.32 256.76 271.29 255.92 270.72C254.5 267.94 254.76 264.33 254.02 261.55C257.33 263.76 257.99 268.34 259.5 271.29Z" />
		<path id="path17460" class="shp17" d="M238.86 277.79C237.36 278.34 236.3 278.21 234.93 276.95C233.38 273.74 233.66 271 234.44 268.11C237.06 271.17 238.7 274.12 238.86 277.79Z" />
		<path id="path17508" class="shp18" d="M237.49 278.1C236.38 278.23 235.68 277.64 234.8 277.26C234.44 274.44 232.71 270.23 234.31 268.02C235.69 271.39 238.15 274.32 237.49 278.1Z" />
		<path id="path17551" class="shp18" d="M247.44 276.29C246.5 276.31 246.42 276.01 245.89 275.45C244.96 272.68 243.14 268.59 244.54 265.77C246 268.94 247.28 272.62 247.44 276.29Z" />
		<path id="path17559" class="shp18" d="M258 271.51C256.74 271.59 255.77 270.62 255.08 269.97C253.99 267.93 254.59 264.13 254.82 262.61C256.34 265.46 256.36 268.78 258 271.51Z" />
		<path id="path17567" class="shp5" d="M248.23 267.76C250.04 268.22 251.04 270.05 251.72 271.56C252.01 272.19 250.65 272.55 250.49 272.09C249.87 270.35 249.29 268.95 248.23 267.76Z" />
		<path id="path17569" class="shp5" d="M258.84 264.4C259.99 265.1 260.5 266.01 261.05 267.09C260.73 268.11 260.54 267.73 259.81 267.36C259.62 266.44 259.14 265.49 258.79 264.97C258.3 264.58 258.83 264.5 258.84 264.4L258.84 264.4Z" />
		<path id="path17633" class="shp1" d="M255.7 270.85C255 270.96 253.9 271.38 253.58 271.47C253.97 265.79 246.97 260.89 243.68 257.99C246.53 258.56 250.18 259.86 251.8 261.14C255.38 263.97 254.96 267.75 255.7 270.85Z" />
		<path id="path17641" class="shp2" d="M232.45 257.59C233.9 257.94 234.91 258.29 236.26 259.01C238.01 261.44 240.86 262.56 243.77 264.49C243.77 267.79 244.14 271.67 245.36 274.83C243.56 274.67 242.46 274.56 241.03 273.59C240.37 271.17 239.87 268.77 237.93 266.43C235.77 263.8 232.6 261.77 232.45 257.59L232.45 257.59Z" />
		<path id="path17670" class="shp3" d="M262.44 262.63C261.84 263.35 261.74 263.99 260.5 264.06C259.65 263.43 258.82 262.63 257.56 262.25C257.24 261.3 256.87 260.43 256.12 259.69C256.3 258.43 256.26 257.3 255.94 256C259 256.83 261.14 259.73 262.44 262.63Z" />
		<path id="path17719" class="shp17" d="M258.94 262.53C258.35 262.17 258.16 262.2 257.56 262C257.57 261.13 257.15 260.56 256.66 260C256.62 259.4 256.24 259.11 256.39 258.53C257.61 259.86 258.33 260.67 258.94 262.53Z" />
		<path id="path17738" class="shp5" d="M260.5 261.19C260.56 261.34 260.3 261.91 260 261.53C259.53 260.94 258.73 259.63 257.97 258.88C258.84 259.07 260.19 260.31 260.5 261.19Z" />
		<path id="path17741" class="shp3" d="M20.95 183.92C17.99 184.79 15.83 183.09 15.48 179.98C17.95 177.86 20.94 175.86 23.44 173.66C24.21 176.92 23.81 181.58 20.95 183.92L20.95 183.92Z" />
		<path id="path17785" class="shp3" d="M8.73 176.69C10.25 173.91 12.99 172.8 15.56 171.41C15.68 174.25 15.6 177.81 12.97 179.5C10.9 179.41 9.48 179.03 8.73 176.69Z" />
		<path id="path17904" class="shp17" d="M18.38 184.45C16.12 183.88 15.25 182.1 14.93 180.16C16.91 177.33 21.52 175.41 23.06 174.24C22.34 177.28 20.83 182.28 18.38 184.45L18.38 184.45Z" />
		<path id="path17859" class="shp18" d="M16.39 183.13C15.7 182.82 14.95 181.53 15.28 180.3C17.11 177.95 20.48 176.35 22.58 174.51C21.26 177.21 19.09 181.5 16.39 183.13Z" />
		<path id="path17929" class="shp17" d="M14.93 172.12C14.12 174.47 12.82 177.86 11.13 178.66C11.01 178.17 9.74 177.47 9.58 177.29C11.86 176.14 13.47 173.49 14.93 172.12Z" />
		<path id="path17885" class="shp18" d="M9.67 177.51C9.26 176.91 9.11 175.65 9.14 174.99C10.46 173.26 13.31 173.31 14.58 172.7C13.28 174.48 11.84 176.99 9.67 177.51Z" />
		<path id="path17956" class="shp3" d="M25.85 182.51C27.42 180.54 30.1 178.15 30.86 175.57C32.12 177.17 33.48 180.89 33.32 183.57C31.58 186.11 28.49 185.21 25.85 182.51L25.85 182.51Z" />
		<path id="path18041" class="shp17" d="M29.07 184.72C27.9 184.98 26.26 183.25 25.71 182.82C27.61 181.02 29.88 177.89 30.73 176.1C31.23 178.22 30.8 183.29 29.07 184.72L29.07 184.72Z" />
		<path id="path17993" class="shp18" d="M26.91 183.3C26.4 182.98 26 182.41 25.71 182.02C27.7 180.59 29.48 177.56 30.73 176.08C30.52 179.06 28.87 182.06 26.91 183.3Z" />
		<path id="path18083" class="shp3" d="M38.06 179.06C37.06 179.7 35.64 180.84 34.12 180.94C33.97 180.33 33.62 179.11 33.5 178.25C34.61 177 35.49 175.77 36.12 173.94C37.35 175.42 38.41 176.86 38.06 179.06Z" />
		<path id="path18102" class="shp17" d="M34.51 179.94C33.95 179.46 33.71 179.06 33.36 178.53C33.55 176.93 34.73 175.85 35.79 175.24C36.07 176.69 35.36 179.03 34.51 179.94L34.51 179.94Z" />
		<path id="path18905" class="shp5" d="M105.48 11.75C104.11 13.02 101.86 12.35 102.67 10.1C103.65 7.35 104.49 6.71 106.11 8.15C107.1 9.04 107.42 9.95 105.48 11.75Z" />
	</g>
	<g id="layer1">
		<path id="path9373" fill-rule="evenodd" class="shp19" d="M117.66 10.27C124.42 7.98 131.3 7.79 138.59 7.62C141.68 8.4 139.56 12.32 137.25 12.37C108.73 23.78 103.63 52.49 114.54 78.48C116.21 82.45 119.7 85.84 123.21 89.49C121.58 89.35 121.26 89.34 120.22 88.84C117 85.96 113.67 82.74 111.67 78.55C104.29 63.06 104.47 45.37 112.53 31.18C117.17 23.02 124.74 15.97 134.53 11.37C137.75 10.37 135.76 9.62 133.84 9.65C127.43 10.24 122.03 11.45 117 13.31C113.68 20.36 101.28 27.63 96.38 26.41C77.09 47.71 57.39 73.48 54.64 110.68C54.1 110.4 52.99 109.95 51.9 109.98C54.48 79.81 70.83 45.99 94.21 25.8C91.51 18.46 91.33 7.05 97.11 3.11C104.27 -1.76 111.92 4.64 117.66 10.27ZM108.07 19.19C110.75 17.16 113.89 15.35 115.5 11.9C111.66 7.39 103.58 1.39 98.09 5.03C95.63 6.66 91.85 17.19 96.25 23.71C100.33 25.16 104.83 21.66 108.07 19.19Z" />
		<path id="path9375" class="shp19" d="M128.29 36.86C126.98 40.58 118.02 44.77 111.18 38.95C111.64 38.54 110.75 38.17 110.96 36.62C114.63 39.06 121.86 40.46 125.68 36.68C128.19 34.2 127.75 25.39 122.44 19.99C123.03 19.58 124.01 19.2 124.88 19.11C128.65 23.58 131.08 28.95 128.29 36.86L128.29 36.86Z" />
		<path id="path9383" class="shp19" d="M168.84 153.84C176.37 167.85 183.58 176.72 192.28 187.81C177 170.56 175.53 170.77 165.13 155.12C157.03 153.42 155.77 158.48 154.34 160.68C153.65 161.76 153.56 163.55 153.66 165.25C154.26 165.71 155.48 166.19 155.77 166.84C156.21 167.81 155.81 168.71 154.49 167.4C151.97 164.9 148.04 166.09 147.03 168.37C146.23 168.68 144.77 167.39 144.25 167.18C146.85 164.79 149.72 163.5 151.81 164.25C152.24 158.4 156.54 154.2 158.78 153.37C160.31 152.81 162 152.53 163.56 152.5C166.16 152.44 168.41 153.03 168.84 153.84Z" />
		<path id="path9387" fill-rule="evenodd" class="shp19" d="M213.09 148.9C220.91 148.15 223.11 155.97 225.5 160.79C229.41 168.7 232.91 174.34 243.66 187.52C246.41 190.89 246.74 195.39 245.74 197.31C245.97 199.32 247 200.86 247.93 202.3C250.3 205.96 257.93 211.47 259.07 218.04C259.37 219.74 256.43 222.04 259.07 223.48C261.56 227.98 259.81 239.45 257.06 242.86C253.86 246.83 247.67 249.46 241.56 250.26C239.86 257.33 228.09 257.57 221.56 255.87C213.6 253.79 202.97 250.02 192.41 249.9C182.54 252.15 165.01 256.97 155.84 247.87C152.47 247.27 150.33 247.72 147.95 245.05C142.87 244.62 136.98 242.01 133.5 238.71C132.25 237.54 132.75 236.37 133.41 236.25C137.36 235.53 140.42 233.32 143.06 231.18C136.61 224.38 129.54 216.44 130.6 203.63C131.15 197.07 137.8 186.9 140.94 186.68C141.02 187.08 141.73 187.47 141.81 187.87C128.01 198.6 132.02 215.53 142.68 227.68C143.58 228.71 143.31 230.11 143.82 230.79C145.1 228.99 147.09 227.43 149.97 226.53C154.27 225.17 156.64 228.1 158.66 231.46C161.04 235.43 160.64 241.2 157.19 242.78C156.62 243.13 152.91 244.96 151.17 244.61C151.76 245.2 153.39 245.97 157.09 245.31C158.12 245.31 158.94 244.87 159.79 244.24C161.01 243.32 161.84 242.59 163.34 241.78C164.47 242.73 160.8 245.48 158.69 246.43C167.78 252.15 179.15 250.68 191.09 247.4C197.68 245.05 214.5 252.71 224.72 253.84C232.89 254.74 238.24 252.67 240.32 248.29C243.63 247.35 252.57 245.94 255.22 241.04C257.01 237.74 259.24 232.89 258.22 228.33C257.66 225.83 256.11 223.7 254.85 221.79C255.17 220.86 257.17 219.36 256.29 217.48C253.86 211.8 246.38 205.85 245.27 199.82C245.2 202.21 244.38 202.63 244.31 199.28C244.25 196.62 243.79 195.73 243.79 194.29C243.8 189.93 240.33 188.47 239.25 187.04C232.33 177.89 222.84 164.38 216.94 151.22C215.5 151.06 213.97 150.2 212.63 150.72C210.21 151.64 208.32 153.35 205.97 155.06C205.49 155.08 204.23 154.83 203.75 154.87C205.87 151.83 208.37 149.36 213.09 148.9ZM144.5 232.75C142.26 234.89 140.57 236.94 136.95 237.18C136.68 237.2 135.72 237.54 136.36 238.02C139.88 240.72 143.85 242.66 149.25 242.56C152.01 242.51 154.43 241.62 156.88 240.48C158.89 236.83 156.16 228.1 150.49 228.35C148.46 229.11 146.88 230.47 144.5 232.75Z" />
		<path id="path9389" class="shp19" d="M166.3 225.04C154.04 213.54 152.52 204.11 158.86 185.25C162.68 183.19 166.44 182.92 169.69 183.89C184.65 188.37 180.94 196.24 192.44 202.95C181.96 199 179.93 189.97 170.95 187.82C167.59 187.01 165.44 186.11 160.98 187.47C156.21 196.4 156.93 213.22 164.13 220.82C166.19 223 167.15 224.84 166.3 225.04L166.3 225.04Z" />
		<path id="path9405" fill-rule="evenodd" class="shp19" d="M151.01 168.62C156.42 170.83 155.13 183.35 146.15 185.62C141.78 186.72 138.24 177.92 130.16 175.32C127.12 174.34 129.1 170.74 130.59 169.96C136.26 166.97 144.33 165.89 151.01 168.62ZM130.86 172.75C130.47 173.09 131.05 173.42 131.9 173.47C137.84 173.79 139.75 182.28 145.66 183.28C148.79 183.8 154.22 176.09 149.52 170.6C146.56 169.29 143.07 168.73 139.25 169.31C136.28 169.75 132.93 170.98 130.86 172.75Z" />
		<path id="path9409" class="shp19" d="M232.95 225.49C231.27 225.69 232.94 228.5 231.14 229.29C230.69 229.14 228.4 229.71 228.12 228.27C228.9 227.63 227.78 223.09 232.58 223.97C234.74 224.54 235.82 225.16 236.87 227.61C235.06 226.7 234.17 225.84 232.95 225.49Z" />
		<path id="path17812" class="shp16" d="M190.03 221.88C184.85 222.42 179.41 223.25 174.83 224.45C177.02 222.26 179.56 221.32 181.94 220.82C186.04 219.96 187.47 220.17 190.03 221.88Z" />
		<path id="path9413" class="shp19" d="M165.61 222.69C172.06 225.05 177.78 221.67 182.58 221.05C184.23 220.84 185.65 221.37 185.68 222.13C183.1 222.31 180.46 222.42 178.14 223.44C174.2 225.17 170.45 225.36 166.44 225.19C165.9 224.69 166.03 223.43 165.61 222.69L165.61 222.69Z" />
		<path id="path9415" class="shp19" d="M122.97 89.73C122.54 89.28 121.77 89.42 121.25 89.16C121.29 87.98 122.78 85.5 124.58 83.73C128.81 81.65 133.57 78.79 140.6 80.97C146.08 82.66 154.08 86.93 155.92 97.85C156.36 105.13 153.11 103.91 152.57 108.14C151.85 108.3 151.13 108.65 150.25 108.67C150.24 107.15 149.99 105.47 152.02 103.34C154.28 100.95 154.2 96.96 153.13 94.47C149.81 86.78 140.7 80.65 129.12 84.11C125.07 85.32 123.53 86.77 122.97 89.73L122.97 89.73Z" />
		<path id="path9427" class="shp19" d="M172.01 159.99C176.08 158.45 179.8 156.27 182.42 155.33C185.98 154.05 190.05 154.42 193.01 156.16C195.55 157.66 197.08 160.35 198.87 162.03C197.59 161.57 196.83 160.39 195.55 159.64C192.09 157.6 189.66 157.1 185.35 157.22C180.94 157.34 175.79 160.92 173.12 162.47C172.57 161.22 172.11 160.77 172.01 159.99L172.01 159.99Z" />
		<path id="path9429" class="shp19" d="M193.58 157.96C196.69 156.09 200.67 153.69 205.08 154.25C206.87 154.48 208.63 156.04 210.07 157.7C209.42 157.38 207.52 157.08 206.15 156.98C202.06 156.68 198.65 156.57 194.76 158.38C194.32 158.22 194.04 158.12 193.58 157.96Z" />
		<path id="path9433" fill-rule="evenodd" class="shp19" d="M115.79 194.78C123.65 194.59 132.6 201.42 132.13 208.64C125.68 220.31 103.48 218.08 94.48 211.65C92.75 210.42 93.74 206.86 95.63 206.72C104.37 206.02 105.91 201.17 110.47 196.65C111.7 195.43 113.98 194.82 115.79 194.78ZM118.06 197.67C116.25 197.67 113.78 197.14 112.23 199C108.85 203.03 105.85 208.12 98.71 208.13C98.24 208.13 96.77 208.59 97.36 209.34C101.78 214.89 121.4 216.85 128.94 207.61C129.97 203.85 123.5 197.68 118.06 197.67Z" />
		<path id="path9435" fill-rule="evenodd" class="shp19" d="M86.3 172.33C89.79 172.24 95.15 174.14 98.52 177.44C103 181.83 103.11 186.74 101.25 188.67C92.54 197.71 75.57 195.57 62.96 187.82C59.68 185.81 60.52 180.85 62.27 180.83C71.95 180.74 77.08 178.43 83.54 173.1C84.14 172.6 85.13 172.36 86.3 172.33ZM94.29 176.65C91.11 173.87 85.59 173.96 84.43 174.78C79.05 178.57 72.87 183.63 63.95 182.59C62.65 182.44 62.88 185.14 65.84 186.67C74.56 191.17 91.16 196.24 99.6 186.5C101.57 184.23 97.9 179.81 94.29 176.65Z" />
		<path id="path9437" fill-rule="evenodd" class="shp19" d="M75.1 138.97C79.88 138.73 81.81 142.9 84.09 147.56C85.48 152.05 84.66 158.14 81.09 160.37C73.32 165.23 61.51 160.07 54.31 152.06C49 146.14 52.74 141.45 54.35 142.25C61.9 146.01 69.66 139.23 75.1 138.97ZM59.21 145.59C57.76 145.59 55.25 144.18 54 145.06C52.64 146.01 55.05 149.48 56.46 150.64C62.06 155.24 69.35 160.29 79.17 158.07C81.83 157.47 83.28 151.99 81.79 147.48C80.51 143.63 76.43 139.99 74.56 140.9C69.69 143.28 64.88 145.63 59.21 145.59Z" />
		<path id="path9439" fill-rule="evenodd" class="shp19" d="M74.15 106.14C80.05 107.61 83.55 123.64 77.2 125.73C66.44 129.27 57.94 124.12 51.18 116.69C48.5 113.74 50.28 108.79 52.33 109.32C60.28 111.37 66.14 106.19 71.76 105.93C72.56 105.89 73.36 105.94 74.15 106.14ZM71.94 107.97C66.42 108.06 59.83 113.46 53.1 111.13C51.78 110.68 50.62 112.28 52.64 114.52C57.46 119.84 65.98 125.35 75.25 123.74C77.7 123.32 78.71 119.07 77.52 114.73C76.7 111.78 75.25 107.92 71.94 107.97Z" />
		<path id="path9459" fill-rule="evenodd" class="shp19" d="M116.04 153.44C118.38 156.62 119.21 163.55 116.25 166.5C113.58 169.15 102.79 167.79 100.34 163.81C97.4 159.01 100.63 149.79 103.22 148.4C108.25 145.7 112.66 148.86 116.04 153.44ZM105.22 150.37C100.95 152.14 101.18 160.1 102.2 162.47C103.53 165.61 110.72 166.11 114 164.72C117.42 163.26 115.3 157.14 114.03 154.69C111.7 150.2 106.81 149.71 105.22 150.37L105.22 150.37Z" />
		<path id="path9461" fill-rule="evenodd" class="shp19" d="M104.81 128.22C105.48 132.76 105.05 137.53 101.72 138.75C96.64 140.61 90.6 137.39 90.03 133.34C88.95 125.64 92.68 120.28 96.13 119.65C100.65 118.82 104.22 124.16 104.81 128.22ZM92.06 130.97C92.15 135.03 96.28 137.56 100.53 136.56C103.97 135.75 103.61 130.95 102.91 128.59C101.66 124.41 99.69 121.16 96.59 122.18C94.27 122.95 91.93 124.74 92.06 130.97Z" />
		<path id="path9463" fill-rule="evenodd" class="shp19" d="M123 173.62C125.74 172.46 132.57 173.57 134.55 176.13C136.34 178.45 139.73 186.66 137.62 189.26C135.12 192.34 126.4 188.92 124.61 186.89C120.19 181.87 121.21 174.38 123 173.62ZM126.25 185.09C128.41 187.7 133.67 189.1 135.24 187.67C138.28 184.92 134.5 179.88 131.94 178.15C129.14 176.25 126.02 174.76 124.5 176.26C123.05 177.68 123.87 182.22 126.25 185.09Z" />
		<path id="path9465" fill-rule="evenodd" class="shp19" d="M90.72 92.61C93.05 92.6 96.09 96.19 97.2 100.79C98.01 104.14 96.68 110.4 94.04 111.29C90.57 112.47 86.64 108.62 85.82 103.38C85.12 98.95 87.63 92.63 90.72 92.61ZM87.47 102.47C87.92 105.92 91.35 109.14 93.13 108.81C95.26 108.41 95.37 104.15 95.34 101.62C95.32 98.51 92.43 95.11 90.59 95.09C88.7 95.07 87.15 99.99 87.47 102.47Z" />
		<path id="path9467" fill-rule="evenodd" class="shp19" d="M103.33 89.5C106.67 88.48 111.32 90 113.28 93.55C114.47 95.7 113.46 102.1 111.53 102.8C106.98 104.44 103.39 99.64 102.1 95.53C101.61 93.95 101.16 90.15 103.33 89.5ZM110.85 93.36C109.73 91.92 104.92 89.23 104 91.57C103.04 94 107.26 102.07 110.5 101.22C112.18 100.77 112.55 95.54 110.85 93.36Z" />
		<path id="path9469" fill-rule="evenodd" class="shp19" d="M122.14 113.91C124.51 117.87 124.3 123.2 121.97 124.53C117.64 126.99 112.5 124.15 110.41 120.87C108.49 117.87 108.12 110.15 112.94 108.86C115.93 108.06 119.84 110.08 122.14 113.91ZM112.97 111.25C110.65 112.38 110.67 116.86 112.01 119.56C113.7 122.99 118.36 124.44 120.75 122.84C122.61 121.59 121.76 117.15 120.28 115.41C118.75 113.6 116.17 109.68 112.97 111.25Z" />
		<path id="path9471" fill-rule="evenodd" class="shp19" d="M135.44 141.09C138.18 147.02 138.46 152.89 134.28 154.18C129.94 155.53 123.66 152.56 121.44 148.93C118.46 144.07 120.87 135.62 124.66 134.22C129.04 132.59 133.6 137.12 135.44 141.09ZM124.66 137.09C121.77 139.16 121.23 143.37 123.12 147.4C124.33 149.98 130.44 153.93 133.78 151.65C135.95 150.18 134.61 145.11 133.16 141.97C131.8 139.03 128.08 134.64 124.66 137.09Z" />
		<path id="path9473" fill-rule="evenodd" class="shp19" d="M140.11 107.46C142.66 110.43 142.46 119.24 137.91 118.97C132.77 118.65 128.88 115.41 127.44 108.47C127 106.34 129.2 105.16 131.97 105.03C134.74 104.9 138.32 105.38 140.11 107.46ZM130.31 107.41C128.63 108.3 130.59 112.34 132.2 114.07C134.37 116.4 137.12 118.48 138.69 116.87C140.87 114.63 139.97 109.94 138.56 108.54C136.34 106.36 132.84 106.08 130.31 107.41Z" />
		<path id="path9475" fill-rule="evenodd" class="shp19" d="M157.1 133.43C158.94 137.35 156.53 146.06 152.81 146.62C148.48 147.27 145.51 144.86 143 139.28C141.83 136.68 140.44 129.34 143.41 127.93C148.05 125.73 154.22 127.35 157.1 133.43ZM144.68 138.58C146.37 142.71 149.57 145.12 152.63 143.84C155.9 142.47 156.17 137.69 155.34 134.25C154.04 128.83 148.03 128.36 145.22 129.06C142.9 129.64 143.19 134.94 144.68 138.58Z" />
		<path id="path9483" fill-rule="evenodd" class="shp19" d="M147.06 109.47C153.05 107.14 157.18 107.6 159.99 110.56C161.32 111.95 162.47 117.51 159.64 121.28C158.36 122.99 153.05 120.6 150.28 116.79C146.92 112.18 146.1 109.84 147.06 109.47ZM158.01 111.5C156.44 109.5 153.04 109.4 149.83 110.23C147.92 110.73 150.85 114.94 152.45 116.39C154.13 117.91 157.57 121 158.75 118.8C160.13 116.2 159.36 113.21 158.01 111.5Z" />
		<path id="path9487" fill-rule="evenodd" class="shp19" d="M128.81 99.77C127.23 101.03 122.56 98.17 121 96.32C118.77 93.7 117.23 89.61 119.59 88.68C120.84 88.19 126.25 89.15 127.97 90.78C130.15 92.84 131.24 96.87 128.81 99.77ZM120.34 90.4C119.39 91.27 124.46 98.44 127.44 97.91C128.53 97.72 128.62 93.9 126.77 92.04C125.52 90.77 121.79 89.06 120.34 90.4Z" />
		<path id="path9548" class="shp19" d="M182.58 237.05C194.05 242.48 197.31 237.52 209.41 240.23C219.59 242.52 221.6 248.21 233.57 248.41C235.6 248.45 244.2 247.23 245.22 247.18C245.11 247.58 239.69 249.65 239.57 250.05C235.6 251.28 230.72 250.85 227.39 250.05C220.39 248.37 214 241.79 208.06 240.91C199.91 239.7 197.94 242.06 189.01 240.1C186.5 239.55 180.57 238.48 182.58 237.05L182.58 237.05Z" />
		<path id="path9553" class="shp19" d="M138.34 179.11C138.84 179.57 140.08 180.5 140.31 181.24C139.88 184.72 141.64 186.96 144.96 188.31C145.15 188.39 144.51 189.27 144.26 189.26C139.78 189.06 136.89 184.8 138.34 179.11L138.34 179.11Z" />
		<path id="path9562" class="shp19" d="M141.97 232.76C139.83 228.85 142.19 225.22 144.45 223.29C146.36 221.64 148.88 221.73 149.68 222.02C150.79 222.43 150.21 223.31 149.11 223.52C144.63 224.36 142.49 227.65 143.91 230.71C143.67 232.13 142.7 232.09 141.97 232.76L141.97 232.76Z" />
		<path id="path9605" class="shp19" d="M135.9 235.99C134.09 234.36 136.92 223.92 137.26 222.51C137.74 223.41 138.32 223.82 138.76 224.36C137.2 227.97 137.31 232.2 137.79 235.76C136.32 235.61 136.98 235.84 135.9 235.99Z" />
		<path id="path10064" class="shp19" d="M92.04 220.71C88.88 216.35 89.77 207.52 91.56 208.15C92.21 213.1 92 216.19 94.67 219.64C93.82 220.27 92.88 220.71 92.04 220.71L92.04 220.71Z" />
		<path id="path10066" class="shp19" d="M91.28 216.35C82.73 209.92 73.68 200.18 69.87 189.94C70.28 192.8 72.98 191.08 73.38 190.92C77.81 202.21 83.89 206.6 91.68 212.22C91.44 212.78 91.52 215.79 91.28 216.35L91.28 216.35Z" />
		<path id="path10068" class="shp19" d="M109.74 278.26C111.08 280.11 111.42 282.42 112.2 284.23C113.84 288.03 115 291.3 114.42 295.1C113.67 294.59 112.84 295.3 110.83 294.89C112.92 291.89 112.29 287.49 110.39 283.69C108.86 280.61 109.24 280.8 109.74 278.26L109.74 278.26Z" />
		<path id="path10070" class="shp19" d="M131.76 295.01C131.26 295.21 129.31 293.54 129.36 295.96C129.36 294.45 130.25 288.53 128.41 287.11C125.93 283.3 127.02 282.97 125.54 280.89C126.51 282.35 128.7 283.66 129.84 286.15C130.7 288.05 132.85 291.33 131.76 295.01L131.76 295.01Z" />
		<path id="path10072" class="shp19" d="M145.63 291.9C145.08 291.98 144.52 292.05 143.96 292.13C143.8 288.72 143.68 285.43 142.05 282.09C141.24 280.63 139.66 277.06 137.5 275.15C139.25 276.9 141.07 278.41 143.48 280.41C145.08 284.41 146.7 286.71 145.63 291.9L145.63 291.9Z" />
		<path id="path9477" fill-rule="evenodd" class="shp19" d="M174.19 134.06C175.62 137.19 173.08 144.85 169.72 146.03C165.83 147.39 162.1 142.23 160.59 136.22C159.91 133.49 159.93 128.05 162.44 128.09C167.52 128.16 171.91 129.05 174.19 134.06ZM162.98 137.97C165.43 143.34 166.21 144.03 168.97 143.78C171.63 143.53 173.07 137.67 172 134.56C170.58 130.42 165.74 129.32 162.97 130.03C161.13 130.5 162.06 135.94 162.98 137.97Z" />
		<path id="path10103" class="shp19" d="M66.92 181.14C65.8 178.22 66.42 177 66.2 175.37C66.67 175.52 68.14 174.94 68.35 174.89C68.05 177.72 68.68 178.18 68.91 180.9C68.28 180.98 67.55 181.06 66.92 181.14L66.92 181.14Z" />
		<path id="path10110" class="shp19" d="M135.71 169.32C133.14 164.91 133.27 162.11 136.42 160.23C140.83 157.58 147.72 160.79 147.92 165.56C147.64 165.73 146.43 166.23 146.14 166.4C145.37 161.69 141.11 159.98 138.06 161.51C135.15 162.98 136.13 166.93 137.4 168.47C136.5 168.25 136.5 168.93 135.71 169.32L135.71 169.32Z" />
		<path id="path10112" class="shp19" d="M160.35 153.24C159.99 153.42 159.4 154.82 158.2 154.32C156.84 154.26 154.05 153.93 152.69 155.41C150.24 158.1 151.67 159.41 152.69 163.17C152.5 163.28 152.2 165.48 151.86 165.32C150.07 162.86 148.4 158.83 150.18 155.63C152.08 152.22 155.43 151.57 160.35 153.24L160.35 153.24Z" />
		<path id="path10120" class="shp19" d="M180.09 156.35C178.58 151.13 176.61 146.41 173.5 140.68C173.83 133.63 170.36 130.45 166.7 129.11C164.48 125.63 162.57 123 160.35 119.86C160.64 119.1 160.93 118.63 161.07 118.07C169.61 128.89 178.12 142.01 182.36 155.87C181.6 156.03 180.86 156.26 180.09 156.35L180.09 156.35Z" />
		<path id="path10124" class="shp19" d="M178.41 147.62C181.17 144.74 182.6 142.33 181.29 139.48C180.09 136.9 176.27 135.62 172.79 136.25C172.29 135.53 172.33 134.87 172.19 134.46C177.91 134.09 182.78 136.03 184.04 140.44C184.91 143.48 182.75 147.9 179.49 149.53C179.33 148.57 178.87 148.42 178.41 147.62L178.41 147.62Z" />
		<path id="path10129" class="shp19" d="M166.55 125.64C165.99 125.53 165.83 124.21 165.26 124.1C166.3 122.55 168.51 119.62 166.94 116.68C165.84 114.62 162.75 113.25 158.92 112.84C158.92 112.34 159.4 111.56 159.04 111.17C161.49 111.76 166.81 112.23 168.34 115.79C170.17 120.03 168.66 122.61 166.55 125.64L166.55 125.64Z" />
		<path id="path10136" class="shp19" d="M129.09 96.26C128.26 95.18 128.8 94.72 128.8 94.08C133.42 96.62 135.28 97.47 140.52 100.23C144.69 102.43 148.25 104.49 152.09 109.1C151.7 109.1 150.79 109.1 149.7 109.1C146.93 106.81 146.08 106.02 141.15 103.26C135.72 100.24 134.16 98.67 129.09 96.26L129.09 96.26Z" />
		<path id="path10138" class="shp19" d="M135.95 93.22C138.73 94.11 140.73 96.99 140.68 100.53C140.36 100.09 139.28 100.08 139.02 99.95C139.66 97.77 137.23 95.78 136.17 95.08C134.6 94.03 132.21 94.43 130.36 95.23C129.99 95.23 128.07 95.02 128.91 94.11C129.76 93.19 132.82 92.22 135.95 93.22L135.95 93.22Z" />
		<path id="path10314" class="shp5" d="M65.31 147.28C70.12 147.24 72.68 143.71 76.8 143.57C78.53 143.51 79.45 145.51 78.92 146.13C75.35 150.34 71.98 149.42 67.7 148.96C66.17 148.8 63.66 147.3 65.31 147.28Z" />
		<path id="path10981" class="shp19" d="M51.61 115.73C52.65 116.42 53.32 117.71 54.18 118.82C54.28 121.25 54.23 121.9 54.35 123.77C53.42 123.98 52.47 124.23 51.61 124.21C51.4 121.79 51.55 118.2 51.61 115.73Z" />
		<path id="path11308" class="shp5" d="M181 139.5C181.01 139.52 180.3 141.24 179.38 140.25C178.83 139.67 177.38 137.83 178.38 137.75C179.54 137.66 180.46 137.62 181 139.5Z" />
		<path id="path14666" class="shp2" d="M112.33 137.12C113.06 137.05 113.69 136.89 113.93 136.85C115.72 145.3 123.05 156.03 128.35 161.68C128.67 162.28 128.15 163.22 128.21 163.87C125.62 161.1 122.52 156.27 120.29 153.29C117.07 148.86 114.25 143.07 112.33 137.12L112.33 137.12Z" />
		<path id="path15269" class="shp19" d="M167.67 153.74C168.3 151.89 170.41 151.41 171.9 151.87C175.73 153.05 178.56 154.14 178.71 157.73C178.86 158.55 177.39 158.31 177.12 158.52C176.33 155.87 174.54 154.32 172.08 153.82C170.62 153.52 169.38 154.68 168.6 155.62C168.59 154.95 168 154.02 167.67 153.74L167.67 153.74Z" />
		<path id="path15343" class="shp15" d="M125.31 128.88C121.69 130.58 114.84 135.37 113.81 137C113.28 137.09 112.62 137 112.5 137C115.51 134.17 121.7 130.5 125.31 128.88Z" />
		<path id="path16162" class="shp5" d="M179.16 203.85C179.16 205.32 177.97 206.5 176.5 206.5C175.04 206.5 173.85 205.32 173.85 203.85C173.85 202.39 175.04 201.2 176.5 201.2C177.97 201.2 179.16 202.39 179.16 203.85Z" />
		<path id="path16164" class="shp5" d="M174.74 209.77C174.74 210.51 174.14 211.1 173.41 211.1C172.68 211.1 172.09 210.51 172.09 209.77C172.09 209.04 172.68 208.45 173.41 208.45C174.14 208.45 174.74 209.04 174.74 209.77Z" />
		<path id="path16270" class="shp19" d="M15.59 174.42C18.71 172.35 18.53 170.79 21.18 166.94C19.72 170.18 19.66 175.36 14.6 177.09" />
		<path id="path16278" class="shp19" d="M23.25 179.75C26.17 177.8 27.38 175.05 28.53 170.97C29.41 176.74 25.31 181.3 23.8 182.29C22.9 182.52 24.12 179.83 23.25 179.75Z" />
		<path id="path16288" class="shp19" d="M32.46 177.39C32.9 176.06 33.39 173.86 33.84 172.34C34.25 174.33 33.68 177.35 33.44 178.13C33.31 178.46 33.1 177.23 32.46 177.39L32.46 177.39Z" />
		<path id="path16624" class="shp5" d="M141.13 289.78C141.05 289.68 141.04 288.95 141.38 289.25C142.4 290.18 143.31 291.72 143.38 293.81C143.38 293.91 142.66 294.66 142.38 294.03C141.91 293.02 142.17 291.07 141.13 289.78Z" />
		<path id="path16313" fill-rule="evenodd" class="shp19" d="M96.63 210.84C96.62 210.84 96.62 210.84 96.62 210.84C97.38 210.92 98.05 211.13 98.78 211.28C97.6 215.12 95.6 217.05 94.84 221.9C93.23 232.23 93.83 246.5 95.97 255.28C98.2 264.41 87.22 269.77 93.75 279.34C97.6 284.99 97.57 287.09 100.87 290C101.7 290.73 102.57 291.39 103.47 291.97C103.68 288.07 105.64 285.33 107.75 283.18C110.99 286.77 112.61 291.26 112.28 294.28C112.81 294.19 113.33 294.06 113.84 293.87C114.29 295.23 115.65 296.53 117.47 297.37C117.6 296.41 118.01 295.57 118.44 294.31C119.24 291.94 121.24 289.59 123.22 286.43C126.73 289.76 128.71 291.57 129.37 294.72C129.72 294.28 130.04 293.8 130.34 293.28C131.7 294.18 132.46 294.88 134.25 295.28C134.21 294.79 134.19 293.39 134.25 292.59C134.48 289.3 136.4 287.08 136.84 283.81C139.89 285.4 142.71 287.29 144.25 290.87C144.34 290.57 144.25 290.64 144.31 290.31C145.54 291.08 146.46 291.11 147.16 290.72C146.83 288.27 146.37 286.3 146.28 284.54C146.2 283.04 147.35 281.66 146.68 279.8C146.63 279.44 149.21 281 149.13 280.68C148.31 277.34 144.26 274.12 142.64 271.68C140.1 267.87 137.34 264.47 135.53 262.78C131.43 251.63 138.33 248.82 135.47 239.56C136.08 240.52 137.39 241.03 137.91 241.47C139.3 249.78 135.53 255.19 137.41 262.09C140.98 264.8 142.92 268.78 146 271.58C148.76 274.09 150.77 278.54 151.61 281.33C153.8 283.1 155.4 285.9 155.91 290.12C156.15 291.18 154.36 292.49 152.32 293.24C150.75 293.81 148.4 293.91 147.18 292.96C146.67 293.14 146.61 292.98 146.12 293.09C146.56 294.04 146.31 294.63 146.5 295.71C146.73 296.99 143.54 299.14 141.72 299.75C139.75 300.4 133.84 301.2 133.22 297.4C131.66 297.21 132.53 297.09 130.81 296.43C130.44 296.89 130.04 297.28 129.62 297.65C129.62 298.31 129.71 299.05 129.53 299.81C129.1 301.61 126.54 302.55 124 302.68C122.07 302.79 117.53 302.38 117.16 299.37C115.23 298.66 114.11 297.85 113.03 296.28C112.57 296.27 112.13 296.24 111.69 296.21C110.79 297.35 109.51 297.65 108.13 297.65C106.32 297.63 103.03 297.29 102.34 293.78C100.27 292.77 99.68 291.81 98.16 290.18C96.29 288.19 95.82 285.94 93.59 283.06C91.1 279.84 88.98 275.86 88.94 272.96C88.86 268.34 92.25 264.89 94.06 259.68C92.92 253.58 89.71 239.2 92.13 221.18C92.79 216.26 95.73 213.53 96.62 210.84C96.62 210.84 96.62 210.84 96.62 210.84L96.63 210.84ZM149.44 291.81C150.67 292.23 152.59 291.43 153.56 290.25C153.31 288.48 152.57 286.71 151.91 285.25C151.22 283.72 149.21 281.98 148.06 281.93C147.88 282.79 147.59 283.69 147.38 284.43C147.87 286.14 148.05 288.02 148.16 289.62C148.27 291.37 148.46 292.05 149.44 291.81ZM104.63 292.65C104.63 292.65 104.7 293.61 105.72 294.62C107.36 295.54 110.45 295.99 111.03 293.68C111.7 290.95 109.99 287.37 107.69 284.62C106.62 286.26 104.26 288.83 104.63 292.65ZM137.41 284.78C137.39 287.56 135.97 289.79 135.47 292.34C135.14 293.99 135.73 295.86 136.12 297.46C137.38 299.78 143.89 297.04 144.06 295.87C144.16 295.25 144.79 294.85 143.97 292.59C142.78 289.33 139.56 286.33 137.41 284.78L137.41 284.78ZM118.84 297.87C118.84 297.87 119.14 300.43 123.5 300.4C124.92 300.39 126.46 300.19 127.63 299.12C128.34 298.47 128.24 297.39 128.19 296.5C128 293.26 126.49 290.15 123.44 287.5C121.5 290.17 118.79 294.43 118.84 297.87Z" />
		<path id="path10140" fill-rule="evenodd" class="shp19" d="M246.44 247.28C246.82 247.27 247.08 247.96 247.75 248.12C252.22 251.59 255.17 252.66 257.37 255.44C259 256.47 262.52 259.11 263.24 262.23C263.49 263.31 262.51 264.3 262.42 264.42C263.53 265.91 264.2 266.74 264.41 268.78C264.51 269.8 262.9 271.41 261.34 271.93C259.12 272.68 258.32 272.67 255.71 272.31C255.88 272.72 255.72 273.21 255.5 274.68C255.12 277.25 246.74 279.03 244.72 277.15C244.05 276.53 244.19 277.55 243.34 276.96C243.44 277.42 243.54 277.38 243.5 277.87C243.39 279.19 240.38 279.88 238.5 279.93C236.71 279.98 233.36 280 233.31 278.5C230.55 278.36 229.02 276.87 225.53 275.96C219.78 274.48 214.53 271.86 209.75 268.34C207.8 266.9 208.82 262.24 206.88 257.96C206.17 256.42 204.57 254.52 204.38 250.37C205.88 250.87 206.75 251 208.25 251.5C208.59 252.56 207.82 254.42 209.5 257.84C210.92 260.73 210.53 263.06 211.25 265.46C211.61 266.68 219.03 271.71 226.72 273.53C229.42 274.16 231.43 274.66 233.44 274.84C233.37 274.45 233.02 272.5 232.91 271.96C232.47 269.94 233.22 268.86 233.34 266.62C236.5 267.13 240.26 270.07 241.59 272.96C242.34 273.37 242.61 274.23 244.5 274.09C244.16 272.86 243.59 270.81 243.69 269.43C243.83 267.47 243.48 266 243.69 263.81C247.75 264.92 250.99 267.09 253.06 270.84C253.7 270.81 253.91 271.03 254.72 270.31C254.29 269.25 254.06 267.87 254.16 266.75C254.32 264.79 253.57 262.71 253.09 260.87C254.25 260.92 255.07 260.84 256.16 261.15C255.86 259.36 255.72 257.58 255 256C249.99 252.38 248.79 252.08 244.5 248C245.15 247.9 245.28 247.3 246.44 247.28L246.44 247.28ZM256.47 257.43C256.81 258.33 256.96 260.46 257.19 261.43C257.89 261.62 259.39 262.39 259.84 262.84C260.16 263 260.24 262.88 260.53 263.06C260.64 262.96 261.33 262.67 261.23 262.23C260.87 260.75 259.79 259.2 257.38 257.93C257.08 257.78 256.8 257.49 256.47 257.43ZM255.72 269C256.16 270.07 256.09 270.34 256.94 270.68C258.21 271.2 261.8 270.17 262.34 268.5C261.93 266.49 260.34 264.1 257.31 262.87C256.74 262.64 255.05 261.9 254.41 261.75C255.48 263.82 255.02 267.28 255.72 269ZM244.72 270.18C244.59 271.49 245.71 273.61 246.13 274.59C246.95 276.42 252.92 275.52 252.94 273.37C252.98 269.32 248.84 266.97 244.56 264.93C244.5 266.85 244.93 268.02 244.72 270.18ZM234.88 274.93C235.07 276.42 235.25 276.29 235.81 276.59C237.74 277.62 240.54 276.86 240.69 275.93C240.95 274.29 240.29 273.77 239.59 272.53C238.26 270.14 236.23 268.53 234.44 268.37C234.08 270.26 234.65 273.21 234.88 274.93Z" />
		<path id="path16731" class="shp19" d="M241.2 273.41C240.88 273.88 239.91 272.98 239.04 271.56C237.92 269.32 238.72 268.48 235.81 265.81C233.54 264.56 233.14 262.39 232.54 259.45C234.34 261.14 235.73 263.59 237.93 265.02C240.61 267.44 241.31 270.57 241.2 273.41L241.2 273.41Z" />
		<path id="path16739" class="shp19" d="M252.52 271.03C251.76 268.56 250.67 265.53 249.51 263.51C247.97 260.83 247.52 261.4 245.55 259.31C247.67 260.32 248.5 260.15 250.13 261.39C253.15 263.69 253.15 267.47 254.02 270.67C253.59 271.44 252.94 270.93 252.52 271.03Z" />
		<path id="path16741" class="shp19" d="M256.41 262.01C255.04 259.75 253.17 257.7 250.22 254.94C252.31 256.48 253.79 257.14 255.35 258.12C257.18 260.74 256.88 259.77 258.4 262.28C257.71 262.28 257.03 261.83 256.41 262.01Z" />
		<path id="path16305" fill-rule="evenodd" class="shp19" d="M60.22 123.53C53.56 125.04 47.33 129.39 42.16 131.47C42.61 133.67 40.27 133.11 39.44 133.84C40.44 130.9 41.05 130.17 41.81 128.43C36.16 123.71 29.68 124.41 22.19 125.06C13.2 130.98 6.08 140.12 5.28 151.09C4.73 158.61 7.02 162.57 8.56 166.43C8.5 168.94 8.01 172 10.03 173.84C10.25 173.61 11 173.06 11.25 172.97C14.09 171.91 14.69 171.39 16.47 170.93C16.5 173.2 16.34 175.52 15.56 177.28C15.69 177.7 15.81 178.14 15.94 178.56C17.08 177.32 18.73 176.23 19.62 175.75C21.48 174.73 22.19 173.65 23.87 173.09C24.59 175.38 24.57 177.71 24.03 179.65C24.04 179.65 24.05 179.66 24.06 179.65C24.13 180.34 25.46 180.85 26.44 181.03C27.15 179.96 27.78 178.92 29.5 177.12C29.83 176.78 30.45 174.4 30.78 174.4C31.25 174.41 32.31 176.07 33.22 177.65C33.51 177.27 33.81 176.84 34 176.34C34.91 175.69 35.05 174.1 36.28 173.25C36.7 171.94 36.99 169.21 37.25 167.72C34.66 165.18 34.05 162.29 35.16 163.09C39.85 169.41 58.71 173.11 68.13 173.93C70.54 173.49 76.99 172.83 80.31 170.12C80.58 170.17 80.89 169.07 81.75 170.34C81.75 170.34 80.32 172.32 79.34 172.97C77.83 173.72 74.61 175.86 71.69 176.56C71.71 176.59 74.29 177.59 73.63 179.22L72.19 179.68C71.4 179.02 68.94 178.57 67.63 175.84C54.14 175.84 50.48 174 39.16 168.06C38.77 169.56 39.28 170.13 38.56 173.5C38.98 175.23 38.61 179.21 38.45 179.7C38.04 180.99 36.23 181.26 34.88 181.36C35.47 185.93 31.05 187.16 28 186.56C27.41 186.44 24.82 184.59 24.81 183.78C24 183.47 24.16 183.36 23.75 183.37C22.72 184.42 21.31 185.89 19.22 185.9C16.67 185.92 12.96 183.04 14.44 180.34C14.31 180.14 14.21 179.9 14.09 179.68C12.65 181.09 11.06 180.94 9.41 179.65C8.5 178.86 7.08 176.49 7.5 175.12C6.24 173.81 6.04 172.15 6.03 168.03C-1.52 154.98 1.84 134.07 19.47 123.37C27.05 121.57 37.42 120.05 44.87 126.06C48.48 125.03 56.44 122.82 57.37 121.65C58.73 122.25 59.57 122.88 60.22 123.53ZM10.91 174.53C10.14 175.01 9.48 175.48 9.62 176.12C9.88 177.3 10.81 178.51 12.37 178.31C13.04 178.22 13.63 178.28 14.31 176.56C15.16 174.43 15.19 173.21 15.25 172.15C14.25 173.22 12.49 173.53 10.91 174.53ZM16.25 179.87C15.83 181.15 16.98 182.9 17.87 183.34C19.92 184.34 21.75 184.02 22.62 181.22C23.19 179.41 23.73 175.79 23.12 174.22C20.54 176.83 18.09 177.39 16.25 179.87ZM34.41 177.46C34.25 178 34.1 178.69 34.25 179.37C35.24 179.36 35.81 179.63 36.67 179.06C36.89 178.02 37.18 175.29 36.19 174.56C35.92 175.78 35.13 176.55 34.41 177.46ZM28.22 180.37C27.41 181.2 27.48 181.7 26.87 182.34C26.41 184.82 31.71 185.23 32.75 183.31C33.26 182.37 32.83 180.48 32.56 179.34C32.13 177.48 31.41 176.62 30.94 176.06C30.86 176.08 29.19 179.38 28.22 180.37Z" />
		<path id="path18907" class="shp5" d="M123.88 25.25C124.87 26.62 126.07 30.97 124 29.13C122.74 28 120.91 27.15 121.38 25.75C121.45 25.52 122.92 23.92 123.88 25.25Z" />
	</g>
</svg>