<svg version="1.2" baseProfile="tiny-ps" xmlns="http://www.w3.org/2000/svg" viewBox="0 0 476 248" width="476" height="248">
	<title>logo-svg</title>
	<style>
		tspan { white-space:pre }
		.shp0 { fill: #ab6800 } 
		.shp1 { fill: #ff8f16 } 
		.shp2 { fill: #ffb670 } 
		.shp3 { fill: #ffffa6 } 
		.shp4 { fill: #d4ac76 } 
		.shp5 { fill: #e0ac63 } 
		.shp6 { fill: #6b4900 } 
		.shp7 { fill: #ffe7c1 } 
		.shp8 { fill: #dfc9a6 } 
		.shp9 { fill: #9e7762 } 
		.shp10 { fill: #ffffff } 
		.shp11 { fill: #9a8114 } 
		.shp12 { fill: #dcb1c1 } 
		.shp13 { fill: #b188a2 } 
		.shp14 { fill: #5e5362 } 
		.shp15 { fill: #84bcff } 
		.shp16 { fill: #399df9 } 
		.shp17 { fill: #307fda } 
		.shp18 { fill: #283c9a } 
		.shp19 { fill: #1a1a1a } 
		.shp20 { fill: #a8677a;stroke: #000000 } 
		.shp21 { fill: #965163 } 
		.shp22 { fill: #db8289 } 
		.shp23 { fill: #b56669 } 
		.shp24 { fill: #7c3d21 } 
		.shp25 { fill: #c2ffe9 } 
		.shp26 { fill: #000000 } 
	</style>
	<g id="layer2">
		<path id="path6831" class="shp0" d="M173.96 154.61C171.67 164.63 166.41 171.69 160.88 177.59C150.54 193.92 133.12 195.53 114.21 192.09C111.2 190.7 109.44 187.06 107.84 185.37C127.33 169.89 155.32 167.03 173.96 154.61L173.96 154.61Z" />
		<path id="path4945" class="shp1" d="M196.56 36.6C219.42 28.97 241.97 18.28 265.02 16.19C310.16 9.15 329.39 43.4 361.1 63.43C380.88 74.72 417.16 92.03 432.76 93.85C446.65 95.47 459.81 87.08 467.58 81.04C473.32 78.58 471.66 85.86 471.99 86.24C449.6 121.38 408.31 133.48 371.51 133.48C370.96 141.07 372.86 144.74 375.11 151.5C389.58 153.91 409.98 164.87 411.94 181.12C416.04 197.39 403.9 207.4 397.33 219.35C378 223.25 366.37 217.65 357.09 207.14C355.22 203.16 358.86 198.31 359.1 197.13C347.35 198.06 333.84 193.71 325.07 189.53C318.14 183.01 314.88 178.6 311.46 170.71C296.6 179.28 276.82 182.9 261.02 181.52C257 187.59 252.4 192.98 249.41 197.13C244.78 223.1 231.93 237.41 208.17 239.57C184.85 236.62 167.88 224.3 159.73 203.94C171.18 193.9 186.83 187.21 197.77 179.92C197.52 173.55 201.12 166.59 202.97 162.71C188.99 157.02 180.47 155.92 169.5 157.55C157.05 138.86 187.21 124.56 199.96 101.56C204.32 93.69 196.7 75.71 194.51 68C201.76 53.32 193.88 41.65 196.56 36.6L196.56 36.6Z" />
		<path id="path4949" class="shp0" d="M428.23 109.29C429.51 111.68 428.82 117.56 432.76 120.05C415.71 131.41 391.21 141.27 369.35 133.07C368.15 123.85 366.04 113.39 357.46 105.33C373.25 109.84 396.78 116.64 416.64 114.25C420.69 113.77 424.87 112.62 428.23 109.29L428.23 109.29Z" />
		<path id="path4281" class="shp2" d="M335.18 64.48C334.84 65.57 335.4 64.55 333.43 62.2C334.45 56.35 333.24 50.97 331.28 44.61C334.42 50.03 336.55 58.13 335.18 64.48L335.18 64.48Z" />
		<path id="path4265" class="shp0" d="M386.5 83.34C379.47 80.69 375.73 77.2 368.74 74.13C357.73 69.29 343.79 65.17 335.4 64.57C335.6 63.77 336.73 63.07 336.89 62.48C362.62 67.35 382.94 80.69 385.14 81.23C386.49 81.99 385.3 81.9 386.5 83.34L386.5 83.34Z" />
		<path id="path6061" class="shp0" d="M213.38 188.33C207.69 190.76 205.06 194.91 199.58 199.56C193.33 204.85 188.84 218.94 181.93 231.32C181.08 230.28 173.26 230.16 169.71 225.89C164.24 219.3 162.36 207.52 160.94 203.54C170.22 198.31 183.28 188.29 197.77 181.12C199.21 175.34 200.72 169.53 201.77 163.51C195.01 160.61 181.11 158.96 172.54 153.9C178.67 141.04 188 125.6 194.56 113.47C207.47 120.94 217.03 135.37 234.19 138.29C224.04 149.12 217.57 165.12 216.98 182.72C217.61 183.56 221.22 184.36 220.58 187.53" />
		<path id="path5881" class="shp3" d="M5.92 127.79C10.42 127.07 8.37 119.33 9.21 117.22C19.41 105.39 31.04 100.67 37.24 84.4C34.01 65.53 62.91 49.35 71.16 43.82C88.95 31.88 99.77 18.68 112.9 4.73C126.3 -0.18 132.2 7.47 133.31 19.74C146.5 16.14 154.66 18.66 160.94 23.55C164.01 16.84 172.17 10.89 174.95 7.93C191.86 6.71 191.43 12.63 195.23 25.93C203.48 35.07 211.59 55.36 195.4 64.17C204.92 83.17 202.55 97.86 187.76 121.22C185.47 133.32 180.11 148.39 166.94 153.65C157.78 165.57 131.15 171.29 124.91 174.07C93.23 188.19 77.56 203.83 48.04 180.87C46.89 177.59 47.35 166.37 52.79 166.61C58.35 166.84 61.42 162.11 62.79 159.86C63.31 158.99 51.47 163.33 52.05 162.46C38.66 163.33 22.36 164.06 15.62 157.25C8.04 149.6 4.89 139.16 5.92 127.79L5.92 127.79Z" />
		<path id="path6038" class="shp4" d="M162.66 47.14C171.61 49.1 178.53 56.45 181.57 56.84C183.84 73.48 177.62 97.77 166.53 111.14C171.66 97.02 176.07 80.04 175.03 60.92C171.28 56.92 169.81 53.6 162.66 53.86C149.16 60.28 175.18 108.65 156.32 119.68C149.46 123.69 133.55 118.3 128.02 117.56C122.7 116.85 115.72 119.33 117.99 117.57C124.76 112.33 131.36 113.58 129.81 113.26C128.46 109.45 124.51 105.96 124.17 99.05C124.47 91.71 122.79 91.41 120.84 89.98C104.95 103.93 85.12 111.83 66.75 104.17C58.29 104.62 52.18 104.4 43.66 103.2C39.5 102.75 34.62 99.73 33.75 95.98L35.75 80.01C36.93 77.07 37.77 73.92 40.75 71.51C38.61 75.99 38.71 77.77 40.77 77.18C41.94 81.95 45.36 85.47 51.25 88.26C59.81 89.75 89.88 84.98 98.91 84.1C99.8 81.12 99.77 76.1 113.35 64.51C121.43 57.62 152.51 28.54 153.46 28.74C152.25 34.45 134.16 56.28 121.88 66.5C113.81 73.21 103.07 79.73 105.69 82.78C115.65 78.4 116.82 78.71 122.53 74.18C136.33 63.23 142.61 51.83 162.66 47.14L162.66 47.14Z" />
		<path id="path5982" class="shp5" d="M195.47 71.02C197.31 75.64 201.58 86.93 201.66 91.23C201.76 97.28 193.24 121.52 184.91 123.23C183.77 133.67 175.35 149.1 168.94 155.51C158.16 169.36 137.16 171.5 124.09 176.73C108.39 188.27 86.86 193.34 70.47 196.32C56.49 191.82 41.75 186.39 51.66 170.7C63.77 191.73 50.25 182.61 61.35 161.64C61.96 160.49 37.43 165.55 35.03 164.71C33.33 164.11 21.78 165.26 15.76 158.94C7.56 150.33 4.31 130.25 6.34 128.47C6.69 128.16 9.69 128.29 11.29 129.96C12.35 131.08 11.89 133.64 12.92 134.4C18.75 138.75 28.53 146.87 46.05 148.46C50.65 148.88 78.57 144.11 82.76 142.76C100.67 136.96 122.16 141.51 122.77 141.08C124.05 140.19 136.72 135.36 137.9 139.92C139.91 152.07 137.43 152.18 143.72 152.29C148.62 149.64 152.94 143.5 153.17 137.98C153.42 131.8 158.15 126.9 158.97 126.05C159.51 125.48 159.35 127.43 158.64 128.88C156.68 132.84 156.67 138.82 157.9 141.78C159.27 145.05 166.25 145.93 165.34 135.07C169.25 129.53 179.35 126.57 178.66 123.05C178.56 122.52 179.26 120.62 176.8 118.46C174.25 116.21 166.23 116.51 169.34 114.67C173.85 112.01 177.8 112.45 180.28 113.14C187.67 106.72 201.82 97.04 194.49 74.86C193.91 73.09 191.5 69.13 195.47 71.02L195.47 71.02Z" />
		<path id="path6021" class="shp0" d="M228.81 98.96C225.47 102.62 218.29 107.27 216.55 108.96C216.09 109.41 211.61 110.14 210.97 110.31C208.19 111.02 205.18 121.66 203.52 121.54C199.15 121.23 195.99 108.21 198.66 108.58C205.11 105.92 219.65 103.51 223.71 100.51C225.69 100.47 227.1 99.72 228.81 98.96Z" />
		<path id="path6106" class="shp6" d="M192.16 196.73C187.18 198.98 172.43 202.02 166.34 209.3C161.05 207.15 159.59 210.03 160.53 201.14C165.09 199.62 174.08 195.12 180.15 191.13C186.38 185.29 188.01 181.33 198.17 181.52C198.83 176.66 198.97 169.88 201.37 165.11C191.74 161.26 181.87 156.52 170.54 155.1C176.29 147.15 185.3 136.03 185.76 122.67C186.37 121.93 192.21 113.49 198.59 108.82C200.56 107.37 204.42 108.53 205.86 107.52C205.49 108.84 204.33 111.45 203.41 115.08C210.69 122.17 220.05 132.31 228.99 138.69C221.6 148.92 211.35 162.44 210.18 179.92C210.26 180.03 211.05 182.2 212.58 183.12C208.7 185.37 199.54 191.91 192.16 196.73L192.16 196.73Z" />
		<path id="path6002" class="shp0" d="M224.56 67.96C219.58 74.56 209.69 82.12 201.21 84.1C199.47 80.97 195.5 70.04 193.86 67.21C195.22 63.63 199.83 65.82 201.77 64C205.69 71.89 217.62 69.94 224.56 67.96Z" />
		<path id="path5925" class="shp0" d="M292.6 48.77C287.89 43.45 294.05 41.46 299.05 40.81C304.82 52.22 319.87 52.42 326.87 52.52C314.7 56.03 301.19 58.47 292.6 48.77Z" />
		<path id="path4953" class="shp0" d="M399.93 214.55C395.51 222.18 394.69 223.54 386.22 223.15C384.94 223.09 383.48 224.46 381.81 224.26C377.14 223.14 371.79 223.81 367.86 221.94C362.7 219.49 358.5 215.84 355.02 210.05C355.88 206.91 358.31 199.5 361.1 197.53C349.79 198.56 336.3 195.14 326.27 187.93C324.66 194.34 305.38 202.79 289.44 200.68C282.84 199.81 276.4 195.27 272.68 190.98C273.58 188.05 275.44 183.94 279.41 181.57C256.56 168.24 251.21 143.58 251.93 127.34C253.17 125.39 254.49 127.63 259.97 126.96C260.17 124.69 264.09 119.57 265.89 118.6C272.51 115.06 284.81 126.06 298.69 128.53C303.47 129.38 307.94 131.87 313.16 131.85C315.26 131.84 317.72 130.6 320 129.96C321.23 129.61 321.98 129.19 321.13 133.46C318.59 146.07 327.98 152.92 334.88 162.95C333.7 165.65 341.95 176.68 347.49 175.32C356.9 180.85 364.97 183.6 376.31 181.92C384.23 177.52 385.86 179.38 389.52 183.12C388.41 190.01 392.94 191.35 394.32 197.13C394.99 199.89 393.38 211.57 399.93 214.55L399.93 214.55Z" />
		<path id="path4089" class="shp7" d="M203.47 95.98C203.72 91.09 210.46 86.6 215.65 84.94C224.34 82.17 230.94 83.9 232.68 91.12C233.75 95.57 225.78 100.27 219.1 101.4C211.24 102.73 203.06 104.07 203.47 95.98L203.47 95.98Z" />
		<path id="path4339" class="shp8" d="M219.25 93.25C224.98 93.42 228.86 89.94 230.29 86.34C232.14 86.67 232.32 88.37 232.89 89.65C228.49 98.34 206.05 106.71 204.47 93.55C204.08 90.29 210.68 87.38 211.76 86.81C211.75 92.72 214.48 93.12 219.25 93.25L219.25 93.25Z" />
		<path id="path3260" class="shp7" d="M229.75 114.23C231.78 122.13 234.59 126.01 239.31 132.15C237.59 132.03 238.96 133.41 237.49 134.98C233.12 139.62 204.47 133.08 203.62 121.61C203.5 119.98 209.53 115.34 213.68 113.91C220.76 111.48 229.56 113.02 229.75 114.23L229.75 114.23Z" />
		<path id="path4030" class="shp8" d="M211.8 114.65C209.09 119.16 212.1 123.1 214.64 125.69C219.64 130.78 228.12 131.72 233.69 130.99C237.07 130.55 230.83 124.71 229.72 122.03C228.84 119.91 228.4 115.68 225.34 113.72C226.47 113.8 228.28 112.73 230.02 114.59C233.4 119.2 234.81 127.41 239.59 131.91C239.24 131.96 238.93 131.99 238.61 132.03C239.7 133.92 236.22 136.55 234.2 136.76C222.7 137.93 204.87 129.35 205.83 118.73C209.59 116.09 209.12 115.38 211.8 114.65L211.8 114.65Z" />
		<path id="path4032" class="shp9" d="M207.2 117.64C203.38 129.06 222.26 135.95 233.57 134.4C235.68 134.1 237.16 133.81 238.9 132.19C239.8 134.09 237.61 136.45 233.97 136.78C222.7 137.78 205.29 133.52 203.14 121.83C204.54 118.8 204.17 119.82 207.2 117.64L207.2 117.64Z" />
		<path id="path4055" class="shp10" d="M217.2 115.19C217.18 113.87 219.87 113.75 221.18 114.87C224.14 117.37 221.92 118.62 225.34 121.71C226.81 123.03 229.5 126.56 228.04 126.6C222.54 126.76 217.34 122.37 217.2 115.19L217.2 115.19Z" />
		<path id="path4068" class="shp7" d="M280.75 84.66C280.67 89.58 274.95 91.68 268.3 92.87C260.94 94.19 249.01 94.22 248.48 84.66C248.1 77.85 257.11 70.54 265.47 70.23C273.99 69.91 280.9 75.87 280.75 84.66Z" />
		<path id="path5747" class="shp0" d="M306.69 144.14C296.09 137.58 294.34 126.41 303.15 115.41C307.4 126.82 320.7 129.5 328.34 133.53C330.49 140.38 332.24 148.15 329.11 150.46C325.99 152.75 311.64 147.21 306.69 144.14L306.69 144.14Z" />
		<path id="path4972" class="shp6" d="M317.27 133.35C318.88 132.63 319.18 133.63 317.35 135.9C315.78 137.84 317.33 140.89 317.99 143.07C320.37 150.87 325.77 157.1 330.29 163.36C332.57 172.7 338.76 178.79 345.58 180.34C356.79 190.04 371.83 188.27 383.79 182.89C386.92 183.04 384.79 184.63 384.92 184.87C384.05 188.11 387.64 194.99 387.06 197.26C386.84 198.09 384.23 201.81 384.62 200.35C385.12 198.48 382.5 194.9 381.81 196.76C380.01 197.77 378.47 199.48 377.31 201.13C376 203.02 374.79 203.67 372.17 203.07C370.58 202.7 370.61 203.56 369.35 205.93C367.26 209.89 366.42 211.38 366.3 213.82C366.2 215.96 362.36 212.91 361.99 212.89C359.14 215.02 355.99 213.69 355.2 209.78C355.31 207.27 358.33 198.77 358.6 198.17C347.08 196.06 334.81 195.94 326.33 187.98C319.73 183.6 314.88 177.33 311.47 170.23C305.18 174.66 268.65 183.75 262.29 181.06C264.45 174.26 266.4 166.87 266.96 159.99C267.88 148.86 253.96 135.94 254.43 130.8C261.7 130.63 260.09 132.7 262.45 132.87C263.92 132.97 261.95 126.52 266.91 123.91C280.54 116.75 309.17 139.47 317.27 133.35L317.27 133.35Z" />
		<path id="path4091" class="shp7" d="M283.23 117.62C284.59 123.89 288.81 129.27 291.84 134.6C292.06 137.98 289.35 139.73 287.44 139.84C269.05 140.87 256.61 133.29 250.11 122.62C251.64 110.08 276.07 111.94 283.23 117.62Z" />
		<path id="path4951" class="shp6" d="M427.69 114.97C428.76 115.64 432.09 119.99 433.16 120.65C415.11 127.87 393.93 141.54 369.9 132.28C368.46 129.25 364.83 123.11 363.5 117.87C384.46 121.68 423.01 122.52 427.69 114.97L427.69 114.97Z" />
		<path id="path4111" class="shp7" d="M384.99 132.05C373.02 131.54 346.79 124.29 354.29 109.41C357.13 103.77 367.55 102.12 375.89 108.21C380.17 114.38 386.79 119.43 390.46 126.64C392 129.65 388.68 132.2 384.99 132.05L384.99 132.05Z" />
		<path id="path4113" class="shp7" d="M302.45 80.24C301.73 75.04 312.37 68.87 319.86 70.03C326.08 70.99 332.67 78.67 332.07 83.84C331.43 89.42 323.37 88.78 318.06 88.45C310.9 88 303.25 86.07 302.45 80.24Z" />
		<path id="path4139" class="shp7" d="M371.31 80.84C375.9 83.06 379.3 90.94 377.11 95.05C375.05 98.93 354.46 93.99 354.29 86.65C354.17 81.58 363.79 77.21 371.31 80.84Z" />
		<path id="path4113-6" class="shp7" d="M302.45 80.24C301.73 75.04 312.37 68.87 319.86 70.03C326.08 70.99 332.67 78.67 332.07 83.84C331.43 89.42 323.37 88.78 318.06 88.45C310.9 88 303.25 86.07 302.45 80.24Z" />
		<path id="path4148" class="shp7" d="M341.48 53.22C340.39 49.15 354.53 45.9 359.7 48.81C364.08 51.29 366.99 63.29 363.3 64.83C357.56 67.22 343.51 60.77 341.48 53.22L341.48 53.22Z" />
		<path id="path4150" class="shp7" d="M430.95 119.07C428.51 115.4 425.43 111.99 428.75 108.06C435.71 99.83 450.56 95.01 462.18 95.45C464.82 102.05 465.16 111.01 459.58 116.47C452.07 123.81 441.49 122.5 430.95 119.07L430.95 119.07Z" />
		<path id="path4154" class="shp7" d="M434.15 86.61C441.69 86.34 446.42 86 451.97 90.4C441.55 92.88 434.3 96.69 422.95 92.65C424.56 90.93 425.02 86.94 434.15 86.61Z" />
		<path id="path4156" class="shp7" d="M210.38 51.82C216.17 47.41 228.8 51.01 231.99 56.62C234.44 60.92 208.21 79.13 203.17 72.83C199.98 68.86 203.09 57.36 210.38 51.82L210.38 51.82Z" />
		<path id="path4158" class="shp7" d="M243.6 48.81C245.8 42.22 249.41 33.38 259.41 31.8C267.84 30.47 273.7 33.7 277.83 42.61C270.12 50.8 251.48 58.31 243.6 48.81L243.6 48.81Z" />
		<path id="path4160" class="shp7" d="M321.06 32.4C329.23 34.66 332.25 38.56 330.87 49.21C329.94 56.4 293.95 51.03 296.44 42.41C301.38 36.42 310.02 29.34 321.06 32.4Z" />
		<path id="path4162" class="shp7" d="M283.63 3.98C290.02 3.49 298.98 11.72 300.05 19.59C298.38 21.01 271.5 25.18 269.42 16.59C268.81 14.05 277.31 4.46 283.63 3.98Z" />
		<path id="path4164" class="shp7" d="M236.2 7.18C244.91 5.1 259.55 14.45 258.01 18.79C255.9 24.76 226.9 33.37 225.39 28.4C223.73 22.97 227.49 9.26 236.2 7.18L236.2 7.18Z" />
		<path id="path5928" class="shp11" d="M48.71 178.55C57.2 188.16 78.73 189.87 90.89 185.81C103.41 176.07 115.86 169.17 131.11 165.71C142.06 165.23 150.73 161.69 158.2 155.54C153.11 154.11 153.12 145.82 154.05 140.96C154.35 139.44 155.05 137.92 155.45 138.92C156.67 146.02 159.7 149.24 164.9 149.15C178.2 148.95 183.98 131.24 181.55 117.87C193.68 127.16 180.77 153.38 169.14 156.7C158.96 170.61 139.85 168.77 127.51 175.92C115.92 182.12 104 188.42 92.88 194.53C83.59 199.54 63.6 197.23 54.06 191.3C48.35 187.74 47.5 182.47 48.71 178.55L48.71 178.55Z" />
		<path id="path4166" class="shp7" d="M175.15 123.88C178.17 122.55 188.7 134.79 196.96 137.29C199.1 137.93 200.55 138.75 199.17 140.49C191.19 150.5 165.81 150.58 165.74 145.09C165.62 135.89 166.43 127.69 175.15 123.88L175.15 123.88Z" />
		<path id="path4170" class="shp7" d="M195.12 27.48C203.53 26.76 209.11 29.43 213.81 34.42C213.06 36.02 212.05 36.95 210.97 38.1C206.07 36.54 200.42 34.59 196.11 33.57C196.21 31.31 195.53 29.2 195.12 27.48Z" />
		<path id="path4196" class="shp10" d="M273.6 120.49C274.07 122.64 276.7 125.9 280.21 129C280.87 129.58 279.16 130.61 278.13 130.14C272.34 127.47 267.9 124.42 265.67 119.03C265.15 117.78 265.34 113.41 268.93 114.2C272.53 115 272.5 115.51 273.6 120.49Z" />
		<path id="path4198" class="shp10" d="M370.99 109.73C372.84 112.02 375.04 117.9 379.48 120.92C376.01 121.16 366.25 115.61 364.98 108.39C364.79 107.29 368.16 106.22 370.99 109.73Z" />
		<path id="path4211" class="shp8" d="M261.71 113.75C255.35 126.57 270.18 131.69 283.39 134.82C284.6 135.11 286.42 134.59 286.22 134.14C283.65 128.53 280.09 124.33 279.04 118.86C278.8 117.62 278.09 115.99 277.06 114.88C278.44 115.22 281.24 115.82 282.57 117.21C287.85 122.75 290.85 135 290.44 137.55C288.14 139.79 285.62 140.02 282.37 140.02C269.56 135.96 253.43 133.88 250.53 122.96C249.01 117.25 257.73 115.56 261.71 113.75L261.71 113.75Z" />
		<path id="path4219" class="shp9" d="M289.81 133.92C290 132.01 291.79 134.36 291.57 136.31C291.09 140.67 285.99 140.4 281.81 139.68C268.24 137.33 253.92 132.46 250.1 122.73C248.73 119.23 253.52 117.09 255.83 115.77C249.6 128.5 270.98 136.21 283.78 136.52C286.67 136.6 289.56 136.62 289.81 133.92Z" />
		<path id="path4275" class="shp8" d="M385.65 131.58C373.27 130.68 353.2 130.42 352.28 114.71C352.42 110.37 354.72 107.1 359.77 106.85C356.1 114.42 367.93 124.19 380.46 125.99C383.75 126.37 388.73 126.31 383.67 121.82C379.47 118 374.07 113.44 373.36 108.32C374.24 107.68 375.3 108.41 376.05 108.53C379.28 115.26 384.91 120.03 387.83 123.84C389.19 125.61 392.05 129.58 385.65 131.58L385.65 131.58Z" />
		<path id="path4238" class="shp9" d="M355.89 109.2C354.02 120.67 368.82 125.43 379 127.53C386.04 128.58 387.12 128.67 388.7 126.24C391.82 129.65 389.76 131.15 385.69 132.44C372.24 132.45 355.63 128.33 352.68 116.19C351.97 113.28 354.4 110.91 355.89 109.2L355.89 109.2Z" />
		<path id="path4294" class="shp10" d="M216.42 86.6C216.43 85.79 218.36 85.2 220.26 84.98C222.01 84.79 224.62 85.25 224.97 85.99C225.52 87.16 223.18 88.13 220.44 88.34C217.31 88.58 216.39 88.09 216.42 86.6L216.42 86.6Z" />
		<path id="path4314" class="shp9" d="M213.62 95.79C222.03 97.86 231.48 91.71 231.29 87.77C232.49 89.02 232.92 90.95 233.19 92.45C228.66 102.94 219.81 103.14 209.82 102.63C198.78 102.06 205.49 92 208.55 87.87C207.53 93.04 210.5 95.02 213.62 95.79L213.62 95.79Z" />
		<path id="path4443" class="shp8" d="M313.51 75.94C316.02 79.66 319.31 80.27 322.32 80.31C327.35 80.37 329.7 78.99 329.61 76.59C332.21 77.98 333.1 81.2 332.07 83.04C328.7 89.08 322.89 89.66 316.86 88.45C309.55 86.97 302.86 86.21 302.25 79.84C301.78 75.02 311.84 70.39 313.9 70.88C312.34 72.51 312.77 74.85 313.51 75.94L313.51 75.94Z" />
		<path id="path5898" class="shp0" d="M328.02 87.78C322.57 94.49 297.21 95.35 295.47 84.66C294.9 81.16 298.59 79.87 301.98 77.59C308.01 82.35 317.76 87.01 328.02 87.78Z" />
		<path id="path4388" class="shp9" d="M309.63 72.59C308.98 79.27 314.96 82.41 320.52 83.04C325.92 83.64 331.45 83.28 330.97 78.64C332.73 79.86 332.4 83.88 331.27 85.24C327.67 89.6 321.17 89.27 315.86 88.65C309.91 87.95 304.69 85.97 302.85 80.84C301.8 77.91 308.4 73.75 309.63 72.59Z" />
		<path id="path4396" class="shp10" d="M371.13 84.54C371.16 84.93 369.36 84.98 368.38 83.91C368.32 83.84 365.71 82.06 367.83 81.82C369.65 81.6 370.96 82.42 371.13 84.54Z" />
		<path id="path5871" class="shp0" d="M368.79 95.7C360.38 101.24 346.96 94.32 346.98 89.81C347 85.48 351.52 84.1 353.5 83.53C357.91 89.64 362.6 92.92 368.79 95.7Z" />
		<path id="path4451" class="shp8" d="M364.12 85.37C367.39 87.59 370.4 89.1 373.17 88.77C374.53 88.6 374.76 87.62 375.72 86.93C377.65 88.79 379.1 91.69 377.7 93.15C372.93 98.18 365.41 95.46 360.72 93.3C356.52 91.36 352.19 89.57 353.36 85.51C354.11 82.91 358.56 81.28 362.84 80.7C360.27 83.19 362.3 84.13 364.12 85.37L364.12 85.37Z" />
		<path id="path4398" class="shp9" d="M358.96 81.13C354.9 87.94 375.29 95.02 376.91 91.05C376.16 97.86 371.59 96.4 365.7 95.05C358.45 93.4 353.26 91.7 353.29 85.64C353.3 84.23 355.58 82.65 358.96 81.13Z" />
		<path id="path4435" class="shp8" d="M258.91 74.03C255.99 77.93 259.2 80.59 261.82 81.64C270.25 85.04 275.79 82.79 278.33 78.84C280.55 80.15 280.11 82.36 280.03 83.44C279.41 91.72 272.28 92.41 266.42 92.45C257.76 92.51 249.47 90.88 248.61 83.04C247.92 76.86 253.77 75.75 258.91 74.03L258.91 74.03Z" />
		<path id="path4488" class="shp7" d="M315.06 26.6C317.4 24.22 326.5 23.77 329.47 25.6C335.3 29.17 337.13 35.39 336.28 41.61C329.75 36.82 318.8 29.49 315.06 26.6L315.06 26.6Z" />
		<path id="path4496" class="shp10" d="M221.98 53.82C223.17 54.41 220.42 56.12 217.78 56.42C216.73 56.54 212.88 55.16 215.18 53.62C217.37 52.15 219.61 52.65 221.98 53.82Z" />
		<path id="path4559" class="shp8" d="M226.12 57.2C227.88 56.37 227.76 54.73 228.24 53.81C230.03 53.86 230.28 55.16 231.21 55.79C226.83 65.25 208.86 74 202.91 63.71C203.94 60.36 206.56 57.6 208.14 54.73C206.43 63.7 219.62 61.9 226.12 57.2L226.12 57.2Z" />
		<path id="path4578" class="shp8" d="M253.21 35.6C252.01 40.49 252.79 42.47 256.21 43.81C264.32 46.98 273.02 44.91 274.83 38.01C275.4 38.51 276.53 39.11 276.23 39.81C272.31 49.02 260.31 51.47 252.21 50.42C247.45 49.8 245.96 45.75 246.6 41.61C247.12 38.28 250.72 37.4 253.21 35.6L253.21 35.6Z" />
		<path id="path4659" class="shp8" d="M168.34 131.08C174.04 143.81 187.76 143.62 199.17 138.49C196.37 153.04 175.05 147.55 165.74 144.89C164.75 140.32 165 135.66 168.34 131.08L168.34 131.08Z" />
		<path id="path4613" class="shp9" d="M166.14 133.08C167.45 139.52 169.09 140.28 170.64 141.19C179.7 146.55 192.21 143.46 200.17 139.09C195.73 150.14 176.73 149.25 167.34 146.69C163.4 143.97 164.45 136.83 166.14 133.08Z" />
		<path id="path4653" class="shp10" d="M179.75 129.08C182.7 131.78 184.87 136.99 188.36 138.29C181.33 137.37 179.81 133.57 173.75 129.48C171.67 128.08 175.98 125.63 179.75 129.08Z" />
		<path id="path4686" class="shp8" d="M433.33 103.93C433.39 111.41 444.3 113.01 450.53 113.29C456.61 113.56 461.04 110.68 463.9 105.75C464.86 116.25 455.2 121.65 444.93 121.18C434.09 120.68 427.46 117.88 427.24 110.28C427.16 107.44 431.23 105.15 433.33 103.93Z" />
		<path id="path4720" class="shp9" d="M430.92 106.6C431.25 116.31 444.77 116.82 452.8 116.08C457.05 115.69 460.79 113.58 463.62 110.42C460.97 118.24 451.85 121.57 444.79 121.6C435.55 121.65 428.05 119.34 427.24 112.12C426.91 109.12 429.21 108.21 430.92 106.6Z" />
		<path id="path4741" class="shp10" d="M452.28 105.82C451.95 104.88 453.45 103.39 455.88 102.81C457.9 102.33 460.41 101.65 460.29 103.61C460.15 105.68 458.57 106.96 456.08 107.02C454.78 107.05 452.77 107.21 452.28 105.82L452.28 105.82Z" />
		<path id="path4751" class="shp8" d="M428.35 86.65C428.56 89.89 429.46 92.05 431.95 93.85C428.84 94.53 426.45 93.52 423.65 92.85C423.74 89.82 426.22 88.18 428.35 86.65Z" />
		<path id="path4743" class="shp9" d="M429.25 93.55C426.74 93.92 425.91 92.85 423.55 92.75C423.55 89.71 425.61 88.69 426.9 87.9C426.68 89.57 426.91 91.88 429.25 93.55L429.25 93.55Z" />
		<path id="path4770" class="shp10" d="M247.63 11.91C248.35 13.71 244.68 12.78 243.82 12.87C242.61 13.01 238.68 11.65 239.71 10.5C241.76 8.19 246.42 8.89 247.63 11.91Z" />
		<path id="path4772" class="shp10" d="M288.39 5.83C290.44 6.38 292.1 7.06 292.78 8.37C293.03 8.84 292.23 9.61 291.51 9.65C289.62 9.75 288.03 9.06 286.98 7.95C286.3 7.23 286.84 5.41 288.39 5.83L288.39 5.83Z" />
		<path id="path4774" class="shp10" d="M329.58 26.92C330.5 27.77 332.6 29.08 333.26 31.02C332.14 30.97 331.31 31.85 330.29 30.88C328.56 29.25 327.9 27.84 329.58 26.92L329.58 26.92Z" />
		<path id="path4780" class="shp8" d="M320.95 25.36C320.55 26.75 320.11 29.11 322.65 32.01C320.01 30.59 318.24 29.26 316.14 27.48C317.68 25.95 319.35 25.74 320.95 25.36L320.95 25.36Z" />
		<path id="path4788" class="shp8" d="M335.1 37.39C335.1 38.49 336.61 39.29 335.1 40.5C333.84 39.81 332.45 40.12 331.56 38.52C332.47 38.23 335.16 38.45 335.1 37.39L335.1 37.39Z" />
		<path id="path4796" class="shp8" d="M279.23 6.18C276.8 9.64 278.18 12.13 281.03 13.79C285.98 16.66 292.29 16.46 296.04 15.79C297.56 15.51 297.89 14.65 298.65 14.19C299.63 15.69 300.5 18.1 300.85 19.39C289.34 19.27 273.92 24.04 270.02 19.19C266.95 15.36 276.52 8.31 279.23 6.18L279.23 6.18Z" />
		<path id="path4804" class="shp8" d="M232.19 11.18C230.58 15.79 232.19 21.38 235.4 21.99C244.01 23.65 252.67 20.42 257.81 16.99C252.71 26.74 236.25 31.79 225.39 29.2C221.62 21.06 226.92 16.78 232.19 11.18L232.19 11.18Z" />
		<path id="path4812" class="shp8" d="M212.38 34C212.56 34.69 213.57 35.25 212.98 36.2C212.11 36.86 212.03 38.21 210.58 38.01C210.44 37.93 209.4 36.22 207.77 36.4C210.27 35.86 211.54 34.66 212.38 34L212.38 34Z" />
		<path id="path4886" class="shp9" d="M231.99 24.79C240.59 27.6 251.73 23.5 257.41 19.39C254.51 24.73 246.4 27.38 240.8 28.6C235.49 29.75 228.14 31.75 225.19 28.4C221.81 24.57 226.29 19.37 228.29 15.79C227.37 20.44 228.55 23.67 231.99 24.79Z" />
		<path id="path4923" class="shp9" d="M277.83 16.79C282.95 19.35 288.62 19.19 294.24 19.39C288.43 21.32 280.28 23.62 276.63 21.79L270.22 18.59C267.42 17.19 272.43 13.36 274.23 11.18C273.26 15.03 274.92 15.33 277.83 16.79L277.83 16.79Z" />
		<path id="path5009" class="shp6" d="M378.84 217.14C377.13 220.3 374.73 220.74 371.33 222.09C368.17 215.05 372.53 206.2 372.61 198.03C374.53 197.39 379.54 195.7 381.95 196.33C383.22 204.28 373.62 209.84 378.84 217.14Z" />
		<path id="path5017" class="shp6" d="M390.02 196.05C389.09 202.88 390.26 211.21 394.48 217C394 217.76 386.46 217.79 386.2 220.25C382.57 215.23 382.49 206.2 384.91 200.24C385.69 198.32 384.34 184.05 384.6 186.31C385 189.74 389.19 194.32 390.02 196.05L390.02 196.05Z" />
		<path id="path5025" class="shp12" d="M389.81 214.52C392.98 215.28 395.29 219.67 396.32 222.94C394.53 225.62 391.84 227.24 388.32 225.77C387.09 222.76 386.57 216.73 389.81 214.52L389.81 214.52Z" />
		<path id="path5027" class="shp13" d="M390.1 214.36C389.32 217.28 390.06 221.57 391.01 223.93C392.86 224.8 394.9 223.27 396.1 222.73C394.9 226.5 390.94 226.73 387.89 225.21C386.78 221.02 386.48 215.99 390.1 214.36L390.1 214.36Z" />
		<path id="path5029" class="shp14" d="M389.87 224.41C391.35 225.52 393.26 224.4 394.65 223.96C392.92 226.76 389.86 226.88 387.22 225.56C385.93 222.01 386.98 217.32 389.36 214.8C388.41 217.22 388.46 222.28 389.87 224.41Z" />
		<path id="path5514" class="shp12" d="M376.71 214.55C379.56 216.92 383.85 224.01 381.11 226.66C378.61 229.08 374.55 230.25 371.61 226.56C368.97 223.26 372.11 217.23 376.71 214.55L376.71 214.55Z" />
		<path id="path5529" class="shp13" d="M375.64 226.67C377.34 228.09 379.47 226.78 381.31 226.26C379.15 230.45 374.02 230.54 372.01 227.86C368.57 223.29 373.38 216.86 377.11 214.7C374.97 218.41 374.05 225.33 375.64 226.67Z" />
		<path id="path5548" class="shp14" d="M373.92 226.53C374.6 228.66 379.12 227.82 380.61 226.91C377.41 229.69 373.75 230.06 371.12 226.91C370.51 223.13 373.23 217.42 376.35 215.3C374.15 218.61 373.05 223.79 373.92 226.53Z" />
		<path id="path5596" class="shp12" d="M358.1 223.3C358.71 218.63 359.96 214.05 364.19 212.11C365.94 214.42 369.27 219.26 366.59 223.93C363.93 226.43 361 225.41 358.1 223.3L358.1 223.3Z" />
		<path id="path5612" class="shp13" d="M363.62 221.53C363.68 222.65 364.92 223.64 366.73 223.72C363.61 226.03 359.69 225.16 358.24 223.15C357.68 217.77 362 213.94 364.75 213.11C363.01 216.01 363.46 218.49 363.62 221.53L363.62 221.53Z" />
		<path id="path5631" class="shp14" d="M362.06 222.31C363.33 223.76 363.37 223.98 365.04 224.36C362.55 224.87 360 224.68 358.24 223.23C357.39 218.75 361.72 214.52 364.44 212.54C362.47 215.13 361.63 219.14 362.06 222.31Z" />
		<path id="path5683" class="shp13" d="M360.58 215.65C359.76 216.53 359.18 217.28 358.88 218.63C356.91 218.36 354.22 218.18 352.94 216.64C353.87 212.72 355.21 209.21 359.09 206.81C360.62 208.92 360.28 212.71 360.58 215.65Z" />
		<path id="path5710" class="shp14" d="M356.26 215.16C356.95 216.68 357.92 217.05 358.95 217.56C358.7 217.95 358.73 218.26 358.6 218.7C356.31 218.86 354.38 218.1 352.72 217C352.14 211.85 354.95 208.45 359.27 206.95C357.9 208.16 356.52 212.36 356.26 215.16L356.26 215.16Z" />
		<path id="path5766" class="shp6" d="M323.11 144.57C315.34 146.39 304.43 140.93 301 132.18C299.53 128.42 301.21 124.17 302.58 119.94C307.64 127.08 320.39 131.47 326.5 132.4C323.99 135.8 327.5 143.54 323.11 144.57L323.11 144.57Z" />
		<path id="path5785" class="shp0" d="M203.89 238.56C214.79 234.62 222.4 228.37 229.91 227C242.05 221.09 238.42 203.56 247.41 195.13C261.93 180.21 261.56 167.55 259.73 147.48C276.64 163.66 259.45 182.16 251.01 196.73C243.1 221.85 234.45 233.21 208.17 241.97C203.13 242.09 204.83 240.17 203.89 238.56Z" />
		<path id="path5810" class="shp6" d="M327.87 89.05C318.56 92.24 307.96 93.23 301.23 88.1C294.84 83.23 301.05 81.95 301.05 78.42C306.2 87.51 316.72 89.53 327.87 89.05Z" />
		<path id="path6045" class="shp0" d="M247.41 83.24C253.68 90.78 262.73 91.02 273.63 92.25C263.97 102.41 244.95 102.73 242.2 97.45C239.59 92.45 243.49 85.95 247.41 83.24L247.41 83.24Z" />
		<path id="path5847" class="shp6" d="M271.69 92.87C266.03 96.65 256.96 99.13 249.01 95.82C243.47 93.51 243.75 89.86 247.63 84.94C252.91 91.73 260.75 95.11 271.69 92.87Z" />
		<path id="path5855" class="shp6" d="M365.11 96.27C358.1 97.42 355.74 94.39 351.71 91.82C346.77 88.68 351.18 85.82 351.24 85.51C354.53 91.3 359.35 92.94 365.11 96.27L365.11 96.27Z" />
		<path id="path5890" class="shp0" d="M342.74 52.11C347.59 60.91 349.8 63.17 360.58 65.41C350.04 68.93 338.05 65.13 335.67 57.49C334.47 53.64 339.44 52.59 342.74 52.11L342.74 52.11Z" />
		<path id="path5863" class="shp6" d="M339.06 58.34C337.02 54.72 339.7 54.11 341.05 52.67C342.87 59.06 353.51 63.48 356.9 65.7C350.08 66.5 341.57 62.78 339.06 58.34L339.06 58.34Z" />
		<path id="path5906" class="shp6" d="M323.87 52.02C315.14 56.39 303.91 54.54 297.72 50.71C293.92 48.36 291.5 42.58 295.44 42.41C303.98 46.25 312.79 52.3 323.87 52.02Z" />
		<path id="path5289" class="shp2" d="M238.5 70.53C237.91 70.26 236.91 69.96 235.6 68.93C237.51 61.91 236.89 52.02 234.19 44.81C237.81 50.83 240.36 61.14 238.5 70.53Z" />
		<path id="path6037" class="shp0" d="M244.52 47.3C253.15 52.75 260.03 53.94 272.54 49.7C264.38 58.4 241.7 70.15 235.32 64.42C230.54 60.13 240.48 51.12 244.52 47.3L244.52 47.3Z" />
		<path id="path5951" class="shp6" d="M243.6 49.51C251.22 58.07 260.57 53.05 272.43 49.21C265.88 56.63 246.62 63.39 241.2 59.42C238.28 57.29 240.74 53.54 243.6 49.51Z" />
		<path id="path6029" class="shp0" d="M252.16 25.22C240.6 35.94 216.31 43.58 213.81 37.67C211.68 32.65 219.56 28.93 223.43 26.49C231.58 32.13 246.14 29.17 252.87 24.79" />
		<path id="path6346" class="shp5" d="M205 50.75C205.67 58.51 204.9 65.37 195.75 66.75C195.68 68.36 195.29 70.53 195.5 72.5C190.84 69.55 182.87 67.39 183.13 55C183.14 54.26 184.18 54.11 184.65 55.2C186.16 58.68 189.33 62.04 192.25 59.5C191.5 57.74 184.28 47.22 188.25 40.37C192.94 39.26 199.48 47.32 205 50.75Z" />
		<path id="path4168" class="shp7" d="M221.33 41.4C214.03 43.09 204.11 50.38 197.71 56.91C194.9 59.78 189.48 51.56 189.2 43.18C189.04 38.48 191.02 34.41 193.91 32.99C198.98 30.5 218.65 32.19 221.33 41.4Z" />
		<path id="path4678" class="shp8" d="M193.51 34.59C190.77 37.56 192 41.27 194.31 44.6C196.48 47.71 202.42 41.69 205.92 39.99C210.58 37.73 216.6 38.94 219.73 39.79C209.75 43.13 206.17 48.12 200.92 55.41C196.93 60.94 195.56 58.15 193.61 55.21C188.87 48.05 187.87 39.6 193.51 34.59L193.51 34.59Z" />
		<path id="path5970" class="shp6" d="M251.21 25.6C240.87 33 224.91 38.28 218.98 35.6C215.15 33.88 220.42 29.58 222.59 26.8C230.31 34.63 243.71 28.72 252.01 25.4" />
		<path id="path6053" class="shp0" d="M297.65 20.79C293.4 25.61 270.27 29.05 266.02 24.39C263.69 21.84 265.6 19.6 269.22 17.19C275.16 24 289.44 19.67 297.65 20.79Z" />
		<path id="path5978" class="shp6" d="M300.05 19.99C294.77 24.07 281.05 24.99 274.03 24.39C267.52 23.84 267.25 21.4 268.22 17.99C277.51 23.73 290.89 21.66 300.05 19.99Z" />
		<path id="path5148" class="shp0" d="M200.02 80.87C212.69 79.61 223.35 70.04 235.32 68.95C233.84 68.64 237.43 69.82 238.57 70.79C227.66 73.82 210.3 81.47 201.63 83.53C202.16 82.28 200.3 81.48 200.02 80.87L200.02 80.87Z" />
		<path id="path6784" class="shp0" d="M201.71 85.31C203.64 84.54 210 82.06 217.18 79.19C215.96 87.06 204.55 89.44 202.51 92.21C201.95 89.74 201.9 87.69 201.71 85.31Z" />
		<path id="path5986" class="shp6" d="M223.59 68.23C219.15 71.46 215.74 75 211.98 77.61C214.87 77.11 218.26 74.71 218.11 75.14C217.82 75.94 215.03 78.93 213.81 79.37C211.65 80.15 202.98 84.36 200.18 84.24C198.98 82.54 194.94 72.8 194.42 72.09C194.73 66.66 199.46 68.01 201.97 65.43C205.67 75.59 216.69 72.02 223.59 68.23L223.59 68.23Z" />
		<path id="path5994" class="shp6" d="M226.12 100.23C221.48 102.82 216.52 105.56 211.35 107.37C210.53 107.66 219.69 107.04 218.95 107.14C218.14 107.57 218.09 108.71 215.88 109.02C214.28 109.23 206.95 108.59 206.65 108.66C204.14 109.22 201.67 109.54 199.09 109.43C199.77 105.21 201.08 101.69 201.92 97.68C209.03 103.22 218.23 102.11 226.12 100.23L226.12 100.23Z" />
		<path id="path6069" class="shp0" d="M201.97 221.55C205.74 219.27 210.37 215.65 212.98 213.95C208.41 217.48 206.72 222.31 204.97 227.56C201.77 230.5 199.14 234.4 197.16 237.37C196.17 232.6 200.93 223.87 201.97 221.55L201.97 221.55Z" />
		<path id="path6077" class="shp0" d="M185.15 230.16C182.7 229.46 180.43 228.41 177.35 228.76C177.98 225.3 178.23 222.56 180.75 219.55C184.31 213.92 190.96 211.74 198.57 209.54C196.46 211.93 194.01 214.14 191.56 217.15C189.99 221.08 188.81 225.6 185.15 230.16L185.15 230.16Z" />
		<path id="path4273" class="shp2" d="M287.76 59.47C296.45 58.11 311.36 61.35 322.1 62.49C326.69 62.98 332.76 63.85 335.3 64.55C335.31 64.82 336.14 65.23 336.02 65.6C334.1 64.52 326.09 64.11 322.29 63.95C310.77 63.46 297.27 62.4 290.52 61.17C289.67 60.52 287.52 61.71 287.76 59.47L287.76 59.47Z" />
		<path id="path4791" class="shp2" d="M340.77 97.59C340.19 97.07 339.62 96.99 338.53 95.82C341.27 86.31 340.92 77.77 340.95 73.33C343.71 77.9 342.67 89 340.77 97.59L340.77 97.59Z" />
		<path id="path4816" class="shp0" d="M341.16 98.21C324.71 103.82 302.37 107.03 287.38 101.57C287.72 100.42 288.65 99.51 288.69 98.88C303.09 103.45 324.9 99.88 338.76 95.67C339.62 96.97 340.19 97.07 341.16 98.21Z" />
		<path id="path4835" class="shp0" d="M279.99 27.97C292.72 23.59 309.94 30.48 312.66 32.2C311.59 32.65 311.58 32.11 310.36 32.4C303.63 29.75 289.17 28.47 281.45 28.72C281.05 28.51 281.4 29.41 278.63 29.9C278.83 28.86 279.72 28.8 279.99 27.97L279.99 27.97Z" />
		<path id="path5765" class="shp0" d="M331.7 44.75C336.16 45.11 339.62 48.66 342.18 50.41C342.45 51.3 342.04 50.76 341.9 51.12C338.59 48.41 335.66 47.25 331.99 46.02C331.94 45.59 331.8 45.17 331.7 44.75L331.7 44.75Z" />
		<path id="path4843" class="shp6" d="M331.75 45.43C333.32 45.94 334.26 46.79 334.26 46.79C335.35 50.87 337.65 57.72 336.99 62.42C336.44 63.14 335.88 63.68 335.38 64.6C334.65 59.55 335.26 50.9 331.75 45.43L331.75 45.43Z" />
		<path id="path4870" class="shp6" d="M281.19 28.58C291 36.78 293.63 48.25 288.04 59.42C287.18 60.18 286.61 59.11 286.24 59.02C289.45 49.34 284.36 36.18 278.72 29.78C279.61 29.28 280.73 29.16 281.19 28.58L281.19 28.58Z" />
		<path id="path4895" class="shp0" d="M238.59 70.87C239.42 70.24 240.66 69.81 241.27 69.28C252.82 63.78 269.22 57.25 284.24 56.62C285.37 57.62 286.46 58.67 287.64 59.62C276.79 60.12 262.98 64.86 251.23 68.45C246.42 69.91 241.11 71.19 238.59 70.87L238.59 70.87Z" />
		<path id="path4903" class="shp2" d="M284.05 56.85C285.45 48.35 284.19 34.41 278.33 29.9C286.06 35.91 288.53 48.73 287.69 59.52C286.81 58.7 284.95 57.94 284.05 56.85L284.05 56.85Z" />
		<path id="path4941" class="shp6" d="M290.25 61.12C295.03 71.75 290.95 93.05 288.11 100.94C287.64 101.27 287.24 101.75 286.7 101.93C289.44 88.77 288.07 73.6 287.42 59.33C288.26 59.73 288.78 60.9 290.25 61.12Z" />
		<path id="path4950" class="shp2" d="M283.93 61.18C285.24 59.95 286.29 59.6 287.46 59.44C290.85 72.47 291.28 89.74 287.12 102.21C285.74 100.83 286.13 100.56 285.42 99.38C285.05 95.68 286.73 91.37 286.94 86.94C287.42 77.15 285.67 67.51 283.93 61.18L283.93 61.18Z" />
		<path id="path4986" class="shp0" d="M335.23 64.66C326.04 62.3 301.25 61.8 287.4 59.19C288.42 58.89 289.1 56.9 289.31 56.64C304.71 60.27 325.01 60.62 333.52 61.95C333.63 62.96 335.27 63.94 335.23 64.66Z" />
		<path id="path5024" class="shp2" d="M248.2 69.38C259.65 66.68 272.38 58.44 286.55 59.47C286.18 59.71 284.84 61.17 283.72 61.31C278.44 60.05 269.44 63.25 262.64 65.84C255.03 68.72 249.71 72.73 240.06 72.7C239.74 72.3 238.98 71.71 238.43 71.07C240.28 70.74 246.08 69.87 248.2 69.38Z" />
		<path id="path5049" class="shp0" d="M285.44 99.26C286.08 99.95 286.37 100.49 287.24 101.86C278.22 104.96 272.64 106.39 264.62 108.46C258.2 110.12 246.09 108.43 240.6 106.86C241.1 105.87 241.86 104.97 242.1 103.76C249.47 105.95 257.21 104.64 264.42 103.86C271.91 103.04 277.73 98.55 285.44 99.26L285.44 99.26Z" />
		<path id="path5068" class="shp6" d="M240.2 72.63C239.71 76.43 239.84 81.06 239.69 84.37C242.86 90.92 243.27 97.9 242.4 104.26C241.38 105.26 241.11 106.32 240.4 107.46C241.38 100.1 240.69 90.86 238.8 86.65C237.82 82.32 238.27 73.27 238.6 70.83C239.1 71.96 239.24 71.55 240.2 72.63L240.2 72.63Z" />
		<path id="path5110" class="shp2" d="M235.2 72.23C235.4 71.51 236.83 70.89 238.69 70.96C238.25 74.19 238.01 82.2 239 86.34C240.41 92.26 241.54 99.2 240.6 106.06C240.02 106.18 237.68 105.45 236.9 105.26C241.06 94.33 235.73 86.01 235.2 72.23Z" />
		<path id="path5140" class="shp0" d="M237.5 103.86C238.72 105.15 239.89 105.5 240.8 106.26C232.45 108.86 225.11 109.39 216.38 109.01C217.17 108.55 217.57 108.08 218.79 107.14C228.6 105.55 230.45 106.68 237.5 103.86Z" />
		<path id="path5156" class="shp2" d="M235.32 72.21C224.39 75.85 213.13 81.56 201.21 85.51C201.11 85.04 200.95 84.58 200.93 84.1C204.48 83.61 209.83 80.9 213.53 79.37C221.12 76.24 229.45 71.64 238.72 70.79C237.93 71.04 235.92 71.38 234.75 72.35" />
		<path id="path5182" class="shp6" d="M238.36 70.08C239.95 63.4 239.4 50.48 231.78 41.35C231.97 40.93 232.16 40.68 232.35 40.08C233.93 42.12 236.35 45.21 238.15 48.43C241.96 54.77 241.09 61.62 241.33 69.16C240.53 69.64 239.26 70.64 238.43 71.07" />
		<path id="path5237" class="shp6" d="M262.49 18.42C262.93 18.19 263.94 18.1 264.19 17.29C266.42 22.6 273.3 26.98 280.08 27.98C279.68 28.5 279.58 28.71 278.74 29.71C277.14 28.99 277.82 29.05 277.05 28.34C272.6 26.51 264.78 23.54 262.49 18.42L262.49 18.42Z" />
		<path id="path5218" class="shp0" d="M248.62 34.42C242.89 36.29 235.46 39.59 231.29 40.5C231.77 39.71 231.7 38.68 231.71 38.66C241.06 36.11 252.91 29.64 261.64 28.76C266.81 28.23 272.8 28.03 277.04 28.22C277.68 29 278.78 29.51 278.91 29.85C267.35 28.68 257.02 31.67 248.62 34.42Z" />
		<path id="path5256" class="shp0" d="M231.29 40.81C221.14 44.03 207.88 46.05 201.57 54.62C201.81 53.79 201.37 53.39 201.27 52.72C207.67 42.96 221.06 43.64 229.79 39.71C231.07 39.01 230.73 40.4 231.29 40.81Z" />
		<path id="path5264" class="shp6" d="M229.56 39.67C224.74 37.54 222.78 34.59 220.17 33.26C218.55 32.43 214.32 31.89 213.44 31.29C213.99 30.9 215.04 30.59 215.56 30.31C217.28 32.24 221.73 31.55 223.64 32.72C226.67 34.57 229.58 38.28 231.57 38.73C231.73 39.77 231.69 40.52 231.57 40.89C230.97 40.37 229.9 40.11 229.56 39.67L229.56 39.67Z" />
		<path id="path5326" class="shp6" d="M340.93 98.33C342.06 88.95 342.52 72.3 335.33 64.54C335.89 64.35 337.69 65.28 338.25 65.24C344.71 74.53 345.03 83.68 343.74 94.85C343.37 95.31 342.24 97.8 340.93 98.33L340.93 98.33Z" />
		<path id="path5345" class="shp6" d="M386.12 83.04C394.16 91.5 393.34 97.48 391.46 104.13C390.8 103.92 389.74 105.77 389.32 105.06C393.88 94.2 387.56 89.09 386.12 83.04L386.12 83.04Z" />
		<path id="path5353" class="shp0" d="M343.68 94.25C359.35 94.4 373.39 104.52 388.52 102.46C388.86 103.67 389.36 103.95 389.77 104.91C379.02 105.17 368.45 102.53 360.3 99.66C352.15 96.79 346.71 96.97 341.28 97.95C342.52 96.57 342.95 95.55 343.68 94.25Z" />
		<path id="path5389" class="shp2" d="M388.42 102.36C390.2 100 390.27 96.29 390.37 93.75C391.43 97.24 390.6 101.85 389.52 104.56C388.69 103.89 388.86 103.23 388.42 102.36Z" />
		<path id="path5397" class="shp6" d="M386.12 83.24C386.12 83.24 386.25 83.4 385.64 82.18C386.07 80.65 384.95 77.78 384.23 76.87C384.63 76.84 384.68 77.26 385.08 77.27C386.01 78.66 387.39 80.78 387.39 82.06C387.19 82.23 386.89 83 386.12 83.24L386.12 83.24Z" />
		<path id="path5422" class="shp2" d="M389.42 104.96C389.45 105.7 390.26 106.09 390.62 106.56C384.1 106.08 365.25 102.72 358.01 100.17C357.71 100.07 348.93 97.62 342.43 99.11C341.37 98.75 341.48 98.32 341.27 97.91C344.22 97.02 350.43 97.32 351.43 97.4C356.26 97.8 371.18 102.87 373.73 103.36C380.81 104.7 385.54 104.9 389.42 104.96L389.42 104.96Z" />
		<path id="path5441" class="shp2" d="M216.36 108.95C224.86 109.43 231.33 108.16 240.41 106.32C244.91 108.34 251.11 107.66 256.83 107.59C266.75 106.24 276.79 102.81 287.26 101.5C293.52 101.79 302.27 103.71 309.63 104.05C320.48 104.05 330.12 100.61 341.05 97.97C339.52 99.07 339.64 99.53 338.4 99.98C333.51 101.91 321.18 105.19 315.99 106.32C307.98 107.49 295.67 103.96 288.93 102.6C287.63 102.34 288.7 102.59 287.69 102.5C272.37 106.11 253.34 115.26 238.36 107.77C231.38 110.03 221.74 109.53 213.51 109.53" />
		<path id="path5449" class="shp2" d="M240.47 106.99C241.37 112.3 238.82 117.16 238.01 121.6C238.84 117.12 239.17 111.27 238.33 107.72C239.04 107.25 239.97 107.43 240.47 106.99Z" />
		<path id="path5457" class="shp6" d="M240.53 106.76C241.19 106.57 241.52 108.64 242.11 108.3C241.96 111.62 240.3 118.97 238.01 123.02C239.09 118.47 239.51 111.42 240.53 106.76Z" />
		<path id="path5492" class="shp7" d="M331.87 114.67C334.78 120.17 338.24 126.68 342.08 133.08C343.88 136.08 341.85 137.19 336.68 137.09C324.26 136.84 305.39 133.51 305.05 119.87C304.84 111.57 311.76 108.62 321.06 109.86C324.38 110.31 329.64 110.44 331.87 114.67Z" />
		<path id="path5519" class="shp8" d="M314.44 110.99C312.97 111.27 313.07 115.23 313.02 116.51C312.81 122.42 327.91 130.91 337.22 132.36C339.62 132.73 332.17 127.75 331.34 119.65C331.01 116.47 330.19 114.67 327.39 112.47C332.44 113.79 340.48 127.06 341.65 133.3C342.05 135.44 339.21 136.69 338.36 137.03C324.92 137.19 308.17 134.02 304.81 119.9C304.88 113.9 309.65 112.13 314.44 110.99L314.44 110.99Z" />
		<path id="path5511" class="shp9" d="M309.48 112.36C306.54 124.42 325.55 131.46 334.89 133.15C338.11 133.74 340.12 133.86 339.97 132.19C340.79 132.82 341.95 134.23 342.48 134.88C330.82 141.93 306.09 132.74 303.06 120.93C301.9 116.4 306.66 114.68 309.48 112.36Z" />
		<path id="path5544" class="shp10" d="M326.18 115.94C326.31 117.26 325.76 118.65 326.18 119.9C327.1 122.57 331.9 126.34 329.02 125.28C325.47 123.99 322.46 123 320.38 118.21C319.21 115.51 319.65 110.71 322.65 111.13C325.09 111.47 325.94 113.25 326.18 115.94Z" />
		<path id="path5546" class="shp6" d="M340.68 98.05C342.07 97.8 341.74 98.87 342.46 99.21C340.95 102.97 339.87 107.32 339.88 112.67C339.23 107.72 338.74 102.33 340.68 98.05L340.68 98.05Z" />
		<path id="path5565" class="shp2" d="M339.88 111.06C338.79 107.27 337.59 104.6 338.4 100.04C339.26 100.04 339.92 97.77 340.79 97.77C340.21 99.11 338.36 106.65 339.88 111.06Z" />
		<path id="path5586" class="shp2" d="M287.24 101.86C288.53 104.1 291.24 109.89 291.24 114.57C290.15 110.12 287.85 106.39 286.09 102.86C286.7 102.54 286.64 102.06 287.24 101.86L287.24 101.86Z" />
		<path id="path5594" class="shp6" d="M288.74 102.36C290.97 106.37 291.21 109.28 291.14 114.07C290.58 108.3 288.68 105.04 287.19 101.86C287.88 101.79 288.23 102.15 288.74 102.36L288.74 102.36Z" />
		<path id="path5613" class="shp0" d="M387.33 82.08C389.25 83.33 391.25 84.11 393.42 85.14C390.64 85.18 388.35 83.96 386.14 83.08C386.32 82.58 387.18 82.61 387.33 82.08L387.33 82.08Z" />
		<path id="path5638" class="shp2" d="M386.05 83.03C385.72 82.45 385.58 81.94 385.35 81.26C385.37 80.69 385.38 79.93 385.31 79.25C385.75 80.22 386.16 81.69 386.05 83.03L386.05 83.03Z" />
		<path id="path5657" class="shp0" d="M391.43 103.98C395.94 106.12 401.24 106.07 406.08 107.17C400.44 107.57 394.53 106.22 389.59 105.04C390.42 104.75 390.83 104.38 391.43 103.98Z" />
		<path id="path5665" class="shp2" d="M389.45 104.76C393.83 106.06 395.81 106.4 399.43 106.95C395.37 107.44 394.07 106.76 390.36 106.44C389.58 106.05 389.5 105.24 389.45 104.76Z" />
		<path id="path5690" class="shp6" d="M389.73 104.97C390.69 106.14 391.29 106.17 391.43 106.32C391.76 109.44 390.4 111.66 389.59 113.68C391.03 110.85 390.21 107.58 389.73 104.97Z" />
		<path id="path5709" class="shp2" d="M389.72 104.86C390.31 106.91 391.05 109.58 390.22 111.92C390.06 110.04 390.35 107.99 389.02 106.26C389.36 106.08 389.61 105.35 389.72 104.86Z" />
		<path id="path5734" class="shp6" d="M312.76 27.1C313.02 27.76 314.75 29.4 315.26 30.6C314.91 30.67 314.14 30.9 313.36 30.9C312.49 29.33 311.58 26.36 310.96 26.2C311.5 26.47 312.32 26.28 312.76 27.1Z" />
		<path id="path5865" class="shp2" d="M335.38 64.56C336.59 64.49 337.53 65.03 338.22 65.34C348.29 68.21 359.96 70.26 369.35 74.75C364.56 71.43 343.04 64.68 335.38 64.56Z" />
		<path id="path5885" class="shp11" d="M201.17 90.65C201.7 102.78 196.26 117.14 185.96 123.88C185.27 121.47 184.98 119.6 183.75 117.27C191.2 112.57 200.88 102.27 201.17 90.65L201.17 90.65Z" />
		<path id="path5887" class="shp10" d="M150.93 58.02C161.06 51.37 168.06 51.51 173.95 60.82C176.22 76.18 173.08 89.34 167.54 101.66C166.65 84.91 160.72 68.05 151.53 57.02" />
		<path id="path6628" class="shp15" d="M154.16 57.38C166.78 63.69 173.37 78.49 171.31 95.04C170.9 96.19 171.16 96.84 170.25 98.04C170.25 82.48 167.7 66.31 152.92 58.8C153.43 58.22 154.86 58.95 154.16 57.38Z" />
		<path id="path4023" class="shp16" d="M151.86 57.52C170.96 65.81 175.97 91.42 164.71 109.97C161.72 111.61 155.74 116.18 150.26 117.99C153.31 104.58 157.12 76.11 139.56 65.55C144.26 61.68 146.99 60.32 151.86 57.52Z" />
		<path id="path6228" class="shp11" d="M179.44 58.97C178.06 59.22 177.99 61.19 177.36 74.19C175.85 104.79 158.01 112.64 158.01 112.64C166.03 112.01 169.65 104.78 174.01 79.87C176.65 64.78 174.28 58.92 164.77 52.43C162.36 53.01 155.27 54.78 151.68 57.03C139.12 66.8 128.51 83.57 111.91 90.62C108.67 91.35 104.59 89.91 102.89 84.25C106.53 87.44 108.99 88.39 111.6 86.77C125.11 78.37 132.92 67.39 146.03 55.97C151.98 50.78 153.93 51.28 163.35 49.25C169.2 50.36 175.23 55.51 179.44 58.97L179.44 58.97Z" />
		<path id="path6247" class="shp11" d="M125.5 115.25C135.21 112.74 144.79 118.65 153.12 117.25C152.95 118.48 151.84 118.91 151.25 119.5C145.07 120.53 140.8 119.14 135.37 117.37C133.35 116.72 128.58 115.92 125.5 115.25Z" />
		<path id="path6634" class="shp17" d="M143.62 64.75C145.76 62.25 150.31 60.79 153.37 60.12C151.29 61.18 149.73 62.25 148.13 63.5C150.3 61.9 154.36 61.5 156.2 61.42C154.43 62.17 153.42 63.01 152.25 63.75C153.66 62.72 155.14 62.87 156.88 62.87C154.58 63.46 152.89 65.28 151.5 66.5C154.03 65.63 156.07 64.8 158.38 64.25C157.13 65.56 155.43 66.37 154.13 67.12C156.4 66.47 159.8 65.45 161.55 65.69C159.57 66.08 157.14 68.17 155.63 69C156.29 68.87 156.94 68.92 157.63 68.87C156.36 69.62 155.43 70.74 154.63 71.5C156.57 70.99 158.46 70.6 159.88 70.12C158.77 70.13 157.88 71.25 157.88 71.25C159.76 70.54 162.45 70.29 164.47 70.2C161.81 70.54 158.77 72.69 157.13 73.62C158.47 73.38 161.37 72.16 161.75 72C161.16 72.64 160.3 73.36 159.88 73.75C162.62 73.22 165.24 73.38 166.52 73.16C163.99 73.93 159.61 75.14 157.75 76.87C160.47 75.99 163.15 75.65 165.75 75.87C164.69 76.77 163.35 76.61 162.13 76.87C163.66 76.45 164.95 77.25 166 77.5C164.03 78.73 162.07 79.27 160.25 80C162.29 80.07 164.42 79.96 166.38 79.87C164.77 81 162.85 81.16 161 81.5C163.64 81.83 166.53 81.4 168.75 81C166.33 82.79 162.12 83.1 160.63 83.37C161.63 83.37 162.63 83.37 163.63 83.37C162.6 83.79 162.02 84.39 161.25 84.87C163.74 84.9 166.03 84.73 168.38 84.62C165.89 84.87 163.68 85.76 161.75 86.62C164.17 86.34 166.48 86.65 168.88 86.75C167.57 86.73 166.3 86.82 165 86.87C166.3 87.02 167.1 87.55 168.25 88.12C165.75 88.08 164.09 88.96 162.13 89.75C164.45 91.18 166.82 90.49 168.75 89.87C166.99 90.61 165.38 91.17 163.63 91.75C165.43 92.25 167.38 92.01 168.88 91.87C166.6 92.97 163.82 93.82 161.75 94.25C163.98 95.12 167.03 94.95 168.75 94.87C167.82 94.89 167.06 95.21 166.25 95.37C167.1 95.7 168.4 96.4 168.63 96.5C166.48 96.86 164.26 96.97 162.25 96.87C163.83 97.37 165.99 98.16 166.75 98.5C164.83 98.55 163.02 98.96 161.13 99.12C163.23 99.83 165.84 100.12 167.75 100.12C165.97 100.01 164.54 100.54 163 100.87C164.37 101.18 165.59 101.63 166.88 102.12C165.21 102.12 163.54 102.12 161.88 102.12C163.53 103 165.3 103.84 166.5 104.37C163.81 104.91 161.14 104.62 159.75 104.5C161.15 104.7 162.9 105.43 163.75 105.75C162.93 106.47 161.34 105.75 160.88 105.75C162.23 107.13 163.61 107.24 165.25 107.62C163.45 107.62 161.49 107.69 160 107.75C161.24 108.58 162.36 108.74 163.63 109.37C162.25 110.24 160.19 109.54 159.38 109.5C159.45 110.72 160.85 110.61 161.38 111C160.46 111.64 158.47 111.7 158.13 111.75C158.82 112.07 159.63 112.93 159.88 113.12C158.95 112.92 157.99 112.96 157 112.87C157.85 112.85 158 113.6 158.38 113.87C157.67 114.4 157.11 113.87 156.5 113.87C157.24 115 158.49 115.24 159.38 115.75C157.55 116.13 154.07 115.4 152.75 115.25C158.03 106.08 159.14 100.22 158.5 90.25C157.78 79.16 150.42 70.35 143.62 64.75Z" />
		<path id="path6609" class="shp18" d="M142.32 65.51C143.13 64.86 142.9 65.29 143.83 64.73C152.97 69.51 157.89 75.84 159.46 87.97C160.91 99.09 158.9 111.4 152.75 117.66C152.08 117.76 151.25 118.34 150.27 118.02C155.78 110.67 158.16 103.62 157.52 90.79C156.96 79.65 151.36 69.88 142.32 65.51L142.32 65.51Z" />
		<path id="path4021" class="shp19" d="M143.3 65.55C159.1 71.38 164.87 99.58 151.86 117.46C147.2 119.3 139.82 117.13 135.29 116.07C131.59 111.46 126.69 106.04 125.93 97.54C125.14 88.8 128.99 79.47 132.6 74.15C136.62 69.86 138.2 66.57 143.3 65.55Z" />
		<path id="path5912" class="shp10" d="M152.13 81.84C152.13 84.27 150.16 86.24 147.72 86.24C145.29 86.24 143.32 84.27 143.32 81.84C143.32 79.41 145.29 77.44 147.72 77.44C150.16 77.44 152.13 79.41 152.13 81.84Z" />
		<path id="path5914" class="shp10" d="M143.72 73.83C143.72 74.94 142.83 75.84 141.72 75.84C140.61 75.84 139.72 74.94 139.72 73.83C139.72 72.73 140.61 71.83 141.72 71.83C142.83 71.83 143.72 72.73 143.72 73.83Z" />
		<path id="path5916" class="shp20" d="M50.65 171.31C56.73 170.48 59.38 168.87 62.86 163.11C77.37 152.62 95.1 149.26 114.9 150.1C109.47 164.34 95.21 175.33 81.67 182.52C69.29 181.98 59.71 180.64 50.65 171.31L50.65 171.31Z" />
		<path id="path5918" class="shp21" d="M53.73 171C58.59 169.31 60.99 165.21 63.92 161.66C68.21 162.05 70.33 160.15 73.54 158.54C71.51 166.22 65.55 170.23 59.63 172.25C57.91 172.83 56.99 174.25 56.98 176.15C53.73 174.19 53.2 171.25 52.03 169.3" />
		<path id="path5922" class="shp22" d="M67.86 173.12C74.74 170.36 81.85 161.47 82.87 154.2C88.85 150.52 104.64 147.75 114.9 150.9C111.77 156.9 109.16 161.34 103.89 165.91C95.69 169.81 73.99 185.83 67.86 173.12L67.86 173.12Z" />
		<path id="path5924" class="shp23" d="M68.46 172.71C73.96 173.76 79.26 170.43 84.02 168.22C93.11 163.99 100.49 157.74 105.29 151.1C108.19 150.99 110.99 151.02 113.9 150.9C112.22 156.66 106.4 160.89 102.89 165.11C90.55 170.12 78.05 181.11 66.46 175.32C69.09 175.04 67.77 173.61 68.46 172.71L68.46 172.71Z" />
		<path id="path5926" class="shp24" d="M113.5 152.1C111.31 155.74 109.8 159.99 105.89 162.71C103.71 163.37 75.55 179.15 68.96 175.36C78.85 175.5 89.63 168.57 97.3 163.74C103.94 159.56 107.07 153.68 107.89 150.9C109.82 151.25 111.64 151.42 113.5 152.1Z" />
		<path id="path6273" class="shp4" d="M108.55 25.92C93.38 41.84 67.54 58.49 53.4 66.93C49.8 69.07 43.74 74.21 41.68 79.44C40.77 81.76 40.63 77.42 38.9 78.95C43.7 71.73 49.9 65.42 55.87 62.33C69.62 55.23 85.8 44.35 94.06 36.17C104.19 26.13 113.27 12.37 125.35 17.61C117.2 17.11 112.6 21.6 108.55 25.92Z" />
		<path id="path4086" class="shp11" d="M108.57 89.32C100.81 94.51 54.9 101.08 45.87 99.68C42.6 96.61 35.89 91.21 35.66 86.9C36.31 86.3 40.3 77.43 41.11 78.02C38.81 81.99 38.6 85.98 39.02 86.88C40.77 90.59 43.35 92.05 46.44 95.05C64.55 97.92 101.61 91.05 106.46 87.31" />
		<path id="path6076" class="shp11" d="M9.03 139.23C17.68 157.97 39.92 157.01 57.64 156.2C73.42 145.8 93.44 142.8 112.09 143.65C120.68 147.01 126.49 140.82 134.01 140.82C137.25 149.62 131.8 151.94 125.7 155.14C119.51 155.83 113.3 157.14 109.97 160.27C111.44 157.69 113.77 152.89 114.56 150.72C98.09 150.4 74.35 150.98 62.77 162.56C48.85 163.34 28.89 168.12 15.92 160.09C12.37 153.71 8.39 146.53 9.03 139.23L9.03 139.23Z" />
		<path id="path4657" class="shp10" d="M202.92 38.39C201.88 38.75 201.66 37.8 201.32 37.19C200.69 36.09 202.34 35.59 202.92 35.39C205.71 34.45 207.52 35.54 209.32 35.79C211.19 36.05 213.38 37.26 212.13 37.59C209.55 37.14 205.37 37.53 202.92 38.39Z" />
		<path id="path4621" class="shp9" d="M195.51 50.8C198.74 52.31 200.07 44 207.92 41.6C212.04 40.33 217.86 39.74 219.13 39.79C208.48 44.24 203.97 47.96 199.11 57.01C198.08 58.94 195.29 57.97 194.11 56.61C188.85 50.56 186.84 40.45 192.71 34.19C188.92 40 191.99 49.15 195.51 50.8L195.51 50.8Z" />
		<path id="path6298" class="shp4" d="M135.37 22.37C130.62 24.13 125.95 27.17 122.87 30.5C122.91 26.3 127.31 22.47 129.62 20C131.8 19.2 133.83 21.68 135.37 22.37Z" />
		<path id="path6306" class="shp11" d="M133.62 22.5C130.93 23.11 127.72 25.03 126.37 26C126.61 23.4 129.87 21.55 131.62 20.37C132.63 20.62 132.91 21.98 133.62 22.5Z" />
		<path id="path6355" class="shp4" d="M179.25 40.5C174.49 34.8 180.87 28.8 184.63 25.87C195.73 24.13 194.93 31.71 196 31.62C193.99 30.62 190.68 28.59 188.2 29.66C185.72 30.74 183.72 32.06 182.21 34.12C180.1 36.99 181.26 43.55 179.25 40.5L179.25 40.5Z" />
		<path id="path6364" class="shp11" d="M196.25 67.25C196.17 68.25 196.43 69.28 196 70.25C190.93 68.56 185.84 66.52 184.87 60.64C184.54 58.63 185.01 58.96 185.62 59.75C188.06 62.85 190.65 63.71 195.23 63.12C200.26 62.48 202.97 57.2 204.25 54C206.4 59.37 204.48 64.6 196.25 67.25Z" />
		<path id="path6383" class="shp11" d="M180.75 30.62C182.29 29.68 185.52 27.99 187.5 27.75C182.86 29.97 179.68 34.73 179.75 37.75C177.77 38.42 179.46 31.42 180.75 30.62L180.75 30.62Z" />
		<path id="path6402" class="shp6" d="M188 200.75C184.26 202.55 180.39 203.99 177.5 206C173.54 208.75 171.16 212.27 168.75 215C166.78 214.49 164.53 212.98 163 212.25C164.8 208.49 167.45 206.95 172.5 204C178.22 200.66 183.97 200.93 188 200.75Z" />
		<path id="path6410" class="shp10" d="M379.38 223.31C379.42 223.92 379.19 224.83 378.62 224.56C376.51 223.55 377.59 220.04 377.56 217.5C378.43 218.93 379.23 221.55 379.38 223.31Z" />
		<path id="path6412" class="shp10" d="M394.63 221.31C394.95 222.12 393.65 223.15 393 222C392.31 220.78 391.26 217.97 391.19 216.25C392.66 217.81 393.92 219.59 394.63 221.31Z" />
		<path id="path6431" class="shp12" d="M206.62 227.62C209.6 232.09 210.94 239.91 206.63 244.37C204.14 246.95 196.87 245.82 196 242C194.69 236.26 200.61 229.28 206.62 227.62L206.62 227.62Z" />
		<path id="path6439" class="shp12" d="M191.56 220.56C192.83 227.38 192.66 236.66 184.63 240.5C179.96 240.3 174.4 239.33 174.75 233.62C177.17 225.15 182.81 222.46 191.56 220.56Z" />
		<path id="path6447" class="shp12" d="M174.5 210.62C175.04 216.91 173.74 223.47 167.87 227.62C163.12 228.06 157.31 227.75 156.5 222C158.49 213.22 166.49 212.84 174.5 210.62Z" />
		<path id="path6479" class="shp13" d="M160.75 212.5C156.4 214.11 151.08 210.89 152.87 205.75C154.94 199.84 162.84 199.99 169.12 198.87C169.37 204.26 166.02 210.55 160.75 212.5Z" />
		<path id="path6498" class="shp13" d="M206.37 228.37C202.77 232.02 202.89 236.37 202.5 241.25C202.38 242.81 203.22 243.6 203.75 244.62C199.37 244.1 194.45 243.33 195.25 239.75C196.29 235.12 202.59 229.45 206.37 228.37Z" />
		<path id="path6506" class="shp13" d="M182.5 232.87C181.9 234.67 183.11 238.25 184.5 239.5C178.94 239.29 175.65 235.86 175.5 233.25C174.97 223.98 184.43 221.62 191.19 221.37C186.22 223.17 184.07 228.2 182.5 232.87Z" />
		<path id="path6514" class="shp13" d="M174 211.37C167.26 214.02 164.62 221.11 164.62 228C160.35 226.37 155.01 224.81 155.75 220.75C157.1 213.34 166.87 212.02 174 211.37Z" />
		<path id="path6571" class="shp14" d="M205 229.12C202.02 231.93 200.85 236.34 200 239.25C199.43 241.2 200.93 242.82 201.5 244.25C198.76 243.79 195.63 241.75 196 239.62C196.71 235.56 201.67 231.35 205 229.12Z" />
		<path id="path6579" class="shp14" d="M189.25 221.37C184.38 224.06 181.24 228.55 179.87 232.87C179.3 234.7 180.93 237.79 181.13 239.25C178.76 238.26 175.2 235.55 174.88 233.37C173.86 226.51 184.17 221.98 189.25 221.37L189.25 221.37Z" />
		<path id="path6587" class="shp10" d="M189.75 224.12C189.27 226.91 188.68 230.25 188 233.5C187.92 233.88 185.25 236.36 185.37 233C185.49 229.92 187.33 226.74 189.75 224.12L189.75 224.12Z" />
		<path id="path6589" class="shp10" d="M206.25 240C206.13 240.67 203.74 240.99 204 239.62C204.27 238.18 205.06 234.04 206 231.37C206.81 233.85 206.8 237.02 206.25 240Z" />
		<path id="path6593" class="shp14" d="M170.87 211.75C167.53 213.75 160.84 219.62 160.25 226.12C157.2 225.33 155.21 223.71 155.63 221.12C156.69 214.52 164.61 212.32 170.87 211.75Z" />
		<path id="path6601" class="shp14" d="M167.75 199.87C163.38 202.82 157.98 204.3 156.75 210.12C155.09 209.13 153.36 207.86 153.75 206.37C155.35 200.33 162.39 198.66 167.75 199.87Z" />
		<path id="path6636" class="shp25" d="M161.76 54.55C162.11 54.2 164.77 53.49 165.12 53.14C169.31 55.14 172.21 57.46 175.02 61.09C174.84 65.02 174.19 69.95 173.78 74.35C173.08 66.24 166.96 57.75 161.76 54.55L161.76 54.55Z" />
		<path id="path6649" class="shp4" d="M51.87 132.37C50.56 133.42 42.08 133.52 42.43 128.1C42.63 124.95 44.41 118.5 59.25 118C65.3 121.35 64.21 127.45 61.87 132.62C60.04 135.47 52.92 137.41 51.87 132.37Z" />
		<path id="path6714" class="shp11" d="M53 130.37C50.04 131.32 47.16 129.76 44.87 129C43.47 121.81 53.15 119.95 58.25 119.25C63.91 122.88 63.2 127.72 60.5 131.75C59.26 133.6 57.29 133.61 55.5 133C54.02 132.5 53.79 131.58 53 130.37Z" />
		<path id="path6722" class="shp4" d="M14.28 119.18C16.09 123.34 16.58 124.92 13.62 129.6C11.36 130.73 9.28 130.21 7.44 129.33C7.89 127.89 8.85 127.31 9.82 126.5C8.66 122.26 9.97 116.06 13.38 114.08C13.38 114.08 13.53 117.93 14.28 119.18L14.28 119.18Z" />
		<path id="path4551" class="shp9" d="M208.85 64.85C216.25 66.67 221.97 63.16 226.97 59.75C228.37 58.8 229.93 55.94 229.8 54.37C232.02 53.7 232.84 55.97 232.49 56.64C227.17 66.67 216.31 76.52 206.02 73.62C199.58 71.81 201.73 64.2 204.39 59.82C205.06 63.56 206.68 64.31 208.85 64.85L208.85 64.85Z" />
		<path id="path6839" class="shp6" d="M129.87 179.5C131.23 177.68 134.2 175.24 135.87 174.12C134.68 176.22 133.42 179.44 132.38 181.25C128.71 183.61 126.67 188.12 126.12 191.5C125.51 192 123.48 191.5 123.25 191.5C122.9 187.93 123.53 185.85 125.37 183.87C127.52 182.81 128.62 181.12 129.87 179.5Z" />
		<path id="path6875" class="shp13" d="M133.87 182.87C135.01 187.27 136.37 192.31 134.62 196.12C132.86 199.98 124.57 199.2 124.62 196.75C124.76 190.95 129.12 186.05 133.87 182.87Z" />
		<path id="path6883" class="shp13" d="M117.37 192.75C111.83 197.01 104.16 196.51 106 189.25C107.4 183.71 116.42 181.02 120.81 179.62C118.83 183.64 118.17 188.4 117.37 192.75Z" />
		<path id="path6902" class="shp14" d="M112.25 194.87C107.71 194.86 106 192.4 106 188.37C109 186.54 111.98 184.45 114.87 182.81C111.94 186.6 112.25 189.84 112.25 194.87Z" />
		<path id="path6910" class="shp14" d="M133.37 183.87C130.76 187.89 129.93 193.65 129.75 197.62C127.79 198.36 126.7 198 126.12 196.62C123.65 190.67 128.03 186.67 133.37 183.87Z" />
		<path id="path6918" class="shp0" d="M368 129C370.04 132.52 374.78 141.99 374 148C372.68 148.4 369.96 150.34 367 149.25C352.97 144.07 336.83 127.73 351 112.75C353.71 119.53 359.77 126.79 368 129Z" />
		<path id="path6937" class="shp6" d="M371.25 140C370 143.61 365.2 140.84 362.5 139.5C350.35 133.46 345.09 125.73 351.75 116C353.99 124.24 359.53 126.26 366.25 128.5C368.26 132.47 372.55 136.25 371.25 140Z" />
		<path id="path6967" class="shp13" d="M315.38 200.37C314.59 203.36 310.76 204.1 307.75 202.62C306.16 198.91 306.14 194.2 309.25 190.5C312.23 192.49 314.46 196.35 315.38 200.37Z" />
		<path id="path7475" class="shp13" d="M302 202C301.33 203.29 300.93 205.51 299.13 206.12C297.18 206.79 294.48 206.83 292.62 205.5C292.62 200.19 293.73 195.35 298 192C300.2 194.67 302.18 197.66 302 202Z" />
		<path id="path7483" class="shp13" d="M285.63 204C282.93 203.41 279.85 203.39 277.25 202.12C278.82 197.2 280.7 192.78 285.75 190.25C286.78 194.58 287.66 199.76 285.63 204Z" />
		<path id="path7491" class="shp13" d="M277.87 184.56C278.52 188.04 277.61 192.43 274.13 194.87C272.89 194.66 270.04 194.26 268.75 192.25C269.8 187.61 272.12 185.21 277.87 184.56Z" />
		<path id="path7510" class="shp14" d="M309.37 190.32C308.96 193.27 310.25 197.66 310.61 199.16C311.43 200.8 312.52 200.51 313.61 201.28C312.15 203.35 310.36 202.52 308.49 202.69C305.16 198.23 306.52 194.49 309.37 190.32Z" />
		<path id="path7518" class="shp14" d="M298.41 191.91C297.48 194.69 295.46 199.32 297.35 203.93C297.48 204.52 298.23 205.33 297.88 206.41C296.8 206.36 294.43 207.26 292.93 205.17C293.09 201.39 293.89 195.48 298.41 191.91L298.41 191.91Z" />
		<path id="path7526" class="shp14" d="M285.68 190.32C282.63 193.73 281.94 198.83 281.44 202.69C279.36 203.35 278.19 202.07 276.67 201.46C276.97 195.3 281.34 192.83 285.68 190.32Z" />
		<path id="path7534" class="shp14" d="M277.37 185.9C275.86 186.46 273.47 191.56 272.95 193.85C271.55 193.73 270.27 192.96 269.24 192.62C270.24 187.84 273.37 186.85 277.37 185.9L277.37 185.9Z" />
		<path id="path7553" class="shp6" d="M318.39 181.13C317.5 182.45 316.68 182.75 315.22 183.8C312.47 185.77 310.17 182.39 307.6 185.02C306.44 189.56 305.71 194.72 305.3 199.16C304.69 199.79 305.13 199.86 304.6 200.57C300.58 193.93 300.72 190.89 303.01 185.55C299.4 183.43 295.29 188.76 291.16 198.27C288.13 197.49 289.49 194.83 291.87 183.95C288.36 181.27 281 189.89 278.61 192.79C278.21 192.37 277.56 190.69 277.55 190.67C278.4 186.93 283.65 183.03 284.97 180.24C294.85 178.5 304.61 174.82 312.2 172.29C312.28 172.94 318.44 179.59 318.39 181.13Z" />
		<path id="path4500" class="shp9" d="M250.18 46.73C254.93 50.68 262.5 48.41 267.88 46.62C272.79 44.99 274.82 42.63 275.66 38.95C280.8 47.13 270.22 49.45 264.48 52.25C256.48 56.14 246.39 55.53 244.38 49.7C242.8 45.13 248.69 41.37 249.54 39.87C247.98 42.79 248.37 45.23 250.18 46.73L250.18 46.73Z" />
		<path id="path4361" class="shp9" d="M254.4 76.16C252.02 83.65 261.45 87.97 269.18 86.69C274.16 85.86 277.91 84.63 278.58 81.02C283 86.7 272.56 93.82 266.74 94C257.72 94.29 250.25 93.24 247.92 85.23C246.72 81.13 251.87 77.85 254.4 76.16Z" />
		<path id="path4586" class="shp8" d="M307.64 37.67C308.73 43.59 317.31 44.67 322.22 45.17C325.67 45.52 328.98 45.83 329.72 44.04C331.18 45.26 330.88 46.87 331 48.15C321.32 53.2 298.83 52.76 299.29 39.65C299.48 34.42 306.17 34.28 309.77 33.99C307.97 34.76 307.42 36.44 307.64 37.67L307.64 37.67Z" />
		<path id="path4525" class="shp9" d="M315.71 47.72C321.89 48.82 329.2 50.1 330.29 45.03C332.45 46.48 331.77 48.41 331.14 49.28C326.7 55.37 318.89 55.08 312.31 52.25C305.46 49.3 297.74 48.91 296.89 43.33C296.36 39.9 301.78 36.82 303.89 35.12C298.35 43.44 308.98 46.52 315.71 47.72Z" />
		<path id="path4535" class="shp10" d="M354.69 51.62C354.07 50.51 356.34 49.63 357.89 50.82C358.26 51.1 359.8 52.77 359.1 53.42C358.45 54.02 355.31 52.71 354.69 51.62L354.69 51.62Z" />
		<path id="path4594" class="shp8" d="M354.29 57.12C357.41 59.35 363.6 60.33 363.9 57.62C365.53 60.1 365.7 63.11 363.7 64.73C361.36 66.61 354.81 65.11 351.09 62.93C347.05 60.56 339.09 56.62 341.68 52.72C343.57 49.88 348.91 48.55 351.49 49.01C347.51 52.71 351.44 55.08 354.29 57.12L354.29 57.12Z" />
		<path id="path4543" class="shp9" d="M347.09 53.42C348.25 57.12 351.01 58.48 354.19 60.02C358.65 62.19 363.21 62.83 364.1 60.32C364.87 62.57 365.03 63.49 364.1 65.03C362.86 67.08 354.13 64.1 350.09 62.33C346.25 60.64 341.71 57.68 341.98 53.92C342.23 50.55 346.95 50.08 349.09 49.11C347.39 50.15 346.65 52.03 347.09 53.42L347.09 53.42Z" />
	</g>
	<g id="layer1">
		<path id="path4094" fill-rule="evenodd" class="shp26" d="M376.62 151.7C386.96 152.61 389.97 155.7 397.22 159.6C404.67 163.62 416.61 177.45 414.47 186.32C412.5 194.83 411.39 209.63 402.78 214.79C400.75 216.99 400.87 218.44 398.73 220.36C400.42 223.32 396.32 227.94 392.93 228.88C390.51 229.56 385.96 229.15 386.19 225.45C385.09 226.36 384.39 227.11 383.12 227.66C383.29 230.17 379.36 231.7 375.11 231.24C372.35 230.94 369.8 229.81 369.6 228C369.44 226.63 369.42 225.31 367.43 225.3C366.94 226.41 366.15 226.73 363.7 227.49C360.83 228.38 355.79 225.84 355.91 222.86C355.93 220.75 357.92 218.05 359.19 216.04C357.51 210.15 362.19 204.66 360.28 198.26C349.75 198.57 329.9 196.41 319.19 185.62C314.63 181.03 308.84 171.74 305.09 160.8C301.4 159.75 297.02 158.29 294.53 155.59C293.47 154.45 294.52 152.95 296.25 154.28C298.85 156.27 301.2 155.12 304.02 155.82C303.48 153.97 302.44 151.08 303.06 146.37C304.43 146.38 305.35 145.33 306.32 145.81C309.18 171.05 324.07 188.64 339.91 192.76C349.47 195.25 355.3 197.54 367.62 195.07C369.72 194.65 364.88 198.32 362.69 198.45C364.44 203.44 360.58 208.95 362.37 212.35C363.14 211.73 363.89 211.28 364.56 211.1C365.71 212.63 368.79 216.56 368.44 219.85C368.39 220.29 368.35 220.65 368.31 221.01C369.11 220.92 369.92 220.79 370.76 221.17C371.65 217.94 373.86 215.28 376.91 213.95C379.16 214.54 381.53 218.68 382.5 222.26C383.35 221.7 384.22 221 385.09 220.1C385.44 220.25 385.8 220.34 386.12 220.45C386.38 218.3 387.27 215.06 389.83 213.74C392.7 214.61 393.63 215.63 395.34 217.79C396.86 216.1 397.92 214.19 398.91 213.39C404.16 210.62 412.77 194.59 411 181.51C403.96 168.71 396.44 156.27 377.24 155C376.78 157.68 378.98 162.14 375.21 163.82C372.63 154.8 372.84 142.36 363.4 126.29C364.14 127.22 366 128.78 368.57 128.1C374.41 136.04 373.86 142.06 376.62 151.7ZM387.58 221.02C387.5 222.89 387.61 224.17 388.53 224.64C389.88 225.31 391.18 225.42 392.34 225.1C393.82 224.7 394.94 223.67 395.44 222.82C395.95 221.94 395.54 220.63 394.26 219.02C393.06 217.52 391.77 215.62 389.8 214.87C387.71 216.42 387.66 219.31 387.58 221.02ZM376.95 215.04C373.87 216.47 371.12 221.99 372.19 226.29C372.75 227.06 374.21 227.95 375.44 228.04C377.66 228.21 379.01 227.46 379.88 226.86C379.88 226.86 381.48 225.38 380.86 223.21C379.92 219.93 379.01 217.23 376.95 215.04ZM366.62 222.04C367.07 218.6 366.04 215.78 363.81 213.32C363.18 213.63 362.61 214.07 362.06 214.6C360.18 216.44 358.78 219.41 359.09 222.39C359.68 223.37 361.3 224.74 363.69 224.17C366.27 223.55 366.62 222.04 366.62 222.04Z" />
		<path id="path5478" fill-rule="evenodd" class="shp26" d="M318.87 108.45C325.61 108.57 330.69 108.44 334.68 115.85C336.03 121.51 339.67 128.01 343.68 133.48C345.75 136.3 341.24 140.43 335.48 139.1C324.92 136.65 299.77 135.71 301.06 117.86C301.41 112.94 311.1 108.31 318.87 108.45ZM305.17 116.77C301.35 127.41 321.31 134.4 334.93 136.04C339.96 136.65 341.97 134.09 340.87 132.95C334.65 126.48 334.4 120.38 330.68 114.67C327.37 111.78 322.71 110.63 318.31 110.64C312.65 110.65 306.21 113.88 305.17 116.77Z" />
		<path id="path4114" fill-rule="evenodd" class="shp26" d="M268.91 13.67C273.41 4.74 279.05 1.59 286.2 1.42C291.62 1.3 302.79 13.44 304.33 19.05C321.23 25.71 332.99 37.21 344.75 47.27C348.77 45.71 355.71 45.27 359.28 46.92C363.82 49.02 368.54 55.24 367.78 64.21C375.17 68.27 416.63 90.37 422.09 91.26C423.58 87.99 428.15 86.71 430.55 85.8C435.88 83.78 442.95 84.49 453.25 89.01C458.99 86.7 464.52 83.9 468.41 80.39C470.28 78.69 473.54 81.05 472.81 84.01C471.25 90.39 468.95 92.11 464.59 96.3C467.93 103.21 466.41 112.03 461.59 118.07C455.88 125.25 440.47 123.57 433.34 121.73C415.73 130.54 395.25 139.14 370.43 135.92C368.17 135.63 368.24 134.16 369.21 132.42C387.58 133.56 407.41 131.62 430.19 120.35C428.75 119.28 424.33 115 425.81 110.32C427.1 106.25 433.84 101.82 438.56 99.79C449.55 95.07 457.73 91.37 462.59 94.21C464.44 92.56 467.51 89 468.57 86.5C469.23 84.95 469.26 82.37 467.47 83.76C452.24 95.59 437.26 97.92 421.34 94.07C400.57 88.43 389.18 78.36 365.39 67.5C363.69 68.19 356.09 66.18 350.84 63.98C346.63 62.21 337.37 55.83 340.09 52.45C340.61 51.82 341.12 51.05 341.81 50.54C330.13 39.96 316.04 27.33 300.03 21.54C296.75 21.68 290.32 22.6 285.53 22.89C280.57 23.19 268.5 23.75 268.03 18.2C265.31 18.39 262.55 18.67 259.78 19.04C259.79 19.12 259.81 19.19 259.81 19.26C260.1 22.4 250.44 26.7 244.38 29.12C238.26 31.57 232.61 32.5 225.91 31.48C224.55 31.27 221.9 30.53 222.51 28.26C215.89 30.7 217.61 29.66 212.24 32.53C211.81 32.25 210.67 31.84 210.61 30.91C214.13 28.19 213.94 27.42 221.45 24.51C222.03 18.04 229.22 7.67 236.08 5.26C243.98 2.48 257.41 8.89 261.5 14.45C264.88 14.07 265.69 13.82 268.91 13.67ZM271 18.04C271.22 20.32 280.58 20.01 284.84 20.01C288.62 20.01 293.8 19.53 299.94 19.04C299.05 14.57 291.1 4.75 285.37 5.07C280.23 5.37 272.48 11.61 271 18.04ZM236.53 8.51C232.14 9.61 227.62 17.72 226.19 23.42C225.87 24.67 225.5 26.12 226.03 27.29C227.32 30.13 235.94 28.64 244.09 25.76C249.08 24 254.7 22.18 256.44 19.54C257.02 18.66 257.83 17.41 256.87 16.42C252.23 11.57 243.49 7.53 236.53 8.51ZM363.8 63.03C365.77 60.43 360.86 50.99 358.12 50.13C353.21 48.58 343.75 50.55 343.91 52.48C344.13 55.28 347.08 59.68 351.32 61.29C354.35 62.44 362.26 65.06 363.8 63.03ZM449.17 90.43C443.26 88.13 441.3 86.68 433.84 87.85C430.73 88.33 425.63 89.22 424.81 92.17C433.45 93.65 440.55 93.44 449.17 90.43ZM459.97 96.14C457.55 94.32 446.34 98.7 440.81 100.85C436.35 102.6 430.24 106.97 428.97 111.17C427.88 114.75 431.05 117.44 432.53 118C439.14 120.54 450.93 121.81 459.56 115.04C463.49 111.96 465.43 102.57 459.97 96.14Z" />
		<path id="path3057" class="shp26" d="M384.51 221.24C381.58 215.44 381.56 207.37 384.13 203.46C381.83 210.57 385.63 216.48 387.53 221.24C386.65 222.25 385.39 221.24 384.51 221.24Z" />
		<path id="path3059" class="shp26" d="M372.65 219.9C372.14 222.07 372.96 222.98 368.99 221.62C368.99 217.06 369.27 208.63 372.4 203.46C372.23 207.33 369.98 214.58 372.65 219.9L372.65 219.9Z" />
		<path id="path3074" fill-rule="evenodd" class="shp26" d="M376.48 107.16C382.02 112.46 381.93 116.92 392.09 125.69C394.06 127.39 389.38 133.4 385.54 133.28C368.61 132.73 353.33 129.75 350 116.39C348.53 110.46 356.88 103.41 365.11 103.99C367.85 104.18 375.02 105.76 376.48 107.16ZM367.03 107.22C361.53 106.78 355.04 108.1 354.17 113.43C351.98 126.82 376.86 129.76 384.86 129.94C387.08 129.99 389.9 128.63 387.78 125.71C382.64 118.68 377.99 117.42 374.99 110.08C374.31 108.87 369.53 107.42 367.03 107.22Z" />
		<path id="path3109" fill-rule="evenodd" class="shp26" d="M232.19 113.69C235.38 120.8 233.79 123.27 241.47 130.96C244.23 133.72 239.64 139.93 232.26 140.12C216.63 140.52 197.74 131.71 202.51 119.64C204.1 115.6 208.83 112.96 214.61 111.5C221.17 109.84 230.65 110.25 232.19 113.69ZM204.84 121.74C205.5 134.08 221.9 136 233.48 136.23C238.76 136.33 239.51 132.82 238.32 131.59C235.32 128.51 233.03 125.06 231.39 121.85C230.15 119.41 230.4 115.82 228.8 115.2C224.03 113.34 218.46 113.51 214.65 114.62C209.76 116.03 204.71 119.23 204.84 121.74Z" />
		<path id="path3114" fill-rule="evenodd" class="shp26" d="M259.84 139.22C257.41 136.62 252.87 130.33 259.28 133.56C268.28 138.09 268.17 146.8 268.22 159.73C268.25 167.46 265.06 175.6 264.16 178.04C260.48 188.01 255.13 192.44 251 199.95C243.6 215.04 247.3 221.6 237.37 231.45C231.72 237.06 221.56 243.81 214.62 242.45C212.87 243.44 211.15 243.97 209.5 244.23C208.63 245.22 207.66 246.62 206 246.92C201.94 247.65 194.85 247.23 193.5 243.51C193.09 242.38 192.86 241.35 192.59 239.95C190.71 240.54 190.55 240.27 188.53 240.2C187.81 240.89 186.97 241.45 186.03 241.89C183.85 242.89 173.02 241.36 172.53 234.35C172.37 232.07 172.84 230.71 173.12 229.23C171.23 230.17 168.05 231.15 164.81 231.04C159.42 230.86 149.84 224.79 154.03 218.32C154.53 217.55 156.33 216.16 157 215.32C157.19 213.47 156.57 213.87 154.28 213.1C149.39 211.48 150.14 206.13 151.81 203.98C154.43 200.62 160.1 198.49 164.22 197.6C166.64 195.83 168.76 195.68 171.06 194.76C180.17 191.13 184.19 181.77 196.06 179.98C202.07 166.41 196.66 153.45 211.22 144.64C212.36 143.94 215.83 144.85 213.66 146.17C204.34 155.05 206.25 168.36 199.09 182.64C187.67 185.95 183.12 194.61 172.16 198.01C171.58 198.19 170.8 198.51 169.94 198.89C169.87 203.57 166.06 207.11 163.44 210.48C163.51 210.55 163.58 210.63 163.66 210.7C163.47 211.54 163.6 211.16 163.25 212.51C166.68 210.67 173.03 209.38 175.72 210.07C177.34 213.52 176.32 220.18 171.78 224.95C173.23 224.95 174.93 224.78 177.31 224.82C177.41 225.36 177.55 225.88 177.72 226.39C178.75 225.1 179.97 223.9 181.31 222.95C184.8 220.48 189.31 219.69 192.87 219.7C193.27 223.3 193.22 229.76 191.06 234.73C192.56 234.51 194.06 234.01 195.5 233.14C195.98 233.91 196.53 234.59 197.16 235.2C199.25 231.25 202.78 227.78 207.16 225.85C209.63 228.59 209.53 232.74 209.41 237.51C209.39 237.94 209.36 238.36 209.31 238.76C210.58 238.57 211.74 238.22 212.66 237.7C218.54 238.41 225.49 236.07 234.16 227.48C243.88 217.83 241.32 209.43 248.28 195.51C253.16 190 257.14 182.76 260.31 176.51C261.98 173.23 264.32 167.13 264.46 160.98C264.63 152.99 266.12 145.91 259.84 139.22ZM160.81 201.85C158.85 202.83 156.71 203.33 155.47 205.54C154.48 207.29 155.88 208.93 157.78 209.54C160.85 211.12 162.5 209.5 163.47 208.2C165.67 205.25 166.59 203.83 167.94 200.29C164.38 200.29 163.01 200.77 160.81 201.85ZM159.34 218.2C158.77 218.88 157.12 221.17 159.53 223.76C162.56 227.02 165.38 226.4 169.78 224.76C172.37 222.36 173.88 217.24 174.34 212.14C173.68 212.04 172.99 212.01 172.31 212.01C167.56 212.01 162.63 214.27 159.34 218.2ZM181.47 224.79C178.9 227.01 176.99 228.58 176.19 233.67C177.33 237.35 179.66 238.38 183.53 238.07C185.93 237.88 188.08 235.48 189 233.82C190.93 230.33 191.56 226.02 191.16 221.54C188.4 222.04 184.77 221.94 181.47 224.79ZM199.31 235.35C197.88 237.13 196.89 239.32 197.28 240.29C198.9 244.27 203.87 243.76 205.19 242.67C206.5 241.58 207.19 238.95 207.19 238.95C208.31 234.79 207.64 232.31 206.31 228.6C203.28 230.1 201.51 232.65 199.31 235.35Z" />
		<path id="path3138" class="shp26" d="M313.61 170.84C297.1 181.82 277.55 184.78 261.03 183.28C261.11 181.89 259.11 180.05 259.43 179C279.1 180.01 301.75 175.82 312.14 168.83C312.23 169.37 313.52 170.3 313.61 170.84L313.61 170.84Z" />
		<path id="path3140" class="shp26" d="M199.47 179.43C200.58 180.23 202.84 180.94 202.88 183.4C201.39 183.26 198.39 181.4 198.9 183.02C199.09 181.19 199.25 180.3 199.47 179.43Z" />
		<path id="path3168" fill-rule="evenodd" class="shp26" d="M263.82 69.31C271.18 68.42 280.52 74.65 281.92 83.66C282.77 89.17 272.06 94.11 268.36 94.44C254.09 95.71 244.32 89.95 246.85 82.05C249.75 73.03 258.86 69.9 263.82 69.31ZM264.9 72.84C259.41 73.86 251.66 77.15 250.11 83.12C248.85 87.96 258.61 92.51 267.46 91.21C271.16 90.67 279.64 88.3 278.88 83.66C277.78 76.9 270.45 71.81 264.9 72.84Z" />
		<path id="path3179" fill-rule="evenodd" class="shp26" d="M258.33 30.77C267.15 28.72 278.51 33.36 279.23 42.3C279.69 47.98 269.3 52.07 263.28 54.09C250.3 58.46 243.52 54.08 242.91 50.23C241.79 43.2 248.26 33.1 258.33 30.77ZM276.17 42.01C274.07 35.44 265.99 31.74 257.78 34.15C251.35 36.04 246.74 42.37 246.08 47.65C245.39 53.26 252.98 53.7 263.04 50.26C268.27 48.48 277.11 44.95 276.17 42.01Z" />
		<path id="path3204" class="shp26" d="M164.19 50.04C165.94 51.71 171.72 52.46 174.69 57.3L176.37 60.04C175.69 75.08 177.8 98.58 164.28 113.39C155.03 122.06 154.02 120.08 149.06 120.07C147.16 120.07 141.81 119.34 139.09 118.49C135.18 117.28 134.17 115.77 135.18 115.95C139.71 116.8 144.39 118.21 147.19 117.79C167.28 113.46 174.46 95.81 173.41 60.95C170.2 58.11 168.32 51.91 163.09 54.92C142.97 60.39 138.07 73.68 120.28 84.29C131.75 74.83 143.44 53.75 164.19 50.04L164.19 50.04Z" />
		<path id="path6747" class="shp11" d="M13.09 126.15C12.37 128.86 11.2 129.02 8.76 127.92C9.81 127.36 9.95 126.42 10.44 125.8C10.32 123.23 10.58 121.06 11.15 118.59C11.84 120.81 12.95 123 13.09 126.15Z" />
		<path id="path3206" class="shp26" d="M34.27 82.65C34.27 82.65 36.29 84.98 36.67 86.36C37.15 88.06 38.45 88.67 38.95 90.41C40.18 94.71 36.94 89 36.69 89.64C33.07 99.01 29.69 106.29 17.34 111.57C14.27 112.89 13.17 116.35 11.78 118.95C10.18 121.96 15.58 126.18 8.72 128.67C7.83 135.43 11.14 146.82 16.87 156.68C30.46 164.21 49.7 161.84 62.12 159.67C76.25 149.17 92.07 146.24 110.53 148.2C120.52 149.26 124.66 146.18 130.59 142.92C130.9 142.75 131.13 142.66 131.28 142.64C132.33 142.49 129.98 145.5 129.31 145.98C122.69 150.72 114.13 153.4 106.75 152.39C94.06 150.64 71.28 159.79 64.66 163.1C52.63 168.78 32.59 165.9 23.28 164.26C15.47 162.88 12.16 159.17 10.97 156.45C8.57 150.94 1.96 139.3 4.16 127.07C4.48 125.31 8.13 125 8.3 123.81C8.61 121.64 7.35 117.25 8.08 116.05C13.19 107.68 15.66 107.36 21.59 103.9C27.82 100.27 29.86 96.96 34.27 82.65L34.27 82.65Z" />
		<path id="path3210" class="shp26" d="M46.34 128.46C46.82 122.62 51.82 121.65 57.68 120.14C60.81 121.75 61.21 127.87 59.64 130.09C55.08 133.2 53.27 128.54 55.22 124.74C53.52 123.37 47.85 125.83 46.34 128.46Z" />
		<path id="path3216" class="shp26" d="M36.59 87.29C33.88 87.4 32.33 78.85 33.22 75.94C38.16 59.82 72.35 40.92 77.99 37.33C102.56 21.67 106.04 4.69 117.95 3.28C123.24 2.65 127.43 4.19 130.38 6.88C132.54 8.85 134.33 11.44 134.74 14.98C135.13 18.32 136.04 20.52 135.81 21.14C133.34 18.97 133.55 20.29 131.53 19.53C130.93 16.06 130.27 10.69 128.12 8.35C124.72 4.66 119.2 6.92 118.22 6.83C112.18 6.23 106.53 22.45 80.66 40.54C66.76 50.27 35.88 67.56 36.59 87.29L36.59 87.29Z" />
		<path id="path3218" class="shp26" d="M113.34 18.73C126.32 13.95 134.59 19.24 137.35 18.93C145.48 18.03 153.54 17.61 160.49 20.74C160.31 22.58 160 24.38 159.16 25.32C152.24 21.91 142.27 21.76 134.74 22.74C133.71 22.88 132.51 22.63 131.53 22.21C124.79 19.3 120.3 17.78 113.34 18.73L113.34 18.73Z" />
		<path id="path3993" fill-rule="evenodd" class="shp26" d="M223.33 39.72C223.7 40.16 223.73 41.86 221.92 42.44C216.88 44.05 212.3 45.34 208.25 48.94C204.74 52.07 203.04 55.92 199.26 58.63C194.45 62.06 189.65 51.77 188.33 47C186.68 41.03 187.61 34.38 192.67 31.75C194.25 30.94 196.5 30.54 199.14 30.5C207.06 30.38 218.23 33.66 223.33 39.72ZM219.46 39.72C212.99 35.13 203.78 32.2 194.37 34.64C187.72 36.35 190.15 47.65 195.69 54.05C196 54.41 198.71 54.96 199.42 53.72C204.19 45.39 207.86 43.96 219.46 39.72Z" />
		<path id="path3998" class="shp26" d="M196.22 32.42C195.13 28.96 187.24 25.13 181.97 31.08C181.54 31.56 179.56 32.65 180.05 31.32C184.75 20.35 199.59 25.32 202.77 31.3C201.58 31.62 198.35 32.79 196.22 32.42Z" />
		<path id="path4002" fill-rule="evenodd" class="shp26" d="M175.94 121.48C183.37 122.13 189.2 136.48 202.12 137.58C203.47 137.69 203.55 139.09 202.64 140.24C194.39 150.81 178.84 153.41 164.44 148.23C162.66 147.59 161.38 139.99 163.48 133.23C165.5 126.73 170.76 121.04 175.94 121.48ZM175.31 125.88C165.74 129.12 164.85 145.02 168.74 146.12C180.24 149.36 188.9 146.81 197.61 141.69C198.14 141.38 199.39 139.73 197.87 139.67C189.5 139.31 180.78 124.02 175.31 125.88Z" />
		<path id="path4009" class="shp26" d="M65.9 159.94C62.37 164 61.66 169.15 56.06 171.29C52.36 172.7 71.05 184.13 82.54 179.62C91.39 176.15 106.11 161.48 113.57 149.34C115.34 149.39 117.11 149.34 118.87 149.34C109.25 165.26 97.84 175.47 84.82 184.16C72.28 188.68 55.53 181.37 51.69 176.51C47.14 170.73 46.08 166.86 53.9 167.08C55.73 166.56 56.82 164.16 57.94 163.66C60.18 162.68 61.98 163.32 65.9 159.94L65.9 159.94Z" />
		<path id="path4015" class="shp26" d="M165.79 156.16C168.95 156.83 165.79 154.65 172.18 155.31C158.62 173.57 142.72 169.36 119.63 181.13C109.65 186.21 104.06 192.91 92.94 197.03C82.43 200.92 64.56 202.56 50.77 190.78C44.78 185.66 40.91 177.21 49.52 167.43C51.03 167.18 50.74 173.51 52.08 172.05C50.07 175.53 47.75 180.8 53.23 185.67C60.94 192.54 79.52 197.41 95.2 189.66C108.85 182.91 117.03 174.36 134.76 170.54C148.11 167.66 155.87 165.88 165.79 156.16L165.79 156.16Z" />
		<path id="path4017" class="shp26" d="M184.51 129.23C186.84 119.51 181.15 116.68 171.66 115.85C172.63 114.94 174.69 114.69 175.14 114.52C186.19 114.21 191.24 123.66 188.95 131.87C187.44 131.63 185.3 131.16 184.51 129.23L184.51 129.23Z" />
		<path id="path4019" class="shp26" d="M180.15 150.23C172.55 159.63 163.42 158.17 157.17 153.1C156.18 152.31 154.2 147.76 154.67 146.58C154.9 145.99 156.63 148.53 157.09 148.97C164.98 156.4 168.75 155.88 174.87 149.34C175.88 149.72 179.14 149.85 180.15 150.23L180.15 150.23Z" />
		<path id="path4027" class="shp26" d="M174.88 226.63C174.51 219.99 183.05 216.44 192.26 211.37C183.96 218.32 181.31 221.73 178.62 227.7C177.37 227.34 176.12 226.98 174.88 226.63Z" />
		<path id="path4029" class="shp26" d="M163.1 214.85C162.93 212.55 161.81 212.39 162.28 210.02C165.06 206.28 172.52 201.25 182.16 200.41C177.46 202.99 165.83 208.41 163.1 214.85L163.1 214.85Z" />
		<path id="path4031" class="shp26" d="M198.42 236.99C197.23 236.75 196.01 234.41 193.07 234.12C194.29 231.68 198.99 223.7 203.68 220.74C202.46 225.83 196.79 231.44 198.42 236.99Z" />
		<path id="path4033" fill-rule="evenodd" class="shp26" d="M215.6 81.92C223.72 79.91 229.09 81.77 233.75 87.48C239.38 94.38 228.48 100.24 222.39 102.09C215.63 104.15 204.14 106.63 202.4 99.97C200.39 92.23 206.34 84.21 215.6 81.92ZM216.66 85.39C209.42 87.73 204.06 92.75 204.84 97.39C205.56 101.62 215.87 101.55 221.3 99.42C224.43 98.2 234.1 93.14 231.59 89.1C228.72 84.49 223.38 83.23 216.66 85.39Z" />
		<path id="path4038" fill-rule="evenodd" class="shp26" d="M318.11 67.78C326.84 67.63 335.48 79.47 334.34 83.91C333.22 88.28 327.67 91.77 318.29 90.69C310.11 89.74 299.71 86.02 299.91 80.74C300.11 75.2 311.56 67.89 318.11 67.78ZM316.9 70.78C311.23 71.02 303.39 76.65 303.99 79.83C305.15 86 315.42 87.68 321.5 87.23C326.7 86.85 329.61 86.69 330.91 83.2C332.82 78.07 322.57 70.53 316.9 70.78Z" />
		<path id="path4045" fill-rule="evenodd" class="shp26" d="M351.49 84.81C356.78 78.76 363.31 76.98 369.62 78.09C374.17 78.9 380.58 92.19 378.64 94.55C375.9 97.88 368.77 97.97 362.52 95.73C356.32 93.51 348.51 88.23 351.49 84.81ZM368.8 81.07C364.86 79.77 355.83 81.56 354.99 86.33C354.46 89.34 359.4 91.27 363.94 93.01C368.01 94.58 371.06 96.06 375.83 93.24C377.7 92.13 373.09 82.48 368.8 81.07Z" />
		<path id="path4050" fill-rule="evenodd" class="shp26" d="M281.16 180.2C281.34 180.18 281.56 180.2 281.78 180.2C281.45 181.99 280.17 183.5 278.87 184.89C279.66 188.71 278.62 191.32 277.31 193.29C277.78 193.74 278.38 194.14 279.25 194.42C281.04 192.38 283.45 190.71 286.44 189.73C286.61 190.49 288.33 194.48 288.21 198.53C288.2 198.73 288.19 198.96 288.18 199.18C289.4 198.98 290.08 198.75 291.62 198.14C291.79 198.51 292.01 198.88 292.25 199.23C292.6 198.08 293.08 196.95 293.72 195.95C294.85 194.17 296.8 192.58 298.75 191.32C300.6 193.88 302.43 197.03 302.54 200.03C303.23 199.51 303.08 198.75 303.81 197.98C304.99 198.38 304.8 198.6 305.78 198.7C305.59 195.97 306.37 192.87 308.81 189.82C310.51 189.79 314.06 191.84 315.06 195.73C315.51 195.35 315.98 194.95 316.44 194.51C321.56 192.74 322.35 190.18 323.59 187.57C325.36 189.34 324.7 187.68 326.47 189.45C325.13 192.77 320.9 197.28 317.97 197.39C317.21 197.99 317.3 198.54 316.44 199.04C316.46 199.47 316.45 199.9 316.44 200.36C316.32 201.49 314.25 203.95 312.5 204.32C311.07 204.63 306.96 204.53 306.16 202.79C305.43 202.83 305.91 202.84 305.09 202.82C303.83 203.72 303.39 204.54 302.13 205.06C301.98 205.8 300.95 206.37 300.69 207.07C300.02 208.34 295.01 209.13 291.69 206.73C291.43 206.25 291.32 205.5 291.31 204.6C290.62 204.09 290.25 203.42 290.34 202.64C289.09 203.11 288.61 203.26 287.49 203.4C287.26 204.13 287.35 204.77 286.4 205.21C283.36 206.31 274.46 205.02 275.03 201.17C275.36 199.77 275.93 198.43 276.69 197.17C275.9 197.02 275.17 196.71 274.5 196.29C274.48 196.31 274.46 196.33 274.44 196.35C272.09 196.4 268.3 195.34 267.25 192.67C267.81 191.01 269.74 186.64 273.75 185.2C275.16 183.77 277.05 183.11 277.31 180.76C278.86 180.76 279.86 180.31 281.16 180.2L281.16 180.2ZM276.65 191.62C277.63 189.88 277.53 188.02 277.53 186.42C276.62 186.57 274.16 187.53 272.5 189.23C271.66 190.1 271.03 191.13 270.62 192.32C271.5 193.59 273.26 193.8 274.45 193.82C274.94 193.86 276 192.8 276.65 191.62ZM279.72 196.35C279.05 197.64 278.72 198.68 278.31 200.32C279.22 202.62 283.36 202.59 284.74 202.71C285.3 201.38 285.96 200.35 286.15 198.18C286.33 196.02 285.93 192.19 284.94 191.23C282.73 192.44 280.8 194.29 279.72 196.35ZM308.81 191.23C308.06 193.76 307.18 196.16 307.59 198.54C307.87 200.13 307.86 199.52 308.62 200.79C309.26 201.85 311.58 201.09 312.22 200.89C312.66 200.74 313.18 200.31 313.53 200.14C313.53 200.14 313.71 198.81 313.44 197.01C313.17 195.25 311.71 192.62 308.81 191.23L308.81 191.23ZM294.03 200.98C293.71 202.56 293.91 204.54 293.91 204.54C294.81 204.88 295.72 205.28 296.69 205.23C297.56 205.18 298.5 204.88 299.25 204.6C299.37 203.51 300.34 202.44 300.38 201.31C300.48 198.42 299.15 195.56 298.09 192.92C295.48 195.12 294.62 198.14 294.03 200.98Z" />
		<path id="path4074" class="shp26" d="M193.76 67.43C194.56 66.9 195.36 66.36 196.16 65.83C196.18 75.19 202.93 82.01 203.77 93.05C201.23 107.05 198.67 117.27 186.96 125.08C186.93 124.86 185.74 122.13 186.56 121.47C195.15 112.31 202.14 102.55 199.92 85.67C197.29 79.82 194.21 74.25 193.76 67.43L193.76 67.43Z" />
		<path id="path4078" fill-rule="evenodd" class="shp26" d="M176.03 158.07C173.18 163.01 168.92 173.46 162.12 178.73C153.27 185.59 157.08 194.22 138.73 195.75C138.43 196.72 137.31 198.29 136.52 198.95C133.67 201.3 123.01 201.91 122.17 199.21C121.78 197.95 121.6 196.74 121.49 195.58C120.07 196.23 118.71 195.27 117.59 196.37C114.4 199.54 102.14 199.3 102.14 192.85C102.14 192.32 106.24 188.06 107.31 187.92C107.79 187.85 106.71 190.45 106.78 190.85C107.13 193.1 109.34 194 113.44 193.17C115.25 192.8 116.43 191.68 116.94 190.35C118.22 186.96 118.82 183.22 120.25 180.01C120.91 179.89 120.88 180.28 121.62 179.76C120.4 182.45 120.06 186.84 119.37 190.6C120.56 190.64 121.83 190.56 123.16 190.35C123.88 190.9 124.54 191.19 125.16 191.39C126.88 187.54 129.39 183.99 134.5 181.95C135.98 184.89 136.55 188.52 136.12 192.1C149.08 191.62 152.85 183.05 160.53 174.73C163.43 171.58 168.37 165.47 169.62 158.07L176.03 158.07ZM125.81 195.79C126.42 197.83 130.58 197.4 132.69 196.42C133.47 195.18 134.01 194.49 134.31 192.14C134.68 189.24 134.48 186.09 133.47 184.04C129.39 186.71 125.35 191.26 125.81 195.79Z" />
		<path id="path4082" class="shp26" d="M197.25 33.43C196.35 33.55 195.46 33.68 194.56 33.8C193.67 26.96 192.2 20.57 186.96 12.85C184.21 12.49 178.9 9.32 174.15 11.78C157.97 31.31 138.84 49.73 120.96 65.77C116 70.21 109.79 73.35 104.52 79.89C106.56 74.03 114.41 68.51 119.86 63.12C135.93 47.23 155.89 25.19 173.4 7.33C190.26 2.45 195.73 16.76 197.25 33.43L197.25 33.43Z" />
		<path id="path4110" class="shp26" d="M339.07 43.92C339.42 43.7 334.18 43.28 335.08 40.41C334.21 36.77 333.6 30.08 329.87 27.4C325.67 24.37 321.27 25.66 316.06 28.4C315.19 27.66 314.06 24.24 312.46 24.2C320.77 20.02 327.9 21.77 331.47 24.88C337.31 29.98 338.79 39.93 339.07 43.92Z" />
		<path id="path4115" class="shp26" d="M212.53 35.55C213.41 34.6 211.04 32.98 210.27 32.29C206.24 28.74 200.17 28.29 195.97 28.47C195.76 27.69 195.58 25.55 195.3 24.79C204.81 23.85 213.75 29.13 215.08 33.43C215.8 35.76 215.02 34.89 214.48 36.38C210.7 34.96 213.74 36.09 212.53 35.55L212.53 35.55Z" />
		<path id="path4117" class="shp26" d="M356.94 204.95C356.82 205.84 356.6 206.55 356.41 207.23C357.3 206.68 358.34 206.3 359.5 206.14C359.96 206.91 360.35 208.05 360.81 208.95C360.64 209.63 360.84 210.31 360.28 210.95C359.99 210.3 360 208.51 359 207.54C355.7 209.2 354.52 212.24 353.81 215.32C353.94 217.25 356.74 217.48 358.84 217.67C358.71 218.42 357.35 220.25 356.94 221.02C354.31 221.24 351.63 219.69 350.35 217.49C350.54 215.31 351.58 211.18 352.82 209.25C352.97 204.55 354.54 204.37 355.16 197.58C356.62 196.87 358.4 197.42 358.87 197.23C359.46 200.23 357.38 203.53 356.94 204.95Z" />
		<path id="path4177" class="shp26" d="M306.23 199.31C306.06 199.28 304.32 200.19 303.33 199.61C303.47 196.41 303.07 188.98 306.23 184.87C305.27 190.13 304.46 194.37 306.23 199.31Z" />
		<path id="path4179" class="shp26" d="M292.07 199.59C291.23 199.59 290.38 199.59 289.53 199.59C290.78 194.34 291.56 190.75 295.75 186.85C294.38 190.22 291.88 194.52 292.07 199.59Z" />
		<path id="path4181" class="shp26" d="M286.41 184.3C284.46 187.67 282.41 190.45 281.13 194.16C280.88 194.89 280.12 195.73 279.51 196.55C279.26 196.39 278.56 195.99 278.2 195.06C280.55 190.36 281.46 187.05 286.41 184.3L286.41 184.3Z" />
		<path id="path4498" class="shp10" d="M266.32 36.26C267.9 37.35 264.38 38.43 262.07 37.95C260.53 37.64 257.6 37.34 258.96 35.55C260.82 33.09 264.74 35.17 266.32 36.26Z" />
		<path id="path4533" class="shp10" d="M317.41 35.41C318.43 33.64 322.23 35.13 323.5 36.68C323.89 37.16 320.53 38.1 319.39 37.81C317.22 37.28 316.9 36.29 317.41 35.41L317.41 35.41Z" />
		<path id="path5920" class="shp26" d="M80.23 154.53C81.51 154.34 84.48 154.18 85.72 153.17C82.63 159.65 79.43 164.56 74.74 168.98C72.97 170.65 67.89 172.04 68.73 173.83C71.25 177.14 76.5 175.57 81.17 173.59C87.82 170.79 97.59 164.41 106.95 161.09C105.91 162.13 104.25 164.99 103.43 166.21C93.71 171.76 87.25 178.79 75.95 179.44C69.15 179.84 64.44 178.34 63.25 172.98C62.8 170.3 69.15 169.81 71.5 167.94C75.54 164.72 78.43 160.69 80.23 154.53L80.23 154.53Z" />
		<path id="path4000" class="shp26" d="M192.61 64.66C199.46 66.01 205.58 60.11 202.17 49.15C203.61 48.07 205.6 46.46 207.16 46.37C210.53 56.15 206.28 69.27 197.55 68.35C190.19 67.58 190.07 64.16 192.61 64.66Z" />
		<path id="path6814" class="shp26" d="M120.87 191.12C121.49 189.59 122.52 186.16 124.62 184C125.99 182.88 128.42 180.75 130.25 179.25C129.04 181.27 128.61 182.98 126.12 184.62C125.67 186.55 124.62 189.16 124.37 191.5C123.23 191.4 122.04 191.16 120.87 191.12Z" />
	</g>
	<path id="path3069" fill-rule="evenodd" class="shp26" d="M284.49 115.77C285.39 125.77 295.39 131.82 293.3 137.97C292.39 140.65 288.56 143.82 283.68 143.26C275.94 142.39 247.49 134.92 248.45 121.59C248.87 115.79 256.99 110.28 267.27 110.14C272.66 110.06 284.23 112.82 284.49 115.77ZM267.04 113.56C258.85 114.02 251.6 117.45 251.54 121.65C251.38 131.69 273.42 138.01 284.76 139.26C291.95 140.05 289.85 135.3 289.37 134.17C286.72 127.87 281.44 124.2 281.97 117.95C282.13 116.08 273.77 113.18 267.04 113.56Z" />
	<path id="path3116" class="shp26" d="M204.43 151.14C204.37 150.65 202.95 148.6 204.03 144.14C204.66 141.54 206.15 141.6 206.05 143.04C205.7 148.16 206.93 148.16 207.98 150.75C208.16 153.68 204.76 151.1 204.43 151.14L204.43 151.14Z" />
	<path id="path4056" fill-rule="evenodd" class="shp26" d="M321.58 30.41C329.1 32.73 332.85 42.55 332.83 47.25C332.79 54.47 322.41 54.01 317.1 54.02C308.6 54.05 291.96 47.53 295.49 41.59C299.95 34.11 313.75 28 321.58 30.41ZM319 32.86C311.45 32.37 298.08 37.04 298.2 44.13C298.24 46.83 308.57 50.79 315.56 51.27C320.87 51.64 330.85 52.05 329.86 46.31C329.22 42.62 325.84 33.31 319 32.86Z" />
	<path id="path4065" fill-rule="evenodd" class="shp26" d="M233.49 54.79C236.76 58.08 226.63 67.12 222.12 70.11C217.3 73.3 205.24 78.81 202.24 73.1C198.7 66.35 201.12 57.26 209.15 50.81C215.23 45.93 227.65 48.91 233.49 54.79ZM212 52.62C206.76 54.66 200.91 67.33 204.27 70.2C207.78 73.19 214.81 71.9 220.81 67.67C226.6 63.58 232.56 57.7 229.46 55.11C225.03 51.39 218.87 49.95 212 52.62Z" />
	<path id="path4076" class="shp26" d="M170.03 154.98C181.89 153.99 187.87 155.23 204.17 162.71C203.37 163.73 201.77 163.72 201.37 166.31C192.24 162.4 177.19 155.42 163.74 159.9C163.76 159.89 170.42 155.61 170.03 154.98Z" />
	<path id="path4359" class="shp10" d="M267.66 74.05C269.03 74.29 271.81 74.78 271.41 76.31C271.17 77.23 267.6 78.1 266.25 77.99C264.94 77.89 263.74 77.39 263.77 75.89C263.78 75.05 264.9 73.56 267.66 74.05Z" />
	<path id="path4386" class="shp10" d="M320.06 72.03C321.1 72.33 325.45 75.02 321.87 75.64C320.31 75.91 317.58 76.32 316.86 73.63C316.84 73.55 317.62 71.34 320.06 72.03L320.06 72.03Z" />
</svg>